<svg width="1440" height="960" viewBox="0 0 1440 960" fill="none" xmlns="http://www.w3.org/2000/svg" role="img" aria-label="Bemuss dashboard app mockup">
  <defs>
    <linearGradient id="bgDash" x1="520" y1="120" x2="1290" y2="760" gradientUnits="userSpaceOnUse">
      <stop stop-color="#0A1326"/>
      <stop offset="1" stop-color="#050B18"/>
    </linearGradient>
    <linearGradient id="panelStroke" x1="520" y1="120" x2="1290" y2="760" gradientUnits="userSpaceOnUse">
      <stop stop-color="#7DD3FC"/>
      <stop offset="0.5" stop-color="#2563EB" stop-opacity="0"/>
      <stop offset="1" stop-color="#2563EB"/>
    </linearGradient>
    <linearGradient id="blueGrad" x1="0" y1="0" x2="0" y2="1">
      <stop stop-color="#60A5FA"/>
      <stop offset="0.55" stop-color="#2563EB"/>
      <stop offset="1" stop-color="#0B5CFF"/>
    </linearGradient>
    <linearGradient id="cardGrad" x1="0" y1="0" x2="1" y2="1">
      <stop stop-color="#12213B" stop-opacity="0.98"/>
      <stop offset="1" stop-color="#0A1224" stop-opacity="0.96"/>
    </linearGradient>
    <linearGradient id="phoneGrad" x1="0" y1="0" x2="1" y2="1">
      <stop stop-color="#0D1526"/>
      <stop offset="1" stop-color="#02060F"/>
    </linearGradient>
    <filter id="shadow" x="-40%" y="-40%" width="180%" height="180%">
      <feDropShadow dx="0" dy="24" stdDeviation="36" flood-color="#000000" flood-opacity="0.48"/>
    </filter>
    <filter id="strongShadow" x="-40%" y="-40%" width="180%" height="180%">
      <feDropShadow dx="0" dy="36" stdDeviation="30" flood-color="#000000" flood-opacity="0.76"/>
      <feDropShadow dx="0" dy="0" stdDeviation="14" flood-color="#60A5FA" flood-opacity="0.30"/>
    </filter>
    <filter id="glow" x="-60%" y="-60%" width="220%" height="220%">
      <feGaussianBlur stdDeviation="24" result="blur"/>
      <feColorMatrix in="blur" type="matrix" values="1 0 0 0 0.145 0 1 0 0 0.388 0 0 1 0 0.984 0 0 0 0.75 0"/>
    </filter>
    <filter id="softGlow" x="-60%" y="-60%" width="220%" height="220%">
      <feGaussianBlur stdDeviation="10" result="blur"/>
      <feColorMatrix in="blur" type="matrix" values="1 0 0 0 0.145 0 1 0 0 0.388 0 0 1 0 0.984 0 0 0 0.55 0"/>
    </filter>
    <filter id="ringGlow" x="-60%" y="-60%" width="220%" height="220%">
      <feGaussianBlur stdDeviation="18"/>
    </filter>
  </defs>

  <ellipse cx="865" cy="808" rx="420" ry="94" fill="#2563EB" fill-opacity="0.28" filter="url(#glow)"/>
  <ellipse cx="866" cy="810" rx="320" ry="62" fill="#60A5FA" fill-opacity="0.24" filter="url(#softGlow)"/>

  <ellipse cx="845" cy="806" rx="330" ry="84" stroke="#2B68F8" stroke-width="4" stroke-opacity="0.72" filter="url(#ringGlow)"/>
  <ellipse cx="845" cy="806" rx="330" ry="84" stroke="#7DD3FC" stroke-width="2" stroke-opacity="0.85"/>

  <g filter="url(#shadow)">
    <rect x="560" y="116" width="760" height="610" rx="34" fill="url(#bgDash)" stroke="url(#panelStroke)" stroke-width="2"/>
    <rect x="560" y="116" width="760" height="610" rx="34" fill="none" stroke="#FFFFFF" stroke-opacity="0.06" stroke-width="1"/>

    <rect x="560" y="116" width="760" height="74" rx="34" fill="#091120"/>
    <rect x="560" y="158" width="760" height="1" fill="#60A5FA" fill-opacity="0.10"/>

    <circle cx="612" cy="152" r="6" fill="#60A5FA" fill-opacity="0.9"/>
    <circle cx="632" cy="152" r="6" fill="#60A5FA" fill-opacity="0.5"/>
    <circle cx="652" cy="152" r="6" fill="#60A5FA" fill-opacity="0.25"/>

    <text x="692" y="156" fill="#E5F0FF" font-family="Inter, Arial, sans-serif" font-size="15" font-weight="800">BEMUSS</text>

    <circle cx="1262" cy="153" r="16" fill="url(#blueGrad)" opacity="0.9"/>
    <circle cx="1262" cy="153" r="11" fill="#F97316" fill-opacity="0.88"/>

    <rect x="580" y="204" width="146" height="432" rx="20" fill="#0A1222" stroke="#60A5FA" stroke-opacity="0.12"/>
    <rect x="598" y="232" width="112" height="32" rx="10" fill="#1841AE"/>
    <text x="612" y="253" fill="#FFFFFF" font-family="Inter, Arial, sans-serif" font-size="12" font-weight="700">Dashboard</text>
    <g fill="#9FB0CD" font-family="Inter, Arial, sans-serif" font-size="11" font-weight="600">
      <text x="612" y="298">Reservas</text>
      <text x="612" y="332">Clientes</text>
      <text x="612" y="366">Servicios</text>
      <text x="612" y="400">Pagos</text>
      <text x="612" y="434">Reportes</text>
      <text x="612" y="468">Ajustes</text>
    </g>
    <rect x="598" y="496" width="112" height="64" rx="16" fill="#0E1B31" stroke="#60A5FA" stroke-opacity="0.12"/>
    <text x="612" y="522" fill="#E8F1FF" font-family="Inter, Arial, sans-serif" font-size="12" font-weight="700">$24,680</text>
    <text x="612" y="541" fill="#93A4BD" font-family="Inter, Arial, sans-serif" font-size="10" font-weight="600">Ingresos</text>

    <rect x="754" y="210" width="520" height="152" rx="24" fill="#0B1322" stroke="#60A5FA" stroke-opacity="0.12"/>
    <text x="786" y="248" fill="#E5F0FF" font-family="Manrope, Inter, Arial, sans-serif" font-size="24" font-weight="800">Bemuss OS</text>
    <text x="786" y="274" fill="#9CAFCB" font-family="Inter, Arial, sans-serif" font-size="13" font-weight="500">Automatización, analítica y operaciones en un solo panel.</text>
    <rect x="1038" y="232" width="130" height="96" rx="48" fill="#091120" stroke="#60A5FA" stroke-opacity="0.18"/>
    <circle cx="1103" cy="280" r="39" fill="none" stroke="url(#blueGrad)" stroke-width="10" stroke-linecap="round"/>
    <circle cx="1103" cy="280" r="22" fill="#0E1B31"/>
    <text x="1083" y="286" fill="#FFFFFF" font-family="Inter, Arial, sans-serif" font-size="15" font-weight="800">98%</text>
    <text x="1088" y="304" fill="#9CAFCB" font-family="Inter, Arial, sans-serif" font-size="10" font-weight="600">uptime</text>

    <rect x="754" y="386" width="222" height="114" rx="20" fill="#101B31" stroke="#60A5FA" stroke-opacity="0.12"/>
    <text x="778" y="418" fill="#9CAFCB" font-family="Inter, Arial, sans-serif" font-size="11" font-weight="600">Pedidos</text>
    <text x="778" y="448" fill="#FFFFFF" font-family="Manrope, Inter, Arial, sans-serif" font-size="28" font-weight="800">1,248</text>
    <text x="778" y="472" fill="#5EEAD4" font-family="Inter, Arial, sans-serif" font-size="11" font-weight="700">+22% este mes</text>

    <rect x="998" y="386" width="276" height="114" rx="20" fill="#101B31" stroke="#60A5FA" stroke-opacity="0.12"/>
    <text x="1022" y="418" fill="#9CAFCB" font-family="Inter, Arial, sans-serif" font-size="11" font-weight="600">Automatización</text>
    <text x="1022" y="448" fill="#FFFFFF" font-family="Manrope, Inter, Arial, sans-serif" font-size="28" font-weight="800">84%</text>
    <text x="1022" y="472" fill="#7DD3FC" font-family="Inter, Arial, sans-serif" font-size="11" font-weight="700">Flujos optimizados</text>

    <rect x="754" y="524" width="520" height="164" rx="24" fill="#0B1322" stroke="#60A5FA" stroke-opacity="0.12"/>
    <text x="778" y="556" fill="#E5F0FF" font-family="Inter, Arial, sans-serif" font-size="14" font-weight="800">Actividad semanal</text>
    <text x="778" y="578" fill="#9CAFCB" font-family="Inter, Arial, sans-serif" font-size="11" font-weight="600">Ventas y retención</text>
    <text x="1192" y="563" fill="#7DD3FC" font-family="Inter, Arial, sans-serif" font-size="13" font-weight="800">+18.4%</text>
    <g transform="translate(780 596)">
      <rect x="0" y="58" width="28" height="42" rx="10" fill="#60A5FA" fill-opacity="0.75"/>
      <rect x="44" y="36" width="28" height="64" rx="10" fill="#60A5FA" fill-opacity="0.85"/>
      <rect x="88" y="50" width="28" height="50" rx="10" fill="#60A5FA" fill-opacity="0.7"/>
      <rect x="132" y="20" width="28" height="80" rx="10" fill="#2563EB"/>
      <rect x="176" y="44" width="28" height="56" rx="10" fill="#60A5FA" fill-opacity="0.78"/>
      <rect x="220" y="10" width="28" height="90" rx="10" fill="#2563EB"/>
      <rect x="264" y="28" width="28" height="72" rx="10" fill="#60A5FA" fill-opacity="0.78"/>
      <rect x="308" y="18" width="28" height="82" rx="10" fill="#2563EB"/>
      <rect x="352" y="40" width="28" height="60" rx="10" fill="#60A5FA" fill-opacity="0.78"/>
      <rect x="396" y="30" width="28" height="70" rx="10" fill="#60A5FA" fill-opacity="0.78"/>
    </g>

    <rect x="754" y="704" width="520" height="1" fill="#60A5FA" fill-opacity="0.12"/>
    <text x="778" y="734" fill="#9CAFCB" font-family="Inter, Arial, sans-serif" font-size="12" font-weight="600">Deploys</text>
    <text x="778" y="754" fill="#FFFFFF" font-family="Inter, Arial, sans-serif" font-size="14" font-weight="700">Sin fricción</text>
    <text x="1018" y="734" fill="#9CAFCB" font-family="Inter, Arial, sans-serif" font-size="12" font-weight="600">Integraciones</text>
    <text x="1018" y="754" fill="#FFFFFF" font-family="Inter, Arial, sans-serif" font-size="14" font-weight="700">OpenAI · WhatsApp · Telegram</text>
  </g>

  <g filter="url(#strongShadow)">
    <g transform="translate(240 110) rotate(2)">
      <rect x="0" y="0" width="290" height="118" rx="22" fill="url(#cardGrad)" stroke="#60A5FA" stroke-opacity="0.35"/>
      <circle cx="48" cy="42" r="22" fill="#22C55E"/>
      <text x="35" y="51" fill="#FFFFFF" font-family="Inter, Arial, sans-serif" font-size="24" font-weight="700">☘</text>
      <text x="86" y="40" fill="#FFFFFF" font-family="Inter, Arial, sans-serif" font-size="16" font-weight="800">WhatsApp</text>
      <text x="212" y="40" fill="#AAB6C9" font-family="Inter, Arial, sans-serif" font-size="11" font-weight="700">ahora</text>
      <text x="86" y="66" fill="#E5ECFA" font-family="Inter, Arial, sans-serif" font-size="12" font-weight="500">Nueva reserva recibida</text>
      <text x="86" y="84" fill="#E5ECFA" font-family="Inter, Arial, sans-serif" font-size="12" font-weight="500">Cancha #2 · 7:00 PM</text>
      <circle cx="266" cy="92" r="6" fill="#20FF80" filter="url(#softGlow)"/>
    </g>
  </g>

  <g filter="url(#strongShadow)">
    <g transform="translate(240 316) rotate(-8)">
      <rect x="0" y="0" width="268" height="480" rx="38" fill="url(#phoneGrad)" stroke="#0F172A" stroke-width="8"/>
      <rect x="94" y="8" width="80" height="18" rx="14" fill="#060B13"/>
      <text x="18" y="34" fill="#FFFFFF" font-family="Inter, Arial, sans-serif" font-size="10" font-weight="700">9:41</text>
      <text x="214" y="34" fill="#FFFFFF" font-family="Inter, Arial, sans-serif" font-size="10" font-weight="700">◔ ◔ ◔</text>
      <text x="20" y="74" fill="#FFFFFF" font-family="Inter, Arial, sans-serif" font-size="13" font-weight="800">BEMUSS</text>
      <circle cx="28" cy="66" r="10" fill="#60A5FA" fill-opacity="0.25"/>
      <rect x="198" y="54" width="36" height="36" rx="10" fill="#FFFFFF" fill-opacity="0.08" stroke="#60A5FA" stroke-opacity="0.18"/>
      <text x="209" y="77" fill="#FFFFFF" font-family="Inter, Arial, sans-serif" font-size="18" font-weight="700">☰</text>

      <text x="22" y="126" fill="#FFFFFF" font-family="Manrope, Inter, Arial, sans-serif" font-size="28" font-weight="800">Reserva tu</text>
      <text x="22" y="158" fill="#FFFFFF" font-family="Manrope, Inter, Arial, sans-serif" font-size="28" font-weight="800">cancha</text>

      <rect x="20" y="186" width="228" height="42" rx="12" fill="#E7EDF6"/>
      <text x="34" y="213" fill="#172033" font-family="Inter, Arial, sans-serif" font-size="12" font-weight="600">Buscar cancha...</text>
      <text x="225" y="214" fill="#172033" font-family="Inter, Arial, sans-serif" font-size="14" font-weight="700">⌕</text>

      <rect x="20" y="246" width="228" height="132" rx="20" fill="#FFFFFF" fill-opacity="0.04" stroke="#60A5FA" stroke-opacity="0.14"/>
      <text x="34" y="274" fill="#9FB0C8" font-family="Inter, Arial, sans-serif" font-size="11" font-weight="600">Próxima reserva</text>
      <text x="34" y="302" fill="#FFFFFF" font-family="Inter, Arial, sans-serif" font-size="16" font-weight="800">Cancha Sintética</text>
      <text x="34" y="330" fill="#9FB0C8" font-family="Inter, Arial, sans-serif" font-size="11" font-weight="600">Sábado, 18 Mayo</text>
      <text x="34" y="352" fill="#9FB0C8" font-family="Inter, Arial, sans-serif" font-size="11" font-weight="600">7:00 PM</text>
      <rect x="34" y="366" width="86" height="24" rx="8" fill="#1457F3"/>
      <text x="46" y="382" fill="#FFFFFF" font-family="Inter, Arial, sans-serif" font-size="10" font-weight="800">Ver detalles</text>

      <g fill="#56A1FF" font-family="Inter, Arial, sans-serif" font-size="16" font-weight="700">
        <text x="28" y="442">⌂</text>
        <text x="82" y="442">▣</text>
        <text x="136" y="442">♙</text>
        <text x="190" y="442">○</text>
      </g>
      <g fill="#86A5D8" font-family="Inter, Arial, sans-serif" font-size="8" font-weight="600">
        <text x="18" y="458">Inicio</text>
        <text x="72" y="458">Reservas</text>
        <text x="128" y="458">Clientes</text>
        <text x="187" y="458">Perfil</text>
      </g>
    </g>
  </g>

  <g filter="url(#strongShadow)">
    <g transform="translate(940 640)">
      <rect x="0" y="0" width="320" height="176" rx="24" fill="url(#cardGrad)" stroke="#60A5FA" stroke-opacity="0.34"/>
      <text x="22" y="32" fill="#E5F0FF" font-family="Inter, Arial, sans-serif" font-size="15" font-weight="800">Ingresos del mes</text>
      <text x="241" y="32" fill="#7DD3FC" font-family="Inter, Arial, sans-serif" font-size="12" font-weight="800">+12.5%</text>
      <text x="22" y="82" fill="#FFFFFF" font-family="Manrope, Inter, Arial, sans-serif" font-size="34" font-weight="800">$24,680</text>
      <text x="22" y="108" fill="#9CADC5" font-family="Inter, Arial, sans-serif" font-size="12" font-weight="700">vs. mes anterior</text>
      <path d="M16 150C54 143 62 108 98 124C134 140 140 86 176 104C210 121 216 73 252 89C286 105 298 77 304 66" stroke="#60A5FA" stroke-width="5" stroke-linecap="round" stroke-linejoin="round" fill="none" filter="url(#softGlow)"/>
      <circle cx="304" cy="66" r="5.5" fill="#8FC3FF"/>
    </g>
  </g>
</svg>
