<?xml version="1.0" standalone="no"?>
<!DOCTYPE svg PUBLIC "-//W3C//DTD SVG 20010904//EN"
 "http://www.w3.org/TR/2001/REC-SVG-20010904/DTD/svg10.dtd">
<svg version="1.0" xmlns="http://www.w3.org/2000/svg"
 width="1536.000000pt" height="1024.000000pt" viewBox="0 0 1536.000000 1024.000000"
 preserveAspectRatio="xMidYMid meet">

<g transform="translate(0.000000,1024.000000) scale(0.100000,-0.100000)"
fill="#000000" stroke="none">
<path d="M0 5120 l0 -5120 7680 0 7680 0 0 5120 0 5120 -7680 0 -7680 0 0
-5120z m12373 4243 c-13 -2 -35 -2 -50 0 -16 2 -5 4 22 4 28 0 40 -2 28 -4z
m-8760 -120 c-13 -2 -33 -2 -45 0 -13 2 -3 4 22 4 25 0 35 -2 23 -4z m315 -10
c-15 -2 -42 -2 -60 0 -18 2 -6 4 27 4 33 0 48 -2 33 -4z m320 -10 c-15 -2 -42
-2 -60 0 -18 2 -6 4 27 4 33 0 48 -2 33 -4z m269 -10 c-20 -2 -52 -2 -70 0
-17 2 0 4 38 4 39 0 53 -2 32 -4z m261 -10 c-10 -2 -28 -2 -40 0 -13 2 -5 4
17 4 22 1 32 -1 23 -4z m310 -10 c-15 -2 -42 -2 -60 0 -18 2 -6 4 27 4 33 0
48 -2 33 -4z m295 -10 c-23 -2 -64 -2 -90 0 -26 2 -7 3 42 3 50 0 71 -1 48 -3z
m275 -10 c-15 -2 -42 -2 -60 0 -18 2 -6 4 27 4 33 0 48 -2 33 -4z m270 -10
c-15 -2 -42 -2 -60 0 -18 2 -6 4 27 4 33 0 48 -2 33 -4z m-3518 -119 c-6 -32
-8 -86 -5 -119 3 -33 12 -195 20 -360 16 -303 36 -649 100 -1735 19 -327 44
-759 55 -960 11 -201 34 -592 50 -870 16 -278 34 -586 40 -685 5 -99 19 -331
30 -515 30 -510 57 -986 80 -1400 11 -206 24 -402 30 -434 5 -33 8 -62 6 -64
-11 -10 -27 121 -36 293 -12 211 -33 578 -55 935 -8 129 -18 300 -22 380 -6
114 -9 134 -14 95 -4 -29 -5 -12 -2 38 5 118 -9 361 -18 297 -3 -25 -5 9 -3
75 2 87 0 108 -6 75 -6 -32 -7 -11 -5 75 2 66 0 104 -4 85 -5 -24 -10 19 -15
132 -4 92 -5 171 -1 177 3 6 2 11 -3 11 -4 0 -14 102 -21 228 -6 125 -14 261
-17 302 -3 41 -27 455 -54 920 -27 465 -63 1077 -80 1360 -16 283 -39 666 -50
850 -34 581 -43 767 -36 802 5 29 36 82 43 74 1 -1 -2 -29 -7 -62z m9618 59
l114 -6 99 -111 99 -111 0 -265 c0 -226 -2 -269 -16 -286 -15 -18 -15 -18 -5
3 14 27 15 354 2 334 -5 -8 -10 -80 -10 -160 -1 -80 -5 -149 -9 -153 -5 -5
-116 -7 -248 -5 l-239 2 243 3 242 2 0 250 0 250 -85 0 c-103 0 -105 3 -105
125 l0 85 -162 -2 -162 -3 2 -190 c1 -195 -3 -249 -18 -240 -5 3 -11 -5 -13
-17 -2 -13 -5 88 -6 224 -1 212 1 249 15 262 17 18 77 20 262 9z m-1267 -124
c78 -26 149 -105 174 -193 8 -28 26 -199 40 -381 26 -348 56 -734 80 -1025 8
-96 12 -176 10 -178 -7 -8 -15 70 -65 713 -65 823 -66 832 -90 897 -21 58 -73
115 -130 143 -24 12 -74 20 -165 26 -237 16 -241 17 -64 13 96 -2 191 -9 210
-15z m1299 -175 c0 -11 -18 -14 -85 -14 -74 0 -85 2 -85 18 0 15 9 17 85 14
65 -3 85 -7 85 -18z m140 -146 c0 -20 -2 -21 -97 -15 -54 4 -124 7 -155 7 -45
0 -58 3 -58 15 0 13 24 15 155 15 152 0 155 0 155 -22z m-7731 -30 c5 -14 4
-30 -3 -40 -8 -13 -7 -21 2 -30 15 -15 16 -28 2 -28 -6 0 -15 11 -20 25 -5 14
-14 25 -20 25 -5 0 -10 -11 -10 -25 0 -14 -4 -25 -10 -25 -6 0 -10 27 -10 60
l0 60 30 0 c23 0 33 -6 39 -22z m69 -20 c20 -20 14 -38 -13 -38 -14 0 -25 -4
-25 -10 0 -10 14 -14 39 -11 7 2 10 -2 6 -8 -12 -21 -45 -12 -55 15 -13 32
-13 30 6 48 19 19 26 20 42 4z m73 -4 c12 -15 11 -16 -9 -10 -13 5 -22 3 -22
-3 0 -6 6 -11 13 -11 19 0 36 -20 30 -36 -6 -16 -53 -19 -53 -3 0 6 9 8 20 4
11 -3 20 -2 20 4 0 5 -9 13 -20 16 -19 6 -27 35 -13 48 10 11 20 8 34 -9z
m872 -46 c2 -27 1 -48 -4 -48 -5 0 -9 26 -8 58 1 64 5 60 12 -10z m-831 20 c4
-46 31 -44 39 2 l5 35 5 -42 c4 -37 2 -42 -18 -46 -12 -2 -26 -1 -31 2 -11 7
-21 81 -11 81 4 0 9 -15 11 -32z m162 24 c10 -19 16 -82 7 -82 -5 0 -11 14
-13 32 -5 47 -28 48 -29 1 l-2 -38 -10 38 c-13 45 -27 49 -27 7 0 -16 -4 -30
-10 -30 -5 0 -10 17 -10 38 l0 38 45 1 c25 1 46 -2 49 -5z m72 0 c6 -4 13 -15
17 -24 5 -15 1 -18 -25 -18 -26 0 -29 -2 -18 -15 10 -12 16 -13 26 -4 11 9 14
9 14 0 0 -18 -29 -25 -45 -11 -18 15 -20 51 -3 68 14 14 19 14 34 4z m91 -47
l1 -40 -6 35 c-9 47 -38 49 -36 3 1 -18 -2 -33 -7 -33 -5 0 -9 18 -9 41 0 38
1 40 28 37 24 -3 27 -7 29 -43z m123 -9 c0 -56 -12 -72 -45 -60 -22 9 -18 23
4 17 10 -3 22 0 25 6 4 6 -1 11 -11 11 -25 0 -43 19 -43 45 0 29 8 35 42 35
27 0 28 -1 28 -54z m68 42 c20 -20 14 -38 -13 -38 -14 0 -25 -5 -25 -11 0 -6
9 -9 20 -6 20 5 28 -7 11 -17 -30 -19 -65 40 -41 69 15 18 32 19 48 3z m74 -1
c4 -7 7 -28 7 -47 l-2 -35 -6 34 c-8 48 -31 53 -31 7 0 -20 -4 -36 -10 -36 -5
0 -10 19 -10 43 0 37 3 43 22 44 12 1 26 -3 30 -10z m88 -22 c0 -9 -10 -15
-25 -15 -26 0 -33 -14 -15 -25 6 -4 17 -1 25 5 12 10 15 9 15 -4 0 -13 -7 -17
-27 -14 -24 3 -29 8 -31 37 -2 20 2 37 9 42 17 10 49 -7 49 -26z m48 11 c-10
-7 -18 -26 -18 -41 0 -37 -6 -29 -13 18 -5 35 -4 37 21 37 25 -1 25 -2 10 -14z
m70 -32 c2 -34 0 -41 -15 -41 -20 0 -43 15 -43 28 0 5 11 14 25 21 25 11 25
31 0 21 -8 -3 -15 0 -15 7 0 6 10 10 23 8 18 -2 23 -10 25 -44z m6321 -94 c4
27 20 -22 20 -65 0 -40 0 -40 -14 -15 l-14 25 -1 -25 c0 -40 18 -50 99 -52
l76 -2 -74 -3 c-107 -6 -111 0 -109 141 1 100 2 105 8 46 4 -36 8 -58 9 -50z
m321 70 c0 -19 -7 -20 -100 -20 -93 0 -100 1 -100 20 0 19 7 20 100 20 93 0
100 -1 100 -20z m1095 -111 c10 -15 -1 -23 -20 -15 -9 3 -13 10 -10 16 8 13
22 13 30 -1z m-11567 -96 c-15 -2 -42 -2 -60 0 -18 2 -6 4 27 4 33 0 48 -2 33
-4z m11452 -167 c0 -3 -4 -8 -10 -11 -5 -3 -10 -1 -10 4 0 6 5 11 10 11 6 0
10 -2 10 -4z m-8480 -116 c1 -25 20 10 20 37 0 12 5 25 10 28 11 7 5 -29 -13
-75 -9 -25 -10 -25 -28 15 -10 22 -18 47 -18 55 1 18 28 -39 29 -60z m202 14
c-2 -13 2 -32 9 -42 12 -15 11 -16 -3 -2 -15 14 -22 43 -19 80 1 12 3 12 10 2
4 -7 6 -24 3 -38z m-104 4 c2 -13 -3 -18 -18 -18 -12 0 -18 -4 -15 -11 4 -6
13 -8 21 -5 8 3 14 1 14 -5 0 -6 -10 -9 -22 -7 -18 2 -24 11 -26 36 -3 30 -1
33 20 30 12 -2 24 -11 26 -20z m68 -18 l2 -35 -5 33 c-2 18 -10 32 -18 32 -8
0 -15 -14 -18 -32 -4 -32 -4 -32 -5 5 -2 34 0 38 21 35 18 -2 22 -10 23 -38z
m112 2 c2 -17 -1 -32 -7 -32 -6 0 -8 7 -5 15 4 10 0 15 -11 15 -12 0 -15 -5
-10 -21 5 -15 4 -19 -4 -15 -18 11 -13 37 9 43 11 3 17 9 15 14 -3 4 -13 5
-22 2 -11 -4 -14 -3 -9 6 15 23 41 7 44 -27z m57 28 c3 -6 -1 -7 -9 -4 -23 9
-20 -9 4 -24 11 -7 20 -16 20 -21 0 -15 -33 -22 -44 -10 -8 9 -7 10 7 6 21 -8
23 11 2 19 -19 8 -20 44 -1 44 8 0 18 -4 21 -10z m1456 0 c25 -14 24 -36 -1
-52 -11 -7 -20 -18 -20 -25 0 -7 -4 -13 -10 -13 -5 0 -10 23 -10 50 0 52 7 58
41 40z m5969 -10 c49 -7 45 -8 -45 -9 -104 -1 -132 -10 -163 -54 -13 -17 -15
-16 -30 15 -19 35 -40 44 -117 49 -40 2 -34 4 35 9 91 7 230 3 320 -10z
m-5820 -41 c0 -47 -2 -50 -22 -47 -18 2 -24 11 -26 36 -3 27 0 32 17 32 12 0
21 7 21 15 0 8 2 15 5 15 3 0 5 -23 5 -51z m100 1 c0 -42 -3 -50 -19 -50 -10
0 -24 7 -31 15 -16 19 -3 55 21 55 10 0 18 3 18 8 -2 12 1 22 6 22 3 0 5 -22
5 -50z m-170 5 c0 -7 -9 -15 -21 -18 -12 -3 -18 -10 -14 -17 4 -6 14 -9 24 -5
12 5 13 4 4 -6 -10 -10 -15 -9 -28 1 -18 15 -20 41 -4 57 14 14 39 6 39 -12z
m97 -37 c-2 -13 -4 -5 -4 17 -1 22 1 32 4 23 2 -10 2 -28 0 -40z m133 37 c17
-20 8 -50 -14 -50 -27 0 -43 29 -27 49 17 20 25 20 41 1z m66 3 c5 -8 2 -9 -9
-5 -9 3 -19 2 -22 -2 -2 -5 4 -11 15 -14 20 -5 27 -31 11 -41 -12 -8 -41 4
-41 16 0 7 5 6 13 -1 8 -6 17 -8 21 -4 4 4 -3 15 -15 24 -12 9 -19 21 -15 28
9 14 33 14 42 -1z m1242 -8 c5 -13 3 -13 -11 -2 -21 17 -37 7 -37 -22 0 -28
31 -59 37 -38 3 6 10 12 16 12 6 0 3 -8 -6 -17 -32 -33 -72 23 -53 74 7 18 48
13 54 -7z m29 -57 c-2 -16 -4 -3 -4 27 0 30 2 43 4 28 2 -16 2 -40 0 -55z
m5659 40 c-10 -10 -19 5 -10 18 6 11 8 11 12 0 2 -7 1 -15 -2 -18z m-10645
-16 c34 -30 36 -35 32 -84 -5 -48 -7 -53 -29 -53 -20 0 -24 5 -24 30 0 17 -4
30 -10 30 -5 0 -10 -13 -10 -29 0 -27 -8 -31 -51 -22 -4 0 -9 25 -12 54 -4 49
-3 54 27 79 17 15 33 27 36 27 3 1 21 -14 41 -32z m5174 2 c-4 -11 -1 -27 7
-36 11 -14 11 -15 -2 -11 -9 3 -16 20 -18 42 -2 26 0 36 8 31 6 -4 8 -16 5
-26z m-158 -31 c-2 -13 -4 -5 -4 17 -1 22 1 32 4 23 2 -10 2 -28 0 -40z m61
29 c2 -12 -3 -17 -18 -17 -12 0 -18 -4 -15 -11 4 -6 13 -8 21 -5 8 3 14 1 14
-4 0 -6 -9 -10 -20 -10 -21 0 -38 40 -25 60 10 16 39 8 43 -13z m59 -7 c1 -22
1 -22 -4 -2 -7 33 -23 27 -24 -10 l-1 -33 -7 30 c-9 36 -4 47 17 43 10 -2 18
-14 19 -28z m103 10 c9 -17 8 -20 -10 -20 -11 0 -20 -4 -20 -10 0 -5 10 -10
23 -10 17 0 19 -2 7 -10 -19 -12 -40 6 -40 35 0 39 23 47 40 15z m46 2 c-19
-4 -18 -5 3 -21 19 -14 20 -19 9 -29 -10 -7 -18 -8 -28 0 -12 8 -12 9 2 4 10
-3 20 -1 23 4 3 5 -4 11 -15 15 -19 6 -26 25 -14 38 3 3 13 3 22 -1 15 -6 14
-7 -2 -10z m1199 -9 c4 -12 -1 -23 -13 -33 -10 -9 -21 -22 -25 -30 -3 -9 -6
-5 -6 10 -1 14 -4 35 -7 48 -5 18 -2 22 19 22 14 0 28 -7 32 -17z m164 -30
c-1 -30 -4 -37 -6 -20 -2 15 -11 27 -19 27 -17 0 -18 -31 -1 -50 10 -12 9 -12
-5 -1 -24 18 -23 52 2 58 11 3 20 12 20 19 0 8 2 14 5 14 3 0 4 -21 4 -47z
m-7975 21 c3 -9 5 -145 4 -302 l-3 -287 -5 295 -5 295 -67 3 -68 3 -2 -158 -2
-158 -3 150 c-2 82 -1 155 1 162 8 20 142 18 150 -3z m1534 0 c40 -28 23 -84
-25 -84 -20 0 -23 5 -23 43 0 60 9 68 48 41z m6595 -33 c1 -22 -1 -37 -4 -33
-10 11 -19 69 -12 76 11 10 15 -1 16 -43z m-6433 22 c0 -9 3 -13 7 -10 3 4 12
2 20 -4 15 -13 18 -73 3 -64 -5 3 -10 17 -10 31 0 13 -4 24 -10 24 -5 0 -10
-14 -10 -32 0 -43 -6 -32 -13 25 -4 28 -3 47 3 47 6 0 10 -7 10 -17z m80 -13
c25 0 36 -38 17 -57 -28 -28 -47 -9 -46 44 1 26 3 40 6 31 2 -10 13 -18 23
-18z m250 -21 c0 -47 -2 -50 -22 -47 -34 5 -38 55 -6 67 13 6 19 10 15 10 -8
1 0 21 9 21 2 0 4 -23 4 -51z m5821 31 c-8 -4 -12 -17 -8 -29 3 -12 1 -21 -4
-21 -14 0 -11 58 4 63 18 6 24 -3 8 -13z m69 -19 c0 -26 -21 -43 -37 -30 -17
14 -17 56 0 62 16 6 37 -12 37 -32z m90 -7 c0 -36 18 -29 23 9 4 31 4 31 5 -6
2 -31 -1 -38 -15 -35 -10 2 -20 16 -24 35 -3 18 -2 30 2 27 5 -3 9 -16 9 -30z
m85 26 c3 -5 0 -7 -8 -4 -8 3 -18 1 -21 -4 -10 -16 5 -44 20 -38 8 3 14 1 14
-4 0 -18 -29 -11 -40 9 -17 34 15 73 35 41z m103 -28 c3 -30 1 -33 -20 -30
-23 3 -34 27 -24 54 11 28 41 11 44 -24z m47 28 c4 -6 3 -10 -2 -9 -22 4 -23
-3 -2 -20 22 -18 22 -20 6 -26 -10 -4 -21 -5 -24 -1 -4 3 2 6 13 6 17 0 17 2
-5 19 -13 10 -21 23 -17 30 9 14 23 14 31 1z m-6637 -12 c7 -7 12 -22 12 -35
0 -18 -6 -23 -25 -23 -29 0 -34 24 -7 39 16 10 16 10 0 11 -10 0 -18 5 -18 10
0 14 23 13 38 -2z m57 2 c3 -5 -2 -10 -12 -11 -14 0 -14 -2 5 -9 12 -5 22 -13
22 -18 0 -15 -22 -31 -36 -25 -20 8 -17 23 4 17 15 -5 15 -4 -2 10 -10 8 -16
22 -13 31 7 17 23 20 32 5z m200 -35 c0 -23 -4 -30 -20 -30 -15 0 -21 8 -23
33 -3 30 -1 33 20 30 18 -2 23 -9 23 -33z m63 -3 c3 -30 1 -33 -20 -30 -26 3
-39 38 -14 38 9 0 16 5 16 11 0 6 -7 9 -15 5 -8 -3 -15 -1 -15 5 0 6 10 9 23
7 17 -2 23 -11 25 -36z m42 28 c0 -5 -5 -10 -11 -10 -7 0 -9 -10 -5 -25 4 -14
2 -25 -4 -25 -5 0 -10 16 -10 35 0 24 5 35 15 35 8 0 15 -4 15 -10z m967 -125
c28 -25 26 -48 -2 -25 -27 23 -18 -24 10 -48 14 -12 25 -29 25 -38 0 -9 -11
-27 -25 -40 -14 -13 -25 -19 -25 -15 0 4 -11 13 -25 19 -14 6 -25 18 -25 27 0
20 10 19 26 -2 12 -16 13 -16 14 9 0 17 -7 31 -20 38 -25 13 -26 57 -2 81 22
23 18 23 49 -6z m7373 0 c0 -16 -27 -32 -37 -21 -7 7 16 36 28 36 5 0 9 -7 9
-15z m-10555 -205 l1 -205 -6 200 -5 200 -67 3 -68 3 -2 -118 -2 -118 -3 109
c-2 61 -1 116 1 123 4 10 24 13 78 11 l73 -3 0 -205z m3279 173 c9 -55 7 -123
-3 -123 -5 0 -12 29 -16 64 -5 50 -10 64 -21 59 -20 -7 -17 14 4 26 26 16 29
14 36 -26z m104 25 c19 -19 14 -50 -13 -91 l-26 -37 31 0 c16 0 30 -4 30 -10
0 -5 -20 -10 -45 -10 -54 0 -56 11 -15 60 17 19 30 42 30 52 0 27 -28 34 -45
12 -14 -18 -14 -18 -15 2 0 11 3 24 7 27 11 11 48 8 61 -5z m107 -4 c10 -11
14 -25 11 -40 -3 -13 -1 -35 6 -49 10 -22 9 -29 -10 -47 -18 -18 -25 -20 -46
-10 -29 13 -42 47 -25 68 9 11 9 18 1 26 -16 16 -15 34 4 52 20 20 38 20 59 0z
m165 -4 c0 -5 -13 -10 -30 -10 -22 0 -30 -5 -30 -18 0 -13 7 -18 22 -18 32 1
56 -44 40 -78 -18 -40 -82 -31 -82 13 0 11 4 10 20 -4 19 -17 22 -17 36 -3 13
12 14 20 5 37 -13 23 -26 27 -36 11 -14 -23 -25 -7 -25 35 l0 45 40 0 c22 0
40 -4 40 -10z m94 -12 c3 -13 6 -37 6 -55 0 -17 6 -34 13 -37 10 -5 10 -7 0
-12 -7 -3 -13 -12 -13 -20 0 -8 -4 -14 -10 -14 -5 0 -10 7 -10 15 0 9 -9 15
-24 15 -37 0 -39 13 -14 74 24 59 42 71 52 34z m110 0 c19 -26 21 -109 4 -126
-36 -36 -78 4 -78 74 0 69 42 98 74 52z m132 14 c37 -24 47 -118 15 -146 -36
-33 -71 3 -71 74 0 64 23 94 56 72z m125 -18 c19 -23 18 -110 -2 -130 -46 -45
-98 45 -69 120 11 30 50 35 71 10z m103 -6 c19 -26 21 -109 4 -126 -35 -35
-78 7 -78 78 0 69 41 95 74 48z m740 -25 c9 -55 7 -123 -3 -123 -9 0 -21 57
-21 104 0 23 -3 26 -14 17 -10 -9 -16 -9 -21 -1 -7 12 21 39 41 40 6 0 14 -17
18 -37z m166 -10 c0 -29 6 -53 17 -65 9 -11 11 -18 5 -18 -7 0 -12 -7 -12 -15
0 -8 -7 -15 -15 -15 -8 0 -14 6 -12 13 1 7 -11 13 -30 15 -40 4 -41 16 -8 82
33 65 55 66 55 3z m115 34 c14 -11 17 -22 12 -45 -4 -17 -2 -34 3 -37 17 -11
11 -54 -9 -65 -27 -14 -47 -13 -65 6 -19 18 -21 60 -3 67 10 4 10 7 0 18 -40
41 15 90 62 56z m106 3 c26 -14 26 -71 -1 -95 -28 -25 -25 -45 5 -45 14 0 25
-4 25 -10 0 -5 -20 -10 -45 -10 -54 0 -57 12 -15 65 17 21 30 44 30 52 0 19
-29 28 -43 14 -13 -13 -27 -14 -27 -2 0 13 29 41 41 41 6 0 19 -5 30 -10z
m1235 -45 c3 -12 4 -29 3 -36 -1 -8 1 -22 5 -31 15 -33 3 -63 -27 -66 -42 -5
-60 15 -54 60 3 21 1 41 -4 44 -14 8 -11 22 10 43 24 24 59 17 67 -14z m108
-6 c3 -17 6 -42 6 -54 0 -13 6 -26 13 -28 9 -4 9 -8 1 -14 -7 -4 -14 -17 -17
-28 -5 -19 -5 -19 -12 3 -5 16 -15 22 -36 22 -15 0 -30 3 -32 8 -8 12 45 122
58 122 7 0 15 -14 19 -31z m111 7 c17 -25 11 -49 -21 -93 -16 -23 -16 -23 16
-23 21 0 30 -4 27 -12 -4 -13 -81 -17 -93 -5 -4 3 8 25 25 49 17 23 31 50 31
59 0 26 -21 35 -35 16 -15 -20 -25 -22 -25 -4 0 39 52 49 75 13z m1290 -88 c4
-48 3 -78 -3 -78 -11 0 -22 48 -22 95 0 28 -3 32 -20 28 -11 -3 -20 -1 -20 5
0 13 43 42 51 34 4 -4 10 -42 14 -84z m149 66 c11 -29 6 -61 -14 -87 -26 -33
-25 -37 10 -37 17 0 30 -4 30 -10 0 -12 -87 -13 -94 -1 -3 5 8 27 24 50 17 22
30 47 30 55 0 24 -22 30 -36 11 -17 -23 -28 -14 -19 14 8 26 60 29 69 5z m106
1 c0 -9 -8 -14 -22 -12 -14 1 -23 -4 -26 -15 -2 -12 5 -17 25 -20 56 -6 57
-89 1 -96 -27 -3 -54 21 -42 39 5 8 9 7 16 -5 12 -21 34 -21 42 0 9 24 -13 46
-41 39 -22 -5 -23 -2 -23 40 0 45 0 45 35 45 24 0 35 -5 35 -15z m104 -1 c30
-30 16 -46 -15 -18 -16 14 -18 14 -29 -5 -9 -19 -8 -21 14 -21 16 0 32 -9 43
-26 15 -23 15 -29 2 -52 -19 -33 -31 -37 -59 -14 -30 25 -40 110 -15 135 21
21 39 22 59 1z m-4894 -50 c0 -8 -4 -14 -9 -14 -11 0 -22 26 -14 34 9 9 23 -3
23 -20z m360 1 c0 -8 -4 -15 -10 -15 -5 0 -10 7 -10 15 0 8 5 15 10 15 6 0 10
-7 10 -15z m1110 -20 c0 -8 -7 -15 -15 -15 -16 0 -20 12 -8 23 11 12 23 8 23
-8z m-5274 -115 l0 -115 -3 113 -4 112 -69 0 -70 0 -2 -57 -2 -58 -3 49 c-6
75 -4 77 79 74 l73 -3 1 -115z m8402 58 c-6 -18 -28 -21 -28 -4 0 9 7 16 16
16 9 0 14 -5 12 -12z m-7211 -69 c33 -2 34 -3 8 -6 -16 -2 -42 -9 -58 -15 -20
-8 -31 -7 -43 3 -14 12 -14 14 1 26 12 8 23 9 36 3 10 -6 35 -11 56 -11z m577
6 c4 -11 21 -15 61 -15 l56 0 -3 -42 -3 -43 -56 -3 c-56 -3 -56 -3 -63 29 -3
17 -6 42 -6 54 0 13 -6 26 -12 28 -8 4 -7 6 3 6 9 1 19 -6 23 -14z m261 -55
c8 -35 25 -31 25 6 0 13 5 24 11 24 6 0 8 -8 5 -17 -3 -10 -8 -30 -12 -45 -9
-40 -20 -35 -38 19 -19 54 -19 56 -7 48 5 -3 12 -19 16 -35z m199 -23 c1 -20
-2 -37 -6 -37 -5 0 -8 8 -8 18 0 9 -3 28 -7 41 -4 17 -2 22 7 19 7 -2 13 -20
14 -41z m-104 17 c11 -13 10 -16 -8 -21 -26 -6 -29 -20 -4 -26 16 -4 16 -5 0
-6 -21 -1 -40 31 -32 53 8 20 28 20 44 0z m67 -24 c1 -33 1 -33 -5 -6 -10 42
-30 44 -35 4 -4 -33 -4 -33 -5 5 -2 34 0 38 21 35 18 -2 22 -10 24 -38z m91
28 c7 -7 12 -22 12 -35 0 -18 -6 -23 -25 -23 -28 0 -35 27 -10 36 8 4 15 10
15 15 0 4 -7 5 -17 2 -11 -4 -14 -3 -9 5 9 15 19 15 34 0z m57 2 c4 -6 3 -10
-2 -9 -22 4 -23 -3 -2 -21 20 -16 21 -21 10 -29 -15 -10 -41 -4 -41 9 0 5 10
6 23 3 22 -6 22 -6 -2 14 -14 11 -21 25 -17 31 9 15 23 15 31 2z m2385 -4 c0
-2 -8 -10 -17 -17 -16 -13 -17 -12 -4 4 13 16 21 21 21 13z m-1132 -53 l-1
-48 -4 42 c-3 34 -7 41 -20 36 -11 -4 -14 -2 -9 5 4 7 14 12 22 12 10 0 14
-12 12 -47z m58 3 c-20 -31 -20 -33 2 -39 10 -3 6 -5 -11 -6 l-29 -1 22 35
c12 19 18 40 14 47 -5 10 -4 10 6 1 11 -10 10 -17 -4 -37z m104 38 c0 -3 -7
-12 -15 -20 -17 -17 -20 -34 -6 -34 5 0 12 8 14 18 3 9 5 1 5 -18 0 -19 -2
-29 -5 -22 -2 6 -13 12 -24 12 -18 0 -18 1 -2 35 14 30 33 47 33 29z m40 -4
c-13 -9 -13 -11 0 -20 9 -6 10 -10 3 -10 -15 0 -26 17 -18 30 3 6 12 10 18 10
7 0 6 -4 -3 -10z m43 -5 c-3 -9 -8 -14 -10 -11 -3 3 -2 9 2 15 9 16 15 13 8
-4z m-402 -11 c9 -11 9 -18 2 -22 -6 -4 -13 -16 -15 -27 l-5 -20 -8 20 c-5 11
-13 23 -19 27 -10 7 9 38 24 38 4 0 13 -7 21 -16z m101 -15 c5 -3 3 -11 -4
-16 -9 -8 -17 -7 -26 3 -7 8 -8 14 -2 14 5 0 10 8 11 18 0 13 2 14 6 2 3 -8
10 -18 15 -21z m2807 17 c-25 -21 -94 -66 -102 -66 -6 0 10 13 35 29 25 16 49
34 53 41 4 6 10 9 13 6 3 -3 3 -8 1 -10z m-1809 1 c0 -2 -12 -14 -27 -28 l-28
-24 24 28 c23 25 31 32 31 24z m150 0 c0 -2 -10 -12 -22 -23 l-23 -19 19 23
c18 21 26 27 26 19z m651 -37 c9 -39 -7 -65 -29 -51 -13 8 -24 68 -15 84 11
19 38 -1 44 -33z m86 3 c-4 -20 -12 -41 -18 -47 -9 -8 -10 -6 -4 9 18 46 17
63 -2 68 -14 4 -13 5 6 6 22 1 23 -2 18 -36z m49 25 c4 -7 3 -8 -4 -4 -7 4
-12 1 -12 -9 0 -10 5 -13 12 -9 7 5 8 3 3 -5 -10 -18 -29 3 -22 23 8 19 13 20
23 4z m-884 -26 c10 -8 24 -12 33 -8 9 3 13 2 10 -4 -10 -16 -28 -11 -60 16
-16 15 -23 23 -15 19 8 -5 23 -15 32 -23z m639 -10 c-6 -2 -11 -12 -11 -23 0
-10 -4 -19 -10 -19 -5 0 -7 7 -4 15 4 8 -1 17 -9 21 -13 5 -14 9 -4 24 11 18
12 18 30 2 11 -9 14 -18 8 -20z m264 -11 c-22 -44 -27 -38 -7 9 9 21 18 35 20
30 2 -5 -4 -22 -13 -39z m710 23 l30 -25 -32 17 c-31 17 -32 17 -68 -14 -41
-37 -45 -38 -86 -16 -29 15 -33 14 -70 -10 -54 -36 -61 -32 -9 5 l42 31 38
-17 c36 -16 39 -16 64 0 15 10 31 26 37 36 13 25 18 24 54 -7z m1664 -19 c-45
-36 -63 -42 -74 -25 -3 5 0 7 8 5 7 -3 31 8 53 24 55 42 66 38 13 -4z m-6059
5 c0 -5 -5 -12 -11 -16 -14 -8 -33 11 -25 25 7 11 36 4 36 -9z m84 -11 c-8
-14 -34 -11 -34 4 0 8 3 17 7 20 9 9 34 -13 27 -24z m1966 20 c0 -5 -4 -7 -10
-4 -5 3 -10 -2 -10 -11 0 -10 -3 -15 -6 -11 -9 9 3 37 16 37 5 0 10 -5 10 -11z
m485 -19 c-21 -16 -43 -30 -49 -30 -6 0 3 9 20 19 18 11 35 24 38 30 4 6 12
11 18 11 6 0 -6 -13 -27 -30z m2574 -12 c-1 -28 -3 -34 -6 -18 -3 14 -10 28
-15 31 -12 8 -2 29 13 29 5 0 8 -19 8 -42z m49 35 c-24 -6 -23 -19 2 -26 12
-3 20 -14 20 -26 0 -26 -26 -39 -43 -21 -9 9 -8 11 8 8 12 -2 21 3 23 15 2 12
-3 17 -17 17 -14 0 -21 6 -21 20 0 14 6 20 23 19 16 -1 18 -2 5 -6z m108 -7
c3 -8 -2 -26 -11 -39 -15 -24 -15 -26 2 -30 14 -4 13 -5 -4 -6 -26 -1 -30 20
-8 39 23 19 19 43 -5 37 -11 -3 -18 -1 -14 4 8 14 34 11 40 -5z m49 4 c3 -6
-1 -7 -9 -4 -9 3 -16 1 -16 -5 0 -17 31 -13 47 7 12 15 12 14 2 -9 -8 -19 -17
-25 -30 -22 -23 6 -32 19 -24 33 8 13 22 13 30 0z m-6868 -32 c-3 -7 -5 -2 -5
12 0 14 2 19 5 13 2 -7 2 -19 0 -25z m3556 17 c-3 -9 -8 -14 -10 -11 -3 3 -2
9 2 15 9 16 15 13 8 -4z m3019 -5 c19 -17 19 -20 5 -20 -9 0 -17 -7 -17 -15 0
-8 -5 -15 -11 -15 -5 0 -8 4 -4 9 3 6 -2 14 -12 19 -14 9 -15 13 -4 26 17 20
17 20 43 -4z m924 8 c4 -7 3 -8 -5 -4 -6 4 -29 -8 -53 -28 l-41 -36 -35 20
c-29 18 -37 19 -51 7 -29 -24 -71 -48 -71 -40 1 5 21 21 46 36 42 27 46 28 69
13 34 -22 47 -20 80 14 30 32 49 37 61 18z m1624 -18 c-55 -42 -69 -45 -105
-26 l-34 19 -36 -32 c-50 -43 -52 -39 -5 10 l39 41 27 -21 c35 -28 52 -26 94
8 19 16 37 27 40 25 2 -3 -6 -14 -20 -24z m-4900 16 c0 -2 -8 -10 -17 -17 -16
-13 -17 -12 -4 4 13 16 21 21 21 13z m1052 -38 c-8 -8 -15 -9 -22 -2 -6 6 -8
19 -4 28 6 16 8 16 22 2 13 -12 14 -18 4 -28z m2937 35 c-1 -17 -28 -77 -28
-66 -1 6 3 23 9 37 8 21 6 25 -13 29 -18 4 -17 5 6 6 15 0 27 -2 26 -6z m59
-40 c-1 -44 -2 -45 -5 -10 -2 20 -9 37 -14 37 -6 0 -7 5 -4 10 14 23 25 7 23
-37z m48 35 c4 -7 3 -8 -4 -4 -7 4 -12 3 -12 -3 0 -5 6 -12 13 -14 7 -3 5 -6
-5 -6 -12 -1 -18 6 -18 19 0 22 15 27 26 8z m25 -11 c-10 -9 -11 -8 -5 6 3 10
9 15 12 12 3 -3 0 -11 -7 -18z m-230 -25 c-6 -2 -11 -10 -11 -18 0 -8 -4 -14
-10 -14 -5 0 -10 6 -10 14 0 8 -6 16 -12 19 -10 3 -10 8 1 21 13 15 15 15 33
-1 11 -10 15 -19 9 -21z m4231 7 c2 -26 9 -33 41 -44 45 -15 73 -39 93 -77 23
-45 16 -46 -11 -2 -23 39 -65 67 -110 76 -14 2 -22 14 -26 38 -4 19 -7 27 -8
18 0 -10 -7 -18 -15 -18 -7 0 -16 -9 -19 -20 -3 -11 -13 -20 -22 -20 -27 0
-76 -30 -69 -42 4 -7 3 -8 -4 -4 -19 12 -52 -54 -52 -104 0 -59 28 -110 76
-137 21 -13 35 -23 29 -23 -22 0 -76 41 -95 72 -26 43 -26 121 -1 168 21 41
74 80 107 80 21 0 24 5 24 35 0 32 2 35 29 35 26 0 30 -4 33 -31z m-5442 1
c-13 -9 -13 -11 0 -20 9 -6 10 -10 3 -10 -6 0 -15 5 -18 10 -8 13 3 30 18 30
7 0 6 -4 -3 -10z m1423 -25 c-3 -9 -8 -14 -10 -11 -3 3 -2 9 2 15 9 16 15 13
8 -4z m43 3 c4 -7 3 -8 -4 -4 -7 4 -12 3 -12 -3 0 -5 6 -12 13 -14 7 -3 5 -6
-5 -6 -12 -1 -18 6 -18 19 0 22 15 27 26 8z m510 -3 c17 -13 16 -13 -12 -3
-29 10 -35 9 -64 -16 -18 -15 -35 -24 -39 -21 -3 4 1 10 9 15 8 5 24 16 35 24
25 20 46 20 71 1z m2032 -82 c-174 -2 -462 -2 -640 0 -178 1 -35 2 317 2 352
0 497 -1 323 -2z m1372 -10 c-75 -27 -81 -123 -10 -153 17 -7 29 -15 27 -17
-6 -5 -78 28 -99 46 -12 9 -18 10 -18 3 0 -6 -7 -9 -15 -6 -23 9 -18 22 15 39
17 9 30 22 30 31 0 20 48 64 69 63 14 0 14 -1 1 -6z m140 -59 c0 -7 16 -14 38
-17 l37 -4 -42 -1 c-34 -2 -43 1 -43 15 0 9 -10 28 -22 42 l-23 26 28 -24 c15
-14 27 -30 27 -37z m-501 21 c22 -13 42 -29 46 -35 5 -8 -67 35 -94 57 -18 13
17 -2 48 -22z m-10294 -124 c27 -16 30 -23 33 -74 3 -54 1 -58 -23 -67 -76
-29 -116 -5 -123 73 -4 49 -2 57 14 63 11 3 26 9 34 14 21 12 31 11 65 -9z
m10759 -31 c53 -20 116 -76 116 -103 0 -7 -9 2 -20 20 -21 35 -40 48 -120 80
-70 28 -49 30 24 3z m-12209 -1 c99 -1 54 -17 -50 -18 -57 -1 -87 -6 -103 -17
-21 -15 -24 -15 -35 0 -9 12 -36 19 -87 24 l-75 7 75 6 c41 4 104 5 140 3 36
-2 97 -4 135 -5z m1660 1 c10 -16 -5 -50 -21 -50 -8 0 -14 -7 -14 -15 0 -8 -4
-15 -10 -15 -5 0 -10 20 -10 45 0 41 2 45 24 45 14 0 28 -5 31 -10z m155 -81
c-19 -8 -40 8 -40 31 0 20 23 43 33 33 4 -3 8 2 9 13 0 10 4 -1 7 -26 5 -35 3
-46 -9 -51z m7449 70 c-6 -12 -20 -45 -30 -73 -11 -28 -17 -37 -13 -21 7 36
40 115 49 115 3 0 1 -10 -6 -21z m-7274 -44 c3 -46 -10 -33 -20 20 -5 31 -4
37 6 28 6 -6 13 -28 14 -48z m-293 33 c-5 -7 -12 -24 -15 -38 -4 -22 -4 -21
-6 7 -1 26 6 38 28 42 2 1 -1 -5 -7 -11z m56 0 c16 -16 15 -43 -1 -57 -17 -14
-37 4 -37 34 0 35 17 44 38 23z m191 -2 c10 -12 8 -13 -8 -9 -17 4 -21 1 -21
-17 0 -17 4 -21 20 -17 21 5 28 -7 10 -18 -14 -9 -40 13 -40 34 0 9 5 22 12
29 15 15 13 15 27 -2z m-74 -46 c6 3 10 15 10 28 -1 12 3 22 7 22 15 0 8 -58
-8 -64 -24 -9 -34 2 -33 37 l1 32 7 -30 c3 -16 11 -28 16 -25z m180 15 c0 -23
-4 -30 -20 -30 -21 0 -31 25 -21 51 11 28 41 12 41 -21z m41 28 c-18 -5 -18
-6 5 -24 18 -13 21 -21 12 -29 -8 -9 -16 -9 -30 0 -15 10 -15 11 -1 6 10 -3
20 -1 23 4 3 5 -4 11 -15 15 -28 9 -26 35 3 34 19 -1 19 -2 3 -6z m7474 -48
c0 -47 -27 -74 -45 -45 -3 6 1 7 9 4 9 -3 16 -2 16 4 0 5 -7 12 -15 16 -18 7
-20 43 -2 49 21 7 37 -4 37 -28z m90 -15 c0 -43 3 -42 -49 -13 -7 4 29 53 39
53 6 0 10 -18 10 -40z m50 0 c0 -23 -5 -40 -11 -40 -7 0 -9 11 -5 30 3 18 1
30 -5 30 -6 0 -7 5 -4 10 13 22 25 8 25 -30z m1650 -5 c0 -25 -4 -45 -10 -45
-5 0 -10 20 -10 45 0 25 5 45 10 45 6 0 10 -20 10 -45z m111 35 c10 -6 19 -16
19 -22 0 -9 -3 -9 -12 0 -14 14 -54 16 -62 3 -3 -4 5 -6 18 -4 13 3 27 0 30
-6 7 -11 -14 -51 -26 -51 -10 0 -10 27 0 33 4 2 2 2 -5 1 -6 -2 -17 4 -24 13
-11 13 -10 17 6 29 23 17 30 17 56 4z m688 -10 c22 -6 53 -22 68 -36 l28 -25
-39 26 c-21 14 -46 25 -55 25 -9 1 -29 8 -46 16 -16 8 -22 12 -13 10 9 -3 35
-10 57 -16z m-474 -24 l0 -33 -72 -2 c-64 -2 -73 0 -73 16 0 33 15 42 80 46
36 2 65 4 65 5 0 1 0 -13 0 -32z m-365 -11 c0 -19 -4 -35 -10 -35 -11 0 -14
53 -3 63 11 12 13 8 13 -28z m-30 -10 c0 -14 -4 -25 -10 -25 -5 0 -10 11 -10
25 0 14 5 25 10 25 6 0 10 -11 10 -25z m-1690 5 c0 -5 -5 -10 -11 -10 -5 0 -7
5 -4 10 3 6 8 10 11 10 2 0 4 -4 4 -10z m1660 -8 c0 -13 -12 -22 -22 -16 -10
6 -1 24 13 24 5 0 9 -4 9 -8z m693 -180 l-10 -87 0 135 c-1 115 1 128 9 87 7
-31 7 -78 1 -135z m384 106 c-2 -13 -4 -3 -4 22 0 25 2 35 4 23 2 -13 2 -33 0
-45z m-3124 -45 c-3 -54 -9 -102 -13 -106 -7 -8 -5 43 6 151 9 87 14 58 7 -45z
m3044 75 c-3 -8 -6 -5 -6 6 -1 11 2 17 5 13 3 -3 4 -12 1 -19z m3 -32 c0 -19
-50 -66 -69 -65 -13 0 -14 1 -1 6 23 9 60 45 60 60 0 7 2 13 5 13 3 0 5 -6 5
-14z m-194 -38 c14 -16 14 -19 2 -10 -14 11 -17 10 -21 -5 -3 -12 -5 -8 -6 10
-1 33 1 33 25 5z m264 4 c0 -5 -7 -17 -15 -28 -14 -18 -14 -17 -4 9 12 27 19
34 19 19z m-9325 -52 c9 -43 22 -45 29 -5 4 19 11 35 15 35 12 0 -13 -93 -26
-97 -8 -3 -43 79 -43 102 0 18 19 -9 25 -35z m224 -8 c-13 -5 -11 -36 4 -51
10 -11 9 -13 -3 -9 -16 5 -31 63 -23 85 4 11 8 10 18 -4 8 -10 9 -19 4 -21z
m640 -19 c0 -42 -3 -52 -9 -38 -12 28 -12 95 0 95 6 0 10 -25 9 -57z m8298 41
c-3 -3 -12 -4 -19 -1 -8 3 -5 6 6 6 11 1 17 -2 13 -5z m-9059 -16 c18 -18 14
-38 -8 -38 -11 0 -20 -5 -20 -11 0 -6 9 -8 23 -4 18 6 20 5 9 -6 -27 -29 -67
26 -42 56 15 18 22 19 38 3z m81 -42 l-1 -31 -7 29 c-9 41 -31 46 -31 7 0 -17
-4 -31 -10 -31 -5 0 -10 15 -10 34 0 25 5 36 18 38 26 7 42 -11 41 -46z m113
9 c4 -34 -10 -47 -39 -38 -18 6 -16 43 2 43 8 0 15 5 15 11 0 6 -7 9 -15 5 -8
-3 -15 -1 -15 3 0 12 21 19 36 14 7 -2 14 -20 16 -38z m58 24 c0 -4 -7 -6 -15
-3 -8 4 -15 2 -15 -4 0 -5 9 -12 21 -15 12 -3 19 -12 17 -19 -5 -16 -48 -24
-48 -9 0 6 7 8 15 5 8 -4 15 -1 15 5 0 6 -6 11 -14 11 -18 0 -27 25 -14 38 11
11 38 5 38 -9z m138 -26 l-1 -38 -4 33 c-5 39 -28 38 -28 -1 1 -15 -3 -27 -7
-27 -4 0 -8 14 -8 30 0 17 -4 30 -10 30 -5 0 -10 -13 -10 -30 0 -16 -4 -30
-10 -30 -5 0 -10 16 -10 35 0 35 0 35 45 35 l45 0 -2 -37z m70 15 c2 -13 -3
-18 -17 -18 -12 0 -21 -5 -21 -11 0 -6 9 -9 20 -6 22 6 28 -8 7 -16 -26 -10
-52 28 -40 59 7 20 47 14 51 -8z m69 -18 c1 -33 1 -33 -5 -6 -10 43 -32 45
-33 4 0 -27 -2 -30 -9 -13 -17 40 -12 57 18 53 23 -3 27 -8 29 -38z m63 30 c0
-5 -7 -7 -15 -4 -22 9 -18 -5 6 -25 19 -16 20 -18 5 -31 -15 -11 -19 -11 -34
4 -16 17 -16 18 8 11 l25 -6 -24 19 c-13 11 -21 24 -17 31 9 13 46 15 46 1z
m30 -20 c0 -42 27 -40 33 3 3 29 4 28 5 -9 2 -37 0 -41 -20 -40 -18 1 -24 9
-29 39 -3 20 -2 37 3 37 4 0 8 -13 8 -30z m108 -11 c3 -32 1 -36 -20 -35 -30
1 -37 35 -9 43 11 3 18 9 16 14 -3 4 -12 6 -20 2 -8 -3 -15 0 -15 7 0 6 10 10
23 8 17 -2 23 -10 25 -39z m92 37 c0 -2 3 -11 6 -20 4 -12 0 -16 -15 -16 -28
0 -27 -18 2 -23 19 -3 20 -4 4 -11 -10 -5 -23 -3 -32 4 -15 13 -20 51 -8 63 7
8 43 10 43 3z m66 -8 c5 -8 2 -9 -9 -5 -22 8 -22 -2 0 -18 10 -7 14 -19 10
-29 -8 -20 -38 -18 -45 4 -4 13 -3 13 10 2 10 -8 19 -9 22 -3 4 5 -3 12 -14
16 -30 9 -25 45 6 45 7 0 16 -5 20 -12z m2474 -3 c17 -21 8 -50 -18 -53 -17
-3 -21 -8 -17 -23 4 -11 2 -19 -4 -19 -6 0 -11 11 -11 24 0 13 -3 38 -6 55 -6
28 -4 31 19 31 13 0 30 -7 37 -15z m150 -46 c0 -49 -1 -50 -27 -47 -25 3 -28
7 -28 38 0 27 4 35 18 34 11 -1 17 5 17 18 0 10 5 16 10 13 6 -3 10 -29 10
-56z m100 0 c0 -49 -1 -50 -27 -47 -20 2 -29 9 -31 26 -4 25 15 55 29 46 5 -3
9 2 9 10 0 9 5 16 10 16 6 0 10 -23 10 -51z m370 47 c0 -3 -4 -8 -10 -11 -5
-3 -10 -1 -10 4 0 6 5 11 10 11 6 0 10 -2 10 -4z m171 -13 c1 -5 2 -27 3 -51
2 -34 0 -40 -10 -30 -11 12 -18 45 -15 76 1 13 20 17 22 5z m-714 -36 c-2 -6
-14 -14 -28 -17 -15 -4 -19 -9 -12 -13 6 -4 19 -4 30 -1 14 5 15 4 7 -5 -7 -7
-20 -11 -30 -9 -23 4 -32 57 -13 69 16 10 52 -8 46 -24z m231 21 c17 -17 15
-65 -3 -72 -18 -6 -45 19 -45 43 0 16 18 41 30 41 3 0 11 -5 18 -12z m72 -10
c0 -6 -7 -8 -15 -4 -8 3 -15 1 -15 -4 0 -6 6 -10 14 -10 23 0 30 -21 12 -38
-15 -15 -17 -15 -33 2 -17 17 -17 18 7 11 l25 -6 -25 19 c-20 17 -22 23 -11
35 13 16 41 13 41 -5z m-200 -24 c0 -21 -4 -33 -10 -29 -5 3 -10 19 -10 36 0
16 5 29 10 29 6 0 10 -16 10 -36z m272 24 c-5 -7 -12 -24 -14 -38 -3 -20 -5
-18 -9 13 -4 32 -2 37 14 37 14 0 17 -3 9 -12z m70 -5 c17 -15 18 -15 18 1 0
22 41 18 48 -4 4 -13 3 -13 -10 -2 -12 9 -18 10 -23 2 -11 -17 3 -43 20 -36
16 6 21 -9 6 -18 -14 -9 -41 4 -41 20 0 8 -10 14 -25 14 -14 0 -25 -5 -25 -11
0 -6 7 -9 15 -5 17 6 21 -9 5 -19 -16 -10 -40 14 -40 40 0 38 21 46 52 18z
m98 -24 c0 -24 -4 -38 -10 -34 -5 3 -10 22 -10 41 0 19 5 34 10 34 6 0 10 -18
10 -41z m60 37 c0 -2 3 -11 6 -20 4 -12 0 -16 -15 -16 -28 0 -27 -18 2 -23 19
-3 20 -4 4 -11 -10 -5 -23 -3 -32 4 -15 13 -20 51 -8 63 7 8 43 10 43 3z m74
-12 c10 -25 7 -66 -4 -59 -5 3 -10 17 -10 30 0 13 -4 26 -9 29 -12 8 -22 -20
-15 -39 4 -8 1 -15 -5 -15 -6 0 -11 16 -11 35 0 30 3 35 24 35 13 0 27 -7 30
-16z m106 -4 c9 -17 8 -20 -10 -20 -27 0 -26 -18 3 -23 19 -3 20 -4 4 -11 -22
-11 -47 10 -47 39 0 39 32 49 50 15z m60 10 c0 -5 -8 -10 -17 -11 -14 0 -13
-3 5 -11 12 -6 22 -17 22 -25 0 -19 -29 -28 -43 -13 -10 10 -8 12 6 7 22 -8
22 9 0 21 -10 6 -14 16 -10 26 7 17 37 22 37 6z m4756 -57 c13 2 24 0 24 -4 0
-5 -13 -9 -30 -9 -26 0 -30 3 -29 28 2 25 2 25 6 3 4 -18 10 -22 29 -18z
m-2970 -515 c-14 -271 -31 -574 -36 -673 -16 -292 -39 -717 -65 -1235 -14
-267 -36 -692 -49 -945 -14 -253 -32 -615 -41 -805 -16 -334 -22 -417 -30
-408 -3 2 0 76 5 164 5 87 14 258 20 379 15 302 48 953 60 1165 5 96 19 353
30 570 11 217 24 474 30 570 5 96 14 270 20 385 19 393 57 1100 66 1250 4 55
9 95 11 88 3 -7 -7 -234 -21 -505z m-7708 480 c28 -28 1 -75 -37 -63 -11 3
-23 15 -26 26 -12 38 35 65 63 37z m10152 -10 c8 -13 18 -39 21 -58 3 -19 8
-41 10 -49 2 -9 -4 -17 -16 -19 -11 -2 -23 -10 -28 -18 -9 -16 -37 -7 -37 12
0 9 -11 14 -27 14 -21 0 -24 3 -15 12 7 7 12 27 12 45 0 24 8 41 26 58 33 31
35 31 54 3z m310 -354 c-11 -203 -27 -493 -35 -644 -28 -515 -86 -1669 -115
-2300 -11 -245 -22 -461 -24 -480 -6 -54 2 262 14 490 5 113 16 358 25 545 26
568 47 995 120 2375 16 296 24 395 31 387 2 -2 -5 -170 -16 -373z m-2385 356
c4 -6 -15 -10 -49 -10 -30 0 -58 5 -61 10 -4 6 15 10 49 10 30 0 58 -4 61 -10z
m694 -26 c18 -40 -4 -78 -48 -82 -33 -3 -34 -3 -27 29 3 17 6 42 6 55 0 36 52
34 69 -2z m185 12 c-4 -10 2 -16 18 -18 19 -2 24 -10 26 -40 2 -22 -1 -38 -7
-38 -6 0 -11 14 -11 30 0 20 -5 30 -15 30 -10 0 -15 -10 -15 -30 0 -16 -3 -30
-7 -30 -5 0 -6 25 -5 55 2 30 8 55 13 55 4 0 6 -6 3 -14z m92 -19 c19 7 44
-14 44 -38 0 -23 -27 -49 -48 -46 -21 3 -22 6 -21 70 1 28 4 42 6 30 3 -14 9
-20 19 -16z m326 -30 c-4 -51 -5 -54 -30 -53 -23 1 -27 6 -30 35 -4 35 12 55
36 46 7 -3 12 4 12 16 0 11 3 18 8 16 4 -3 5 -30 4 -60z m-9144 33 c5 -13 3
-13 -12 -1 -21 18 -39 3 -34 -30 2 -18 9 -24 26 -23 25 1 30 -11 8 -19 -31
-12 -63 43 -44 77 11 20 49 18 56 -4z m32 -27 c0 -25 -2 -44 -4 -42 -8 10 -13
89 -5 89 5 0 9 -21 9 -47z m184 -13 c2 -23 0 -38 -4 -33 -11 12 -20 69 -13 77
10 10 14 0 17 -44z m-94 10 c0 -6 -9 -10 -21 -10 -12 0 -19 -5 -16 -12 2 -7
13 -12 23 -10 15 2 16 1 5 -7 -22 -14 -41 -2 -41 28 0 15 3 31 6 34 9 8 44
-11 44 -23z m8498 -12 c3 -36 2 -38 -27 -38 -34 0 -48 15 -32 34 6 7 8 16 5
19 -12 11 8 28 29 25 17 -2 23 -11 25 -40z m70 22 c4 -13 3 -13 -10 -2 -10 8
-18 9 -22 3 -4 -6 3 -15 14 -21 11 -6 20 -17 20 -24 0 -22 -32 -29 -49 -10
-15 15 -14 16 7 9 28 -8 29 6 1 23 -17 11 -18 16 -8 28 15 18 40 15 47 -6z
m242 0 c21 -39 -15 -85 -46 -59 -17 14 -18 66 -1 72 24 10 36 7 47 -13z m78
-26 c3 -38 2 -40 -25 -39 -35 0 -46 34 -14 42 12 3 21 10 21 15 0 5 -10 6 -22
2 -21 -6 -21 -5 -9 10 24 29 46 15 49 -30z m62 35 c0 -4 -6 -9 -14 -12 -8 -3
-16 -21 -19 -39 -3 -27 -4 -25 -5 12 -2 40 1 46 18 46 11 0 20 -3 20 -7z
m-9018 -29 c3 -16 1 -30 -4 -30 -4 0 -8 14 -8 30 0 17 2 30 4 30 2 0 6 -13 8
-30z m124 -3 c1 -25 1 -25 -3 -2 -6 34 -31 32 -36 -2 -4 -26 -4 -25 -6 5 -1
29 2 33 22 30 16 -2 22 -10 23 -31z m102 16 c2 -7 -1 -13 -8 -13 -6 0 -8 5 -5
10 3 6 0 10 -8 10 -8 0 -13 -9 -12 -22 2 -17 7 -22 21 -20 15 3 16 1 7 -9 -10
-10 -15 -10 -28 1 -16 13 -20 42 -8 54 10 10 36 3 41 -11z m38 10 c-18 -5 -18
-6 5 -24 19 -14 22 -20 12 -30 -11 -11 -15 -10 -25 0 -7 7 -8 12 -3 11 25 -5
28 1 7 16 -24 17 -21 35 6 33 14 -1 13 -2 -2 -6z m7507 0 c-18 -2 -48 -2 -65
0 -18 2 -4 4 32 4 36 0 50 -2 33 -4z m-8017 -49 c24 -36 8 -46 -67 -42 -49 2
-64 7 -67 19 -5 28 26 49 73 49 37 0 48 -5 61 -26z m8012 -1 c-15 -2 -42 -2
-60 0 -18 2 -6 4 27 4 33 0 48 -2 33 -4z m2750 -97 c3 -3 -15 -6 -39 -6 -25 0
-54 -7 -67 -15 -20 -14 -26 -14 -67 0 -25 8 -52 15 -60 15 -8 0 -15 4 -15 9 0
9 238 6 248 -3z m-9228 -76 c0 -5 -5 -10 -11 -10 -5 0 -7 5 -4 10 3 6 8 10 11
10 2 0 4 -4 4 -10z m57 4 c-3 -3 -12 -4 -19 -1 -8 3 -5 6 6 6 11 1 17 -2 13
-5z m61 -6 c7 -7 12 -21 11 -32 -1 -18 -2 -18 -8 3 -4 14 -13 27 -20 29 -10 3
-12 -4 -9 -31 2 -20 0 -33 -4 -31 -4 3 -8 18 -8 33 0 40 15 52 38 29z m42 -23
c0 -5 -5 -3 -10 5 -5 8 -10 20 -10 25 0 6 5 3 10 -5 5 -8 10 -19 10 -25z
m3491 23 c8 -7 21 -21 28 -30 14 -19 32 -195 24 -228 -5 -19 -5 -19 -44 0
l-38 20 6 93 6 93 -32 27 c-18 15 -41 27 -50 27 -28 0 -71 -39 -71 -64 0 -38
12 -86 21 -86 5 0 6 13 3 30 -8 36 9 60 41 60 54 0 72 -25 35 -48 -25 -16 -17
-32 16 -32 27 0 30 -16 10 -43 -14 -18 -14 -17 -21 2 -8 26 -20 27 -42 1 -17
-20 -17 -20 -30 3 l-12 22 -1 -22 c0 -12 5 -25 10 -28 21 -13 9 -35 -32 -59
-42 -25 -43 -25 -50 -6 -4 11 -10 66 -14 123 -6 95 -5 104 16 130 21 26 25 27
114 27 59 0 98 -4 107 -12z m-3441 -2 c0 -3 -4 -8 -10 -11 -5 -3 -10 -1 -10 4
0 6 5 11 10 11 6 0 10 -2 10 -4z m2727 -16 c4 -12 3 -13 -5 -1 -6 8 -17 11
-27 8 -10 -4 -14 -3 -10 4 9 14 37 7 42 -11z m-2870 -16 c3 -8 1 -20 -5 -26
-8 -8 -9 -5 -6 10 4 14 0 22 -13 25 -17 4 -17 5 0 6 10 0 20 -6 24 -15z m3763
6 c0 12 2 12 8 2 5 -7 7 -23 6 -35 -1 -12 -3 -29 -3 -37 -1 -13 -2 -13 -11 0
-9 13 -11 13 -20 0 -8 -12 -10 -11 -10 8 0 13 6 22 15 22 8 0 15 4 15 10 0 5
-7 7 -15 4 -17 -7 -18 -3 -9 21 5 13 8 14 15 3 7 -10 9 -10 9 2z m60 -19 c0
-16 3 -36 6 -45 3 -9 1 -16 -5 -16 -6 0 -11 16 -11 35 0 19 -5 35 -11 35 -5 0
-7 5 -4 10 12 20 25 10 25 -19z m70 8 c16 -29 4 -69 -19 -69 -20 0 -31 19 -31
54 0 41 32 50 50 15z m60 -3 c0 -14 -4 -28 -10 -31 -15 -10 -12 -23 8 -28 10
-3 6 -5 -10 -6 -31 -1 -36 10 -13 29 8 7 15 21 15 32 0 15 -5 18 -21 13 -15
-5 -19 -4 -15 4 4 6 16 11 27 11 14 0 19 -7 19 -24z m64 -17 c6 -39 -2 -68
-11 -41 -3 6 -11 12 -19 12 -17 0 -18 11 -2 45 16 35 24 31 32 -16z m54 34
c-23 -6 -23 -11 4 -32 13 -11 19 -24 15 -34 -7 -19 -42 -23 -53 -6 -4 8 0 9
15 4 17 -5 21 -2 21 15 0 15 -5 20 -14 17 -15 -6 -30 19 -20 34 3 5 15 8 27 8
17 -1 18 -2 5 -6z m-3956 -28 c-8 -16 -9 -16 -15 -1 -4 10 -3 15 3 11 6 -3 10
-1 10 6 0 7 3 10 6 6 3 -3 2 -13 -4 -22z m25 -7 c-3 -7 -5 -2 -5 12 0 14 2 19
5 13 2 -7 2 -19 0 -25z m-1743 -119 c14 -11 26 -27 26 -36 0 -11 -7 -7 -21 11
-11 14 -27 26 -35 26 -8 0 -14 5 -14 10 0 16 15 12 44 -11z m-95 -65 l6 -67
55 -1 55 -1 -3 33 c-1 17 3 32 9 32 6 0 9 -16 7 -37 l-3 -38 -59 -3 c-32 -2
-62 1 -66 5 -10 11 -24 160 -14 150 4 -4 10 -37 13 -73z m7011 61 c12 -15 4
-21 -25 -16 -5 1 3 -10 18 -24 27 -26 27 -28 11 -46 -13 -15 -20 -16 -31 -7
-11 9 -11 13 -1 19 9 6 8 12 -5 27 -20 22 -21 34 -5 50 16 16 23 15 38 -3z
m-8750 1 c0 -2 -11 -6 -25 -8 -13 -3 -22 -1 -19 3 5 9 44 13 44 5z m6940 -6
c0 -5 -2 -10 -4 -10 -3 0 -8 5 -11 10 -3 6 -1 10 4 10 6 0 11 -4 11 -10z
m1874 -20 c-1 -14 -5 -34 -9 -44 -6 -13 -5 -17 3 -12 6 3 13 2 17 -4 4 -6 -6
-10 -25 -10 l-32 0 22 35 c23 37 19 65 -6 44 -14 -11 -20 1 -7 15 15 15 38 0
37 -24z m102 23 c-4 -5 -12 -9 -17 -9 -5 -1 -11 -2 -14 -3 -2 0 8 -13 22 -27
23 -23 24 -27 10 -41 -16 -17 -47 -11 -47 8 0 8 4 9 13 0 15 -12 27 -5 27 17
0 9 -7 13 -20 9 -17 -4 -20 0 -20 24 0 25 4 29 27 29 14 0 23 -3 19 -7z m66
-35 c3 -24 1 -47 -3 -52 -6 -6 -9 -5 -9 2 0 7 -6 12 -14 12 -23 0 -26 13 -9
48 21 43 30 40 35 -10z m69 15 c14 -36 4 -73 -20 -73 -21 0 -31 19 -31 59 0
49 34 58 51 14z m88 13 c7 -8 11 -30 9 -48 -4 -46 -38 -46 -52 -1 -13 48 17
81 43 49z m72 -10 c13 -29 4 -76 -14 -76 -20 0 -37 22 -37 46 0 55 32 73 51
30z m67 -9 c16 -33 7 -67 -18 -67 -20 0 -30 19 -30 59 0 49 26 53 48 8z
m-9208 8 c66 -23 139 -83 181 -148 22 -33 39 -65 39 -71 0 -6 -12 9 -26 34
-47 83 -111 138 -203 176 -63 26 -57 32 9 9z m1975 -38 c1 -48 1 -48 -17 -25
l-18 23 0 -23 c0 -13 -4 -20 -10 -17 -5 3 -10 26 -10 51 0 44 1 45 28 42 25
-3 27 -6 27 -51z m-218 -14 c-9 -9 -20 -14 -24 -10 -3 4 2 14 13 21 18 14 18
15 2 21 -10 4 -18 12 -18 18 0 6 10 1 22 -11 21 -21 21 -23 5 -39z m486 16
c-3 -11 1 -27 8 -36 12 -14 12 -16 -1 -11 -8 2 -16 17 -18 31 -5 38 -30 34
-35 -5 -4 -32 -4 -32 -5 5 -2 31 1 37 18 37 11 0 20 6 20 13 0 9 3 8 9 -2 5
-7 6 -22 4 -32z m-534 -44 c1 -16 -1 -17 -9 -5 -5 8 -9 31 -9 50 l1 35 8 -30
c4 -16 8 -39 9 -50z m5176 65 c-3 -5 -15 -10 -26 -10 -10 0 -19 5 -19 10 0 6
12 10 26 10 14 0 23 -4 19 -10z m-4847 -23 c2 -12 -3 -17 -18 -17 -12 0 -18
-4 -15 -11 4 -6 14 -8 22 -5 8 3 11 1 8 -4 -3 -6 -13 -10 -20 -10 -16 0 -31
43 -20 60 10 16 39 8 43 -13z m70 -10 c2 -19 -2 -29 -15 -34 -10 -4 -21 -11
-25 -17 -4 -6 -8 3 -8 21 0 17 -3 39 -6 48 -6 13 -1 16 22 13 23 -2 30 -9 32
-31z m57 -2 c0 -23 -4 -30 -20 -30 -21 0 -31 25 -21 51 11 28 41 12 41 -21z
m143 12 c2 -10 -3 -17 -13 -17 -9 0 -13 -5 -10 -10 4 -6 11 -8 16 -5 5 4 9 1
9 -4 0 -18 -29 -12 -40 8 -5 11 -7 27 -4 36 8 20 38 15 42 -8z m62 13 c0 -5
-7 -7 -15 -4 -21 8 -19 -6 3 -22 14 -10 15 -15 5 -25 -11 -11 -15 -11 -25 0
-11 10 -10 11 5 6 9 -4 17 -3 17 3 0 5 -7 12 -15 16 -22 8 -18 36 5 36 11 0
20 -4 20 -10z m5580 2 c0 -5 -7 -9 -15 -9 -8 0 -12 4 -9 9 3 4 9 8 15 8 5 0 9
-4 9 -8z m66 -5 c4 -3 -5 -4 -20 -1 -20 3 -26 0 -26 -12 0 -10 -3 -15 -6 -11
-4 3 -4 13 -1 22 6 14 39 16 53 2z m38 5 c3 -5 -1 -9 -9 -9 -8 0 -15 4 -15 9
0 4 4 8 9 8 6 0 12 -4 15 -8z m66 -15 c0 -7 -4 -6 -10 3 -8 13 -10 12 -10 -4
0 -11 -3 -17 -6 -13 -4 3 -4 13 0 22 6 18 26 11 26 -8z m-656 5 c2 -4 -4 -8
-14 -8 -10 0 -16 4 -14 8 3 4 9 8 14 8 5 0 11 -4 14 -8z m743 -14 c-3 -8 -6
-5 -6 6 -1 11 2 17 5 13 3 -3 4 -12 1 -19z m-8320 -95 c-2 -21 -4 -4 -4 37 0
41 2 58 4 38 2 -21 2 -55 0 -75z m6977 65 c-3 -4 -11 -5 -19 -2 -12 5 -14 -1
-10 -27 4 -27 3 -30 -4 -14 -5 11 -10 35 -10 53 l-1 33 24 -18 c13 -10 22 -21
20 -25z m1389 30 c4 -10 8 -9 17 2 10 13 11 13 7 0 -2 -8 -15 -16 -30 -17 -19
-1 -24 2 -20 13 6 17 20 18 26 2z m-1346 -20 c-3 -8 -6 -5 -6 6 -1 11 2 17 5
13 3 -3 4 -12 1 -19z m463 18 c0 -2 -7 -7 -16 -10 -8 -3 -12 -2 -9 4 6 10 25
14 25 6z m531 -14 c-7 -2 -18 1 -23 6 -8 8 -4 9 13 5 13 -4 18 -8 10 -11z
m889 -2 c0 -5 -4 -10 -10 -10 -5 0 -10 5 -10 10 0 6 5 10 10 10 6 0 10 -4 10
-10z m225 0 c3 -5 1 -10 -4 -10 -6 0 -11 5 -11 10 0 6 2 10 4 10 3 0 8 -4 11
-10z m-2108 -57 c-3 -10 -5 -4 -5 12 0 17 2 24 5 18 2 -7 2 -21 0 -30z m2864
-5 c7 -25 14 -37 17 -28 16 47 23 62 28 58 7 -7 -26 -88 -36 -88 -6 0 -30 75
-30 94 0 19 11 0 21 -36z m410 2 c16 0 19 -7 17 -37 l-1 -38 -4 33 c-5 40 -25
38 -34 -4 -5 -21 -7 -13 -7 26 0 30 2 47 5 38 2 -10 13 -18 24 -18z m-197 5
c3 -8 0 -15 -6 -15 -7 0 -8 -12 -4 -32 4 -20 3 -29 -3 -23 -8 9 -15 55 -12 78
2 13 19 8 25 -8z m-116 -7 c18 -18 14 -26 -15 -30 l-28 -4 24 -10 c19 -9 21
-12 8 -17 -22 -8 -40 18 -33 48 7 27 25 32 44 13z m68 -28 c1 -26 1 -28 -3 -7
-2 15 -10 27 -18 27 -8 0 -16 -12 -18 -27 -3 -23 -4 -22 -6 8 -1 32 2 36 22
35 18 -1 22 -7 23 -36z m112 -8 c-1 -21 -6 -27 -24 -28 -31 -2 -38 22 -11 41
20 14 20 15 2 15 -16 0 -17 2 -5 10 20 13 39 -6 38 -38z m37 28 c-19 -7 -18
-7 3 -19 12 -6 22 -16 22 -22 0 -16 -30 -23 -43 -9 -10 10 -8 12 6 7 21 -8 23
8 2 17 -8 3 -15 12 -15 20 0 16 20 26 34 18 5 -3 1 -8 -9 -12z m180 -25 c0
-23 -4 -30 -20 -30 -21 0 -31 25 -21 51 11 28 41 12 41 -21z m35 9 c0 -8 5
-14 10 -14 6 0 10 9 10 20 0 11 4 20 10 20 15 0 -23 -93 -40 -98 -13 -5 -13
-3 -1 11 10 13 11 24 2 48 -13 39 -14 42 -1 34 6 -3 10 -13 10 -21z m-6938
-208 c2 -19 0 -32 -4 -30 -8 5 -12 64 -4 64 2 0 6 -15 8 -34z m55 -13 c-3 -10
-5 -2 -5 17 0 19 2 27 5 18 2 -10 2 -26 0 -35z m67 32 c3 -8 1 -15 -4 -15 -6
0 -10 7 -10 15 0 8 2 15 4 15 2 0 6 -7 10 -15z m53 2 c0 -7 -7 -19 -16 -27
-13 -13 -14 -12 -8 4 4 10 7 22 7 27 0 5 4 9 8 9 5 0 9 -6 9 -13z m8680 -94
c-2 -21 -4 -4 -4 37 0 41 2 58 4 38 2 -21 2 -55 0 -75z m-8890 65 c-3 -8 -6
-5 -6 6 -1 11 2 17 5 13 3 -3 4 -12 1 -19z m130 0 c-3 -8 -6 -5 -6 6 -1 11 2
17 5 13 3 -3 4 -12 1 -19z m6373 -55 c0 -2 -9 -1 -20 2 -14 4 -20 2 -20 -8 0
-8 9 -22 20 -32 27 -24 25 -39 -6 -69 l-27 -24 -23 25 c-29 31 -30 37 -5 30
27 -7 34 18 10 39 -25 23 -24 42 4 69 l22 21 23 -24 c12 -14 22 -27 22 -29z
m-9812 40 c-10 -2 -28 -2 -40 0 -13 2 -5 4 17 4 22 1 32 -1 23 -4z m9904 -18
c-1 -5 -12 -10 -25 -10 -13 0 -23 -8 -25 -19 -3 -11 0 -16 7 -12 6 4 20 2 31
-4 23 -12 27 -59 8 -78 -17 -17 -53 -15 -68 3 -17 20 -5 32 15 15 21 -18 47
-5 43 22 -2 18 -9 23 -31 21 -24 -2 -27 1 -27 31 0 18 3 36 7 40 11 10 68 3
65 -9z m153 -5 c-3 -5 -17 -10 -31 -10 -15 0 -24 -6 -24 -15 0 -9 9 -15 25
-15 18 0 26 -7 31 -27 4 -14 2 -33 -3 -42 -14 -22 -57 -26 -73 -6 -18 22 -4
32 18 12 21 -19 42 -6 42 26 0 16 -6 18 -30 15 -29 -4 -30 -3 -30 34 0 38 0
38 41 38 24 0 38 -4 34 -10z m107 -43 c3 -59 -14 -110 -28 -84 -5 8 -21 18
-36 23 l-28 9 30 53 c40 68 57 68 62 -1z m112 21 c21 -59 -22 -137 -61 -112
-22 13 -30 93 -13 124 17 31 62 23 74 -12z m140 16 c34 -33 9 -134 -33 -134
-29 0 -41 22 -41 71 0 48 18 79 45 79 7 0 21 -7 29 -16z m108 -1 c35 -32 15
-133 -27 -133 -33 0 -45 20 -45 71 0 69 33 98 72 62z m109 -4 c36 -36 12 -139
-32 -139 -38 0 -54 107 -22 142 21 23 28 23 54 -3z m-8884 -1 c4 -7 17 -18 27
-24 14 -7 20 -23 22 -58 3 -41 0 -48 -20 -56 -13 -5 -27 -14 -31 -20 -5 -8
-11 -7 -22 2 -8 7 -24 17 -36 23 -16 8 -21 21 -23 58 -3 43 -1 49 21 57 14 5
25 14 25 20 0 14 27 13 37 -2z m3428 2 c3 -6 -1 -7 -9 -4 -18 7 -21 14 -7 14
6 0 13 -4 16 -10z m1788 -1 c34 -15 47 -50 57 -144 10 -102 4 -138 -28 -167
-17 -14 -21 -16 -12 -4 13 16 12 20 -5 32 -29 21 -35 17 -35 -21 0 -34 -1 -35
-37 -35 -60 1 -117 17 -135 39 -18 23 -28 81 -31 190 -1 69 0 75 26 97 24 21
39 24 102 24 41 0 85 -5 98 -11z m188 -24 c5 14 8 5 8 -30 1 -36 -2 -46 -9
-35 -9 13 -11 13 -20 0 -7 -12 -10 -8 -10 17 0 17 3 40 7 50 7 17 8 17 12 -2
l4 -20 8 20z m59 -14 c0 -16 3 -36 6 -45 3 -9 1 -16 -5 -16 -6 0 -11 16 -11
35 0 19 -5 35 -11 35 -5 0 -7 5 -4 10 12 20 25 10 25 -19z m68 -15 c4 -42 -13
-63 -35 -44 -14 11 -18 70 -6 82 18 18 38 -1 41 -38z m59 28 c3 -9 1 -25 -5
-35 -16 -24 -15 -27 6 -32 10 -3 6 -5 -10 -6 -31 -1 -36 10 -13 29 8 7 15 21
15 32 0 14 -5 18 -15 14 -8 -3 -15 -1 -15 4 0 17 30 11 37 -6z m67 -31 c6 -41
6 -41 -19 -30 -27 13 -32 31 -13 43 8 5 9 2 5 -9 -4 -10 -2 -17 4 -17 7 0 9
10 5 24 -3 12 -3 26 1 30 9 8 9 7 17 -41z m69 10 c2 -21 0 -42 -4 -47 -6 -6
-9 -5 -9 2 0 7 -3 11 -7 11 -29 -5 -32 2 -16 36 21 45 30 44 36 -2z m-5485 7
c5 -13 3 -13 -11 -2 -22 18 -37 7 -37 -28 0 -35 15 -46 37 -28 14 11 15 11 11
-2 -8 -25 -36 -23 -54 5 -14 21 -15 31 -5 51 12 28 51 31 59 4z m163 -32 l-4
-53 -8 40 c-7 39 -3 65 10 65 3 0 4 -24 2 -52z m-1227 -6 c-38 -11 -48 -11
-65 2 l-20 14 21 15 c18 13 26 12 65 -2 l44 -16 -45 -13z m1486 -2 c0 -31 -23
-46 -40 -25 -8 10 -6 17 12 29 19 14 20 16 5 16 -10 0 -16 4 -12 10 11 18 35
-2 35 -30z m57 23 c2 -6 -4 -10 -13 -9 -25 2 -30 -24 -5 -31 11 -3 18 -9 15
-14 -8 -14 -44 10 -44 29 0 34 38 53 47 25z m91 -18 c4 -31 -15 -50 -35 -33
-16 13 -17 40 -1 56 18 18 33 9 36 -23z m64 -5 c3 -16 1 -30 -4 -30 -4 0 -8 9
-8 19 0 11 -3 27 -7 37 -4 11 -3 15 4 11 6 -4 13 -20 15 -37z m-564 4 c2 -11
-4 -27 -14 -34 -14 -12 -18 -12 -29 3 -7 10 -11 27 -8 38 7 27 47 22 51 -7z
m58 -14 l2 -35 -5 33 c-2 18 -10 32 -18 32 -8 0 -15 -14 -18 -32 -4 -32 -4
-32 -5 5 -2 34 0 38 21 35 18 -2 22 -10 23 -38z m66 10 c3 -16 1 -30 -4 -30
-4 0 -8 14 -8 30 0 17 2 30 4 30 2 0 6 -13 8 -30z m68 -10 c0 -42 -21 -63 -42
-42 -8 8 -5 9 11 5 12 -3 21 -1 21 6 0 6 -9 11 -20 11 -16 0 -20 7 -20 30 0
25 4 30 25 30 23 0 25 -4 25 -40z m35 -10 c8 0 16 12 18 28 4 26 4 25 6 -5 0
-17 -4 -35 -9 -38 -17 -11 -40 15 -39 44 l2 26 4 -27 c2 -16 10 -28 18 -28z
m57 20 c-2 -16 -6 -30 -8 -30 -2 0 -4 14 -4 30 0 17 4 30 8 30 5 0 7 -13 4
-30z m158 0 c0 -16 -2 -30 -4 -30 -2 0 -6 14 -8 30 -3 17 -1 30 4 30 4 0 8
-13 8 -30z m90 0 c0 -16 -2 -30 -4 -30 -2 0 -6 14 -8 30 -3 17 -1 30 4 30 4 0
8 -13 8 -30z m7360 -25 c0 -8 -4 -15 -10 -15 -5 0 -10 7 -10 15 0 8 5 15 10
15 6 0 10 -7 10 -15z m364 -16 c-3 -5 -10 -7 -15 -3 -5 3 -7 10 -3 15 3 5 10
7 15 3 5 -3 7 -10 3 -15z m1873 -96 c-2 -21 -4 -4 -4 37 0 41 2 58 4 38 2 -21
2 -55 0 -75z m-3487 55 c0 -5 -9 -6 -20 -3 -27 9 -25 -8 2 -20 28 -12 35 -40
15 -60 -13 -12 -17 -12 -33 6 -18 20 -18 20 9 15 34 -6 35 7 2 22 -27 12 -33
40 -13 60 12 12 38 -1 38 -20z m141 6 c10 -13 10 -20 -4 -44 -16 -27 -16 -29
0 -33 11 -3 8 -5 -9 -6 -31 -1 -36 10 -13 29 8 7 15 21 15 32 0 14 -5 18 -15
14 -15 -5 -20 5 -8 17 10 11 19 8 34 -9z m67 4 c16 -16 15 -73 -2 -87 -20 -17
-46 12 -46 53 0 46 21 61 48 34z m72 -8 c16 -31 9 -74 -14 -78 -23 -5 -36 14
-36 54 0 48 30 62 50 24z m88 8 c7 -7 12 -29 12 -51 0 -34 -2 -38 -22 -35 -18
2 -24 11 -26 36 -5 56 10 76 36 50z m70 0 c18 -18 15 -77 -4 -85 -20 -7 -44
21 -44 52 0 20 17 45 30 45 3 0 11 -5 18 -12z m72 -7 c25 -48 0 -100 -35 -71
-15 12 -21 71 -8 83 12 13 32 7 43 -12z m-458 -36 c2 -25 0 -45 -4 -45 -5 0
-8 16 -8 35 0 19 -4 35 -10 35 -5 0 -10 5 -10 10 0 6 6 10 14 10 9 0 15 -15
18 -45z m-835 9 c-3 -3 -12 -4 -19 -1 -8 3 -5 6 6 6 11 1 17 -2 13 -5z m48
-24 c3 -6 -1 -7 -9 -4 -18 7 -21 14 -7 14 6 0 13 -4 16 -10z m45 6 c0 -2 -7
-6 -15 -10 -8 -3 -15 -1 -15 4 0 6 7 10 15 10 8 0 15 -2 15 -4z m-473 -22 c-3
-3 -12 -4 -19 -1 -8 3 -5 6 6 6 11 1 17 -2 13 -5z m1483 -4 c0 -5 -4 -10 -10
-10 -5 0 -10 5 -10 10 0 6 5 10 10 10 6 0 10 -4 10 -10z m-1630 -14 c0 -2 -7
-7 -16 -10 -8 -3 -12 -2 -9 4 6 10 25 14 25 6z m-173 -38 c-3 -8 -6 -5 -6 6
-1 11 2 17 5 13 3 -3 4 -12 1 -19z m358 -8 c3 -5 1 -10 -4 -10 -6 0 -11 5 -11
10 0 6 2 10 4 10 3 0 8 -4 11 -10z m2335 -24 c0 -38 -15 -55 -33 -37 -9 9 -8
11 6 6 9 -4 17 -3 17 3 0 5 -7 12 -15 16 -23 8 -19 46 5 46 16 0 20 -7 20 -34z
m80 15 c0 -10 -7 -25 -16 -32 -14 -12 -14 -14 3 -20 16 -7 15 -8 -4 -8 -26 -1
-30 11 -8 29 20 17 20 44 -1 36 -8 -3 -12 -2 -9 4 11 17 35 11 35 -9z m-237
-4 c3 -7 -1 -21 -9 -32 -12 -17 -14 -17 -14 -2 0 9 -5 17 -11 17 -8 0 -8 5 1
15 15 18 26 19 33 2z m97 -17 c0 -5 -6 -10 -14 -10 -8 0 -18 5 -21 10 -3 6 3
10 14 10 12 0 21 -4 21 -10z m2327 -122 c-2 -24 -4 -7 -4 37 0 44 2 63 4 43 2
-21 2 -57 0 -80z m-8826 13 c-12 -8 -11 -13 10 -30 24 -19 24 -20 5 -38 -16
-15 -18 -15 -7 -1 14 19 7 38 -15 38 -8 0 -14 6 -14 13 0 17 10 27 24 27 6 0
4 -4 -3 -9z m46 -48 c-3 -10 -5 -2 -5 17 0 19 2 27 5 18 2 -10 2 -26 0 -35z
m68 38 c3 -5 1 -12 -5 -16 -5 -3 -10 1 -10 9 0 18 6 21 15 7z m55 -7 c0 -8 -5
-12 -10 -9 -6 4 -8 11 -5 16 9 14 15 11 15 -7z m3491 -164 c10 -6 25 -23 33
-38 19 -38 29 -184 16 -233 -11 -38 -12 -40 -29 -25 -26 24 -41 20 -47 -14 -6
-28 -10 -30 -48 -30 -39 0 -43 3 -55 36 l-13 36 -24 -23 c-16 -15 -28 -19 -34
-13 -26 26 -41 235 -19 275 6 11 20 24 32 29 31 12 164 12 188 0z m-6851 -10
c-8 -5 -91 -9 -185 -9 -104 0 -162 4 -150 9 29 12 354 12 335 0z m7031 -15 c1
11 5 5 8 -15 8 -43 3 -69 -10 -48 -7 11 -11 10 -19 -2 -9 -13 -10 -13 -11 0
-4 52 10 95 22 64 7 -19 8 -18 10 1z m61 -30 c2 -25 0 -45 -4 -45 -5 0 -8 16
-8 35 0 19 -5 35 -11 35 -5 0 -7 5 -4 10 13 21 23 8 27 -35z m69 10 c7 -39 1
-55 -21 -55 -19 0 -30 19 -30 54 0 47 42 48 51 1z m59 11 c0 -14 -4 -28 -10
-31 -15 -10 -12 -23 8 -28 10 -3 6 -5 -10 -6 -31 -1 -34 5 -13 33 20 26 19 50
0 42 -8 -3 -15 -1 -15 4 0 6 9 10 20 10 15 0 20 -7 20 -24z m62 -13 c3 -21 4
-39 4 -40 -1 -1 -12 0 -24 4 -25 6 -28 24 -10 53 18 29 25 25 30 -17z m63 12
c1 -11 4 -26 8 -33 5 -6 5 -16 2 -22 -8 -13 -45 -13 -45 0 0 5 7 7 15 4 9 -4
15 0 15 10 0 9 -5 16 -12 16 -9 0 -9 3 0 12 19 19 14 30 -9 23 -15 -5 -19 -4
-14 4 11 18 40 8 40 -14z m1265 -90 c10 -13 9 -15 -10 -15 -22 0 -22 0 4 -21
29 -23 33 -41 11 -59 -12 -10 -18 -10 -30 0 -23 19 -18 29 13 24 l27 -4 -27
21 c-27 20 -36 48 -21 62 10 11 19 8 33 -8z m224 -36 c3 -15 0 -33 -8 -45 -21
-28 -46 -2 -46 46 0 60 40 59 54 -1z m84 39 c14 -14 16 -84 3 -92 -32 -20 -67
58 -41 89 15 18 22 19 38 3z m72 -7 c14 -28 12 -66 -4 -80 -32 -27 -64 57 -34
87 17 17 26 15 38 -7z m70 0 c13 -26 13 -64 -2 -79 -16 -16 -48 13 -48 44 0
52 29 73 50 35z m-366 -24 c7 -19 7 -34 0 -45 -13 -19 -44 -29 -44 -13 0 6 7
8 15 5 9 -4 15 0 15 10 0 9 -7 16 -15 16 -21 0 -37 34 -22 49 18 18 41 9 51
-22z m61 21 c3 -7 6 -29 7 -48 3 -31 0 -35 -22 -35 -23 0 -25 4 -28 48 -3 42
-1 47 18 47 11 0 23 -6 25 -12z m-938 -44 c8 -21 -13 -42 -28 -27 -13 13 -5
43 11 43 6 0 13 -7 17 -16z m142 -21 c-1 -24 -3 -29 -6 -15 -2 12 -9 22 -14
22 -8 0 10 28 19 30 1 0 1 -17 1 -37z m135 22 c3 -8 1 -15 -4 -15 -6 0 -10 7
-10 15 0 8 2 15 4 15 2 0 6 -7 10 -15z m-226 -22 c2 -7 -1 -13 -8 -13 -6 0 -8
5 -5 10 3 6 2 10 -4 10 -5 0 -12 -6 -14 -12 -3 -8 -6 -5 -6 5 -1 21 30 20 37
0z m42 6 c0 -5 -4 -8 -9 -4 -5 3 -12 -5 -14 -17 -4 -20 -4 -19 -6 5 -1 18 4
27 14 27 8 0 15 -5 15 -11z m115 2 c3 -5 0 -13 -6 -17 -8 -4 -9 -3 -5 4 4 7 2
12 -3 12 -14 0 -14 -27 -1 -33 6 -3 5 -4 -2 -3 -19 4 -23 46 -4 46 8 0 17 -4
21 -9z m44 -18 c-2 -24 -2 -25 -6 -5 -2 12 -9 20 -14 17 -5 -4 -9 -1 -9 4 0 6
7 11 15 11 10 0 15 -9 14 -27z m71 16 c0 -5 -4 -8 -9 -4 -5 3 -12 -3 -14 -12
-4 -14 -5 -13 -6 5 -1 13 5 22 14 22 8 0 15 -5 15 -11z m-42 -34 c-3 -3 -9 2
-12 12 -6 14 -5 15 5 6 7 -7 10 -15 7 -18z m772 21 c0 -3 -4 -8 -10 -11 -5 -3
-10 -1 -10 4 0 6 5 11 10 11 6 0 10 -2 10 -4z m-1833 -22 c-3 -3 -12 -4 -19
-1 -8 3 -5 6 6 6 11 1 17 -2 13 -5z m130 -16 c-3 -8 -6 -5 -6 6 -1 11 2 17 5
13 3 -3 4 -12 1 -19z m200 0 c-3 -8 -6 -5 -6 6 -1 11 2 17 5 13 3 -3 4 -12 1
-19z m-97 -2 c0 -2 -7 -6 -15 -10 -8 -3 -15 -1 -15 4 0 6 7 10 15 10 8 0 15
-2 15 -4z m2299 -20 c15 -18 3 -46 -20 -46 -10 0 -19 -6 -19 -14 0 -8 -4 -18
-10 -21 -6 -4 -10 13 -10 44 0 47 2 51 24 51 13 0 29 -6 35 -14z m135 -39 c-6
-41 -10 -47 -30 -47 -20 0 -24 5 -24 30 0 20 6 33 18 37 9 4 21 13 25 20 14
23 17 9 11 -40z m31 43 c3 -5 1 -10 -4 -10 -6 0 -11 5 -11 10 0 6 2 10 4 10 3
0 8 -4 11 -10z m67 -45 c-4 -39 -7 -45 -27 -45 -13 0 -26 7 -29 16 -8 20 11
54 29 54 8 0 15 5 15 10 0 6 3 10 8 10 4 0 6 -20 4 -45z m678 -16 c0 -49 -1
-50 -27 -47 -24 2 -28 8 -28 33 0 23 6 31 25 36 14 4 21 7 17 8 -8 1 0 21 9
21 2 0 4 -23 4 -51z m-850 37 c0 -2 3 -11 6 -20 4 -12 0 -16 -15 -16 -12 0
-21 -5 -21 -11 0 -6 7 -9 15 -5 8 3 15 1 15 -5 0 -6 -10 -9 -22 -7 -39 5 -37
68 2 68 11 0 20 -2 20 -4z m97 -48 c-2 -13 -4 -5 -4 17 -1 22 1 32 4 23 2 -10
2 -28 0 -40z m146 22 c7 -26 -16 -55 -37 -47 -19 8 -22 63 -3 70 19 6 35 -2
40 -23z m471 15 c3 -8 1 -15 -4 -15 -12 0 -13 -37 -1 -44 5 -3 11 1 15 9 3 8
12 15 21 15 8 0 15 5 15 11 0 6 -7 9 -15 5 -8 -3 -15 -1 -15 5 0 6 10 9 23 7
17 -2 23 -11 25 -35 3 -32 3 -32 -41 -31 -43 0 -45 2 -49 33 -2 18 -2 38 0 44
5 16 19 14 26 -4z m-414 -5 c0 -5 -8 -7 -17 -4 -13 4 -12 1 5 -13 18 -15 20
-21 10 -31 -15 -15 -35 -16 -44 -1 -4 8 0 9 15 4 24 -7 29 10 6 19 -22 8 -18
36 5 36 11 0 20 -4 20 -10z m98 -23 c3 -22 -1 -30 -17 -34 -12 -3 -21 -12 -21
-21 0 -10 -3 -12 -9 -6 -4 5 -6 28 -3 52 4 37 7 43 26 40 15 -2 22 -11 24 -31z
m70 5 c6 -44 -37 -65 -52 -26 -9 22 13 56 32 52 9 -2 18 -14 20 -26z m52 18
c0 -5 -4 -10 -10 -10 -5 0 -10 -11 -10 -25 0 -14 -4 -25 -10 -25 -11 0 -14 53
-3 63 10 11 33 8 33 -3z m90 -21 c0 -13 -7 -19 -21 -19 -11 0 -18 -4 -14 -10
3 -5 13 -6 23 -3 13 4 14 3 6 -6 -6 -6 -18 -9 -27 -5 -20 7 -23 60 -4 67 20 7
37 -4 37 -24z m60 11 c0 -5 -8 -7 -17 -4 -16 5 -16 4 1 -10 10 -8 16 -22 13
-31 -7 -17 -33 -20 -43 -4 -4 8 0 9 15 4 24 -7 29 10 6 19 -22 8 -18 36 5 36
11 0 20 -4 20 -10z m238 -2 c28 -28 -3 -83 -33 -58 -18 15 -20 56 -2 63 19 8
22 8 35 -5z m-7170 -49 c3 -12 2 -12 -6 0 -6 8 -15 10 -22 6 -9 -5 -11 -4 -6
4 10 15 28 10 34 -10z m2178 -156 c-11 -11 -19 6 -11 24 8 17 8 17 12 0 3 -10
2 -21 -1 -24z m-515 4 c-10 -9 -11 -8 -5 6 3 10 9 15 12 12 3 -3 0 -11 -7 -18z
m72 0 c18 -7 24 -42 8 -51 -4 -3 -6 6 -3 20 4 21 1 25 -14 22 -12 -2 -19 4
-22 17 -2 12 0 16 5 9 4 -6 16 -13 26 -17z m397 14 c0 -5 3 -18 6 -28 6 -16 5
-16 -9 2 -19 23 -21 35 -7 35 6 0 10 -4 10 -9z m-990 -30 c6 -13 7 -21 2 -17
-6 3 -13 -4 -15 -16 -2 -13 -5 -3 -6 21 -1 48 0 48 19 12z m37 7 c-3 -8 -6 -5
-6 6 -1 11 2 17 5 13 3 -3 4 -12 1 -19z m1051 -9 c-3 -8 -7 -3 -11 10 -4 17
-3 21 5 13 5 -5 8 -16 6 -23z m444 2 c2 -17 1 -28 -4 -25 -8 5 -12 54 -4 54 2
0 6 -13 8 -29z m25 -8 c-3 -10 -5 -4 -5 12 0 17 2 24 5 18 2 -7 2 -21 0 -30z
m33 33 c0 -3 -4 -8 -10 -11 -5 -3 -10 -1 -10 4 0 6 5 11 10 11 6 0 10 -2 10
-4z m-2092 -13 c-20 -5 -25 -33 -5 -33 8 0 9 -3 1 -8 -6 -4 -14 -14 -17 -22
-3 -8 -6 4 -6 28 -1 37 1 42 22 41 16 -1 18 -2 5 -6z m115 -16 c18 -7 24 -42
8 -51 -4 -3 -6 6 -3 19 3 19 0 25 -13 25 -13 0 -16 -6 -13 -25 3 -13 1 -22 -3
-19 -5 3 -9 22 -9 42 0 20 4 32 8 26 4 -6 15 -13 25 -17z m1018 -9 c-3 -21 -6
-26 -9 -15 -3 17 3 47 11 47 2 0 1 -15 -2 -32z m502 14 c2 7 2 0 -1 -17 -2
-16 -8 -34 -12 -39 -5 -5 -6 0 -4 12 3 11 1 31 -6 43 -10 22 -10 22 4 6 11
-14 15 -15 19 -5z m-2155 1 c-14 -3 -17 -13 -15 -43 2 -21 0 -37 -5 -34 -4 3
-8 23 -8 45 0 34 3 39 23 38 16 -1 18 -2 5 -6z m1117 -4 c11 -16 1 -19 -13 -3
-7 8 -8 14 -3 14 5 0 13 -5 16 -11z m37 -19 c-2 -16 -6 -30 -8 -30 -2 0 -4 14
-4 30 0 17 4 30 8 30 5 0 7 -13 4 -30z m905 -2 c-3 -8 -6 -5 -6 6 -1 11 2 17
5 13 3 -3 4 -12 1 -19z m-1988 -15 c-2 -24 -2 -25 -6 -5 -6 31 -21 28 -26 -5
-4 -26 -4 -26 -6 5 -1 26 3 32 19 32 15 0 20 -6 19 -27z m57 9 c1 -7 0 -8 -3
-2 -8 17 -23 11 -23 -9 0 -11 7 -22 15 -24 11 -4 10 -4 -2 -3 -12 1 -19 11
-21 29 -3 23 0 28 14 25 10 -1 19 -9 20 -16z m464 8 c0 -5 -5 -10 -11 -10 -5
0 -7 5 -4 10 3 6 8 10 11 10 2 0 4 -4 4 -10z m943 -5 c-3 -9 -8 -14 -10 -11
-3 3 -2 9 2 15 9 16 15 13 8 -4z m35 -10 c-3 -3 -9 2 -12 12 -6 14 -5 15 5 6
7 -7 10 -15 7 -18z m952 19 c0 -8 -19 -13 -24 -6 -3 5 1 9 9 9 8 0 15 -2 15
-3z m-1965 -14 c3 -5 1 -10 -4 -10 -6 0 -11 5 -11 10 0 6 2 10 4 10 3 0 8 -4
11 -10z m542 -5 c0 -8 -4 -12 -9 -9 -5 3 -6 10 -3 15 9 13 12 11 12 -6z m4153
11 c0 -3 -4 -8 -10 -11 -5 -3 -10 -1 -10 4 0 6 5 11 10 11 6 0 10 -2 10 -4z
m1070 -114 l0 -68 -42 -11 c-55 -15 -62 -8 -9 8 l41 12 0 59 c0 54 -2 58 -22
58 -13 0 -48 -11 -78 -25 -34 -15 -46 -18 -31 -7 32 23 80 40 114 41 27 1 27
1 27 -67z m-9772 1 c-10 -2 -26 -2 -35 0 -10 3 -2 5 17 5 19 0 27 -2 18 -5z
m224 0 c-40 -2 -103 -2 -140 0 -37 2 -4 3 73 3 77 0 107 -2 67 -3z m9382 -9
c3 -9 2 -12 -5 -8 -6 3 -27 -9 -47 -27 -37 -34 -37 -34 3 9 21 23 40 42 41 42
1 0 5 -7 8 -16z m835 -43 c-17 -26 -4 -55 21 -48 11 3 18 1 14 -4 -8 -14 -30
-11 -44 6 -13 16 -6 65 10 65 6 0 5 -8 -1 -19z m258 -43 c-2 -13 -4 -5 -4 17
-1 22 1 32 4 23 2 -10 2 -28 0 -40z m-163 27 c8 -21 -3 -45 -20 -45 -18 0 -28
24 -20 45 3 8 12 15 20 15 7 0 16 -7 20 -15z m83 -21 l2 -29 -8 30 c-8 29 -10
28 -24 -15 -3 -8 -6 -3 -6 13 -1 15 -5 27 -10 27 -5 0 -12 -12 -14 -27 -4 -26
-4 -26 -6 4 -1 31 1 33 32 29 27 -3 32 -7 34 -32z m168 27 c3 -5 1 -12 -5 -16
-5 -3 -10 1 -10 9 0 18 6 21 15 7z m572 -8 c3 -7 -3 -9 -16 -6 -12 3 -21 1
-21 -6 0 -6 7 -11 15 -11 21 0 30 -27 15 -45 -27 -32 -58 13 -40 59 10 28 39
33 47 9z m-713 -24 c-3 -44 -14 -49 -14 -6 0 21 4 37 8 37 5 0 7 -14 6 -31z
m36 6 c0 -14 -3 -25 -7 -25 -5 0 -8 11 -8 25 0 14 3 25 8 25 4 0 7 -11 7 -25z
m78 8 c2 -7 -1 -13 -8 -13 -6 0 -8 5 -5 10 3 6 2 10 -3 10 -6 0 -13 -7 -16
-16 -4 -9 -9 -15 -11 -12 -3 3 -3 13 1 22 7 19 35 18 42 -1z m81 -5 c0 -16 -2
-18 -6 -8 -3 8 -11 18 -17 22 -7 5 -4 8 7 8 11 0 17 -7 16 -22z m33 0 c-7 -7
-12 -8 -12 -2 0 14 12 26 19 19 2 -3 -1 -11 -7 -17z m88 -13 c0 -24 -25 -41
-35 -24 -4 5 -1 8 7 7 7 -2 13 6 13 17 0 11 -6 19 -13 17 -8 -1 -11 2 -7 7 10
17 35 0 35 -24z m460 -4 c0 -34 -2 -38 -20 -34 -30 8 -33 19 -14 48 23 35 34
31 34 -14z m50 17 c1 -23 1 -23 15 2 l15 25 -6 -27 c-4 -18 -2 -28 5 -28 14 0
14 -27 0 -35 -6 -4 -13 3 -16 15 -6 22 -7 22 -21 4 -13 -18 -14 -18 -7 4 4 13
2 22 -4 22 -6 0 -11 9 -11 20 0 11 7 20 15 20 9 0 15 -9 15 -22z m-573 -25
c-3 -10 -5 -4 -5 12 0 17 2 24 5 18 2 -7 2 -21 0 -30z m110 31 c-3 -3 -12 -4
-19 -1 -8 3 -5 6 6 6 11 1 17 -2 13 -5z m-1507 -43 c-26 -52 -42 -151 -24
-151 7 0 16 5 19 10 4 6 21 8 39 4 32 -5 33 -4 45 38 7 24 28 62 47 83 l36 40
-32 -46 c-47 -69 -61 -127 -48 -196 5 -32 11 -66 11 -75 1 -9 4 -15 8 -12 4 2
14 -7 22 -20 24 -36 82 -67 140 -76 l52 -8 -45 -2 c-25 -1 -37 -4 -27 -7 9 -2
17 -8 17 -13 0 -5 8 -7 18 -3 9 3 14 3 10 -2 -10 -10 55 -42 97 -48 18 -3 38
0 44 6 8 8 11 7 11 -2 0 -20 -90 -54 -161 -59 -208 -15 -366 203 -319 440 11
57 43 138 55 138 3 0 -4 -18 -15 -39z m1284 13 c3 -8 2 -12 -4 -9 -6 3 -10 10
-10 16 0 14 7 11 14 -7z m31 6 c-3 -5 2 -10 11 -10 10 0 15 -3 11 -6 -10 -10
-39 5 -32 16 3 5 8 10 11 10 3 0 2 -4 -1 -10z m190 -10 c0 -7 -7 -15 -15 -17
-13 -4 -13 -3 0 6 13 10 13 12 0 22 -13 9 -13 10 0 6 8 -2 15 -10 15 -17z
m-258 -6 c-3 -3 -12 -4 -19 -1 -8 3 -5 6 6 6 11 1 17 -2 13 -5z m-407 -183
c16 -31 12 -35 -8 -10 -24 28 -52 20 -52 -16 0 -31 24 -43 47 -24 14 12 16 12
11 -1 -6 -20 -48 -26 -59 -8 -12 19 -11 52 3 66 18 18 46 14 58 -7z m120 -12
c0 -12 -8 -23 -19 -26 -11 -3 -22 -12 -24 -22 -3 -9 -5 -4 -6 11 -1 21 3 25
19 21 14 -4 20 0 20 10 0 9 -8 18 -17 20 -14 4 -12 5 5 6 16 1 22 -5 22 -20z
m161 -62 c-15 -15 -41 0 -41 24 0 12 8 23 20 26 11 3 21 10 22 17 0 6 3 -4 5
-23 3 -18 0 -38 -6 -44z m-108 30 c-4 -6 -9 -3 -13 8 -8 22 -19 8 -15 -18 2
-9 -1 -15 -6 -11 -13 7 -11 28 3 42 14 14 42 -4 31 -21z m279 -7 c-6 -41 -12
-38 -12 6 0 19 4 33 8 30 5 -3 7 -19 4 -36z m-255 -7 c-3 -10 -5 -4 -5 12 0
17 2 24 5 18 2 -7 2 -21 0 -30z m33 12 c0 -14 -2 -25 -4 -25 -2 0 -6 11 -8 25
-3 14 -1 25 3 25 5 0 9 -11 9 -25z m77 -22 c-3 -10 -5 -2 -5 17 0 19 2 27 5
18 2 -10 2 -26 0 -35z m61 30 c2 -7 -1 -13 -8 -13 -6 0 -8 5 -5 10 3 6 2 10
-3 10 -6 0 -13 -7 -16 -16 -8 -22 -8 -22 12 -27 15 -4 15 -5 0 -6 -22 -1 -31
14 -23 40 7 21 35 23 43 2z m47 7 c3 -6 -1 -7 -9 -4 -12 5 -16 -1 -17 -22 -1
-18 -3 -22 -6 -11 -9 34 16 63 32 37z m93 -13 c2 -10 -3 -17 -12 -17 -9 0 -16
-5 -16 -11 0 -6 7 -8 18 -4 13 5 14 3 5 -6 -16 -16 -33 -3 -33 25 0 38 31 49
38 13z m499 8 c3 -9 -2 -24 -12 -34 -16 -18 -15 -19 2 -24 17 -4 17 -4 0 -12
-28 -12 -44 10 -24 33 21 23 22 43 2 36 -8 -4 -15 -1 -15 5 0 17 40 13 47 -4z
m43 3 l-25 -10 23 -9 c25 -10 30 -44 6 -53 -17 -7 -34 0 -34 14 0 4 10 6 21 3
16 -4 20 -2 17 8 -3 8 -13 13 -22 13 -11 -1 -16 6 -16 22 0 20 5 24 28 23 l27
0 -25 -11z m62 -13 c-3 -17 -1 -16 17 5 11 14 20 20 21 14 0 -6 -7 -17 -15
-24 -19 -16 -20 -31 -1 -24 19 7 31 -15 16 -29 -9 -9 -14 -8 -24 6 -13 16 -14
16 -20 1 -4 -9 -9 -14 -13 -10 -4 3 -1 12 5 18 16 16 15 28 -3 28 -9 0 -15 9
-15 21 0 14 5 19 18 17 11 -2 16 -11 14 -23z m-575 8 c-4 -3 1 -12 11 -19 14
-10 15 -15 5 -25 -11 -11 -15 -11 -25 0 -11 10 -10 11 5 6 9 -4 17 -3 17 3 0
5 -7 13 -16 16 -14 5 -11 26 3 26 4 0 3 -3 0 -7z m-10873 -23 c29 -11 66 -45
66 -61 0 -6 -11 3 -25 19 -14 16 -37 33 -51 36 -40 10 -93 -12 -115 -48 -20
-33 -27 -29 -8 5 12 24 67 59 91 59 9 0 28 -4 42 -10z m10753 -12 c-3 -8 -6
-5 -6 6 -1 11 2 17 5 13 3 -3 4 -12 1 -19z m-10680 -100 c-3 -7 -5 -2 -5 12 0
14 2 19 5 13 2 -7 2 -19 0 -25z m-220 -15 c-3 -10 -5 -4 -5 12 0 17 2 24 5 18
2 -7 2 -21 0 -30z m405 -3 c-18 -4 -41 -14 -50 -21 -10 -8 -7 -4 6 9 13 12 35
22 50 21 25 -1 25 -2 -6 -9z m-185 -22 c-3 -8 -6 -5 -6 6 -1 11 2 17 5 13 3
-3 4 -12 1 -19z m244 5 c13 -16 12 -17 -3 -4 -17 13 -22 21 -14 21 2 0 10 -8
17 -17z m9563 9 c2 -4 -3 -8 -12 -8 -9 -1 -26 -4 -37 -8 -13 -5 -11 -2 5 8 29
18 37 19 44 8z m-9990 -72 c6 -9 1 -5 -11 8 -13 13 -23 28 -23 35 0 7 6 3 12
-8 6 -11 16 -27 22 -35z m10431 -15 c0 -37 -2 -40 -29 -40 -20 0 -31 6 -37 21
-10 29 16 66 44 62 18 -2 22 -10 22 -43z m-10265 32 c0 -2 -10 -12 -22 -23
l-23 -19 19 23 c18 21 26 27 26 19z m4245 -99 c-17 -13 -34 -9 -45 12 -13 24
3 60 25 60 8 0 16 8 17 18 0 9 4 -5 7 -33 4 -29 2 -53 -4 -57z m95 1 c-26 -11
-40 2 -40 37 0 27 4 34 20 34 12 0 21 7 22 18 0 9 4 -5 7 -33 5 -39 3 -51 -9
-56z m6055 91 c4 -6 -4 -9 -17 -7 -19 2 -24 -3 -26 -27 -3 -25 -1 -28 17 -23
12 3 21 1 21 -5 0 -5 -10 -8 -22 -6 -26 3 -36 41 -18 64 14 16 36 18 45 4z
m-6515 -4 c0 -3 -4 -8 -10 -11 -5 -3 -10 -1 -10 4 0 6 5 11 10 11 6 0 10 -2
10 -4z m6757 -33 c-3 -10 -5 -4 -5 12 0 17 2 24 5 18 2 -7 2 -21 0 -30z
m-6212 -3 c9 -28 -5 -51 -29 -48 -13 2 -22 12 -24 26 -7 46 39 65 53 22z m50
20 c3 -5 -2 -10 -12 -10 -15 0 -14 -3 6 -19 13 -10 21 -23 17 -30 -9 -13 -46
-15 -46 -1 0 5 7 7 15 4 20 -8 19 6 -2 21 -9 7 -14 19 -10 29 7 18 23 21 32 6z
m5975 -26 c0 -13 -4 -24 -9 -24 -4 0 -8 10 -7 23 1 13 -4 21 -12 19 -8 -1 -11
2 -7 7 10 18 35 0 35 -25z m291 -37 c-7 -7 -15 -6 -26 3 -21 17 -19 41 5 47
11 3 21 10 22 17 0 6 3 -4 5 -23 3 -18 0 -38 -6 -44z m-7571 48 c16 -19 6 -45
-20 -52 -12 -3 -20 -14 -21 -27 -1 -11 -5 -1 -10 24 -5 25 -7 51 -4 58 6 17
40 15 55 -3z m200 -34 c0 -40 -4 -50 -19 -54 -26 -6 -41 11 -41 45 0 26 8 33
37 29 8 -1 10 5 7 14 -3 8 -1 15 5 15 7 0 11 -20 11 -49z m176 7 c-8 -14 -7
-23 2 -39 11 -17 11 -20 1 -17 -15 5 -30 64 -22 84 4 10 8 10 18 1 9 -9 9 -16
1 -29z m558 26 c19 -19 12 -34 -15 -34 -12 0 -17 -4 -14 -11 4 -6 13 -8 21 -5
8 3 14 1 14 -5 0 -6 -10 -9 -22 -7 -26 3 -36 41 -18 64 15 17 15 17 34 -2z
m71 3 c12 -40 14 -67 5 -67 -5 0 -10 14 -10 30 0 42 -27 40 -33 -2 -3 -30 -4
-30 -5 7 -2 35 1 41 19 42 11 1 22 -4 24 -10z m102 -39 c-2 -13 -4 -5 -4 17
-1 22 1 32 4 23 2 -10 2 -28 0 -40z m6229 24 c1 -18 1 -19 -3 -2 -6 27 -31 25
-36 -2 -4 -19 -4 -18 -6 5 -1 24 2 28 22 25 15 -2 22 -10 23 -26z m49 18 c3
-6 -1 -7 -9 -4 -12 4 -16 0 -16 -16 0 -17 4 -21 18 -15 13 5 14 3 5 -6 -14
-14 -33 -3 -33 20 0 28 22 42 35 21z m43 3 c-10 -2 -18 -12 -18 -20 0 -9 -3
-14 -6 -10 -12 11 5 37 23 36 17 -1 17 -2 1 -6z m692 -38 c0 -56 -17 -60 -22
-5 -3 34 1 43 20 49 1 1 2 -19 2 -44z m-7469 -3 c4 -18 3 -35 -2 -38 -5 -3 -9
9 -9 25 0 17 -4 31 -10 31 -5 0 -10 -13 -10 -30 0 -16 -4 -30 -10 -30 -5 0
-10 14 -10 30 0 17 -4 30 -10 30 -5 0 -10 -13 -10 -30 0 -16 -4 -30 -10 -30
-5 0 -10 15 -10 34 0 36 8 42 60 41 19 0 26 -7 31 -33z m67 -5 c3 -35 1 -38
-20 -35 -30 4 -37 38 -9 45 11 3 18 9 16 14 -3 4 -13 5 -22 2 -11 -4 -14 -3
-9 6 16 25 41 7 44 -32z m58 31 c5 -8 2 -9 -9 -5 -23 9 -21 -1 4 -22 19 -15
20 -18 5 -30 -13 -11 -20 -11 -28 -3 -9 9 -7 12 8 12 17 0 17 2 -5 19 -13 10
-21 23 -17 30 9 14 33 14 42 -1z m68 -10 l7 -23 11 25 c5 14 12 20 14 14 7
-16 -15 -66 -25 -60 -13 8 -32 66 -22 66 5 0 12 -10 15 -22z m6676 -5 c0 -22
-2 -25 -10 -13 -9 13 -11 13 -20 0 -7 -11 -10 -11 -10 -2 0 7 7 15 15 18 8 4
12 10 9 15 -3 5 0 9 5 9 6 0 11 -12 11 -27z m115 -3 c0 -31 -31 -39 -40 -11
-8 26 2 43 23 39 11 -2 17 -13 17 -28z m50 20 c3 -6 -1 -7 -9 -4 -10 4 -16 1
-16 -7 0 -7 -3 -10 -6 -6 -7 7 4 27 16 27 5 0 12 -4 15 -10z m476 -32 c-5 -40
-6 -41 -9 -10 -2 17 -8 32 -13 32 -6 0 -7 5 -4 10 3 6 12 10 18 10 9 0 11 -13
8 -42z m49 25 c1 -17 1 -17 14 0 20 26 29 21 11 -7 -19 -28 -55 -25 -55 5 0
24 30 25 30 2z m-7980 -34 c0 -20 4 -29 13 -26 6 2 12 16 12 30 -1 15 3 27 7
27 4 0 8 -16 8 -35 0 -30 -3 -35 -24 -35 -13 0 -27 7 -30 16 -10 25 -7 66 4
59 6 -3 10 -20 10 -36z m108 21 c5 -13 3 -13 -11 -1 -14 11 -18 11 -23 -3 -3
-9 -3 -23 0 -32 5 -13 9 -14 21 -4 11 9 15 9 15 1 0 -18 -29 -25 -45 -11 -8 7
-15 20 -15 29 0 37 47 54 58 21z m116 -2 c13 -21 -2 -51 -27 -56 -23 -5 -40
33 -27 59 13 23 38 22 54 -3z m62 11 c4 -8 -1 -9 -17 -5 l-24 7 23 -17 c34
-25 23 -60 -15 -47 -22 8 -14 21 10 17 l22 -5 -22 17 c-13 9 -23 23 -23 30 0
17 36 19 46 3z m6731 -11 c-3 -8 -6 -5 -6 6 -1 11 2 17 5 13 3 -3 4 -12 1 -19z
m-7194 5 c-7 -2 -13 -20 -13 -39 0 -21 -4 -33 -10 -29 -5 3 -10 22 -10 41 0
29 3 34 23 33 12 0 16 -3 10 -6z m73 -18 c6 -24 -9 -55 -27 -55 -15 0 -40 47
-33 64 10 26 53 20 60 -9z m-2279 -62 c-2 -16 -4 -3 -4 27 0 30 2 43 4 28 2
-16 2 -40 0 -55z m9841 65 c-3 -7 -12 -14 -22 -14 -13 -2 -13 -1 -1 3 8 2 13
9 10 14 -4 5 -1 9 5 9 7 0 10 -6 8 -12z m-251 -4 c-3 -3 -12 -4 -19 -1 -8 3
-5 6 6 6 11 1 17 -2 13 -5z m820 -10 c8 -21 -13 -42 -28 -27 -13 13 -5 43 11
43 6 0 13 -7 17 -16z m-56 -17 c-10 -9 -11 -8 -5 6 3 10 9 15 12 12 3 -3 0
-11 -7 -18z m-11571 -50 c0 -2 -15 -16 -32 -33 l-33 -29 29 33 c28 30 36 37
36 29z m1008 -64 c2 -8 -5 -13 -17 -13 -12 0 -21 6 -21 16 0 18 31 15 38 -3z
m6834 -147 c4 -35 -24 -59 -44 -37 -11 11 -9 12 10 6 12 -3 22 -2 22 3 0 5 -9
12 -20 15 -22 6 -27 36 -8 55 16 16 35 -3 40 -42z m56 42 c5 -7 9 -29 8 -48
-1 -28 -5 -35 -21 -35 -15 0 -21 8 -23 33 -5 55 12 79 36 50z m65 5 c14 -25
15 -62 3 -79 -12 -15 -16 -16 -30 -5 -16 13 -22 71 -9 84 9 9 31 9 36 0z m249
-43 c4 -49 -7 -39 -16 13 -5 24 -4 37 2 33 6 -3 12 -24 14 -46z m92 25 c-4 -8
1 -17 10 -21 17 -6 22 -29 8 -38 -4 -2 -14 0 -22 6 -12 8 -12 9 3 4 22 -7 22
10 0 22 -14 8 -13 42 1 42 3 0 3 -7 0 -15z m-196 -7 c18 -18 15 -26 -10 -31
-23 -4 -23 -4 2 -15 23 -10 24 -11 4 -11 -24 -1 -37 22 -29 50 7 22 16 24 33
7z m69 -28 c1 -33 1 -33 -5 -6 -9 37 -32 47 -33 14 0 -12 -3 -17 -6 -10 -8 21
6 44 24 40 13 -2 19 -14 20 -38z m90 34 c-3 -3 -12 -4 -19 -1 -8 3 -5 6 6 6
11 1 17 -2 13 -5z m-239 -29 c-3 -3 -9 2 -12 12 -6 14 -5 15 5 6 7 -7 10 -15
7 -18z m26 -9 c-3 -14 -11 -26 -16 -26 -5 0 -7 6 -4 13 3 6 9 20 12 30 10 27
16 13 8 -17z m215 -17 c-19 -12 -26 -11 -35 2 -3 6 -1 16 5 22 9 9 10 8 5 -7
-5 -14 -3 -17 7 -14 8 3 13 14 11 24 -2 18 -2 18 9 0 9 -14 8 -20 -2 -27z
m-7032 -86 c-2 -16 -4 -3 -4 27 0 30 2 43 4 28 2 -16 2 -40 0 -55z m2715 -20
c10 -26 15 -49 13 -51 -2 -3 -7 3 -11 12 -8 21 -33 21 -51 -1 -13 -16 -14 -16
-9 -1 3 9 10 35 16 58 13 48 18 46 42 -17z m-362 -8 c0 -47 -3 -55 -19 -55
-10 0 -24 7 -31 15 -17 21 3 70 25 61 10 -4 15 1 15 14 0 11 2 20 5 20 3 0 5
-25 5 -55z m-192 13 c2 -16 -1 -29 -7 -29 -6 -1 -17 -2 -23 -3 -7 0 -13 -9
-13 -18 0 -9 -4 -20 -8 -24 -4 -4 -7 18 -7 50 0 57 0 57 28 54 21 -2 28 -9 30
-30z m374 4 c-7 -2 -7 -14 -2 -33 12 -40 -4 -37 -17 4 -13 42 -7 63 14 45 9
-7 11 -14 5 -16z m68 4 c18 -23 8 -61 -17 -64 -17 -3 -24 3 -29 22 -4 16 -1
32 6 41 16 19 24 19 40 1z m-330 -10 c18 -23 8 -61 -17 -64 -17 -3 -24 3 -29
22 -4 16 -1 32 6 41 16 19 24 19 40 1z m125 -47 c6 0 12 15 15 33 l6 33 5 -37
c4 -30 1 -38 -15 -42 -29 -8 -36 1 -35 42 l2 37 6 -33 c3 -18 11 -33 16 -33z
m95 52 c0 -5 -8 -8 -17 -7 -12 1 -18 -6 -18 -19 0 -15 6 -19 25 -17 18 2 22 0
13 -9 -27 -27 -64 8 -49 47 6 15 46 20 46 5z m-287 -9 c-6 -4 -13 -21 -16 -37
-4 -27 -4 -27 -6 8 -1 29 3 37 17 37 11 0 13 -3 5 -8z m4465 -170 c-24 -5 -23
-18 2 -25 12 -3 20 -14 20 -26 0 -25 -26 -39 -42 -23 -8 8 -5 9 11 5 17 -4 21
-1 21 17 0 17 -4 21 -20 17 -16 -4 -20 0 -20 18 0 24 17 37 35 26 6 -3 2 -7
-7 -9z m77 8 c3 -5 -3 -10 -14 -10 -28 0 -27 -18 2 -22 28 -4 37 -45 11 -55
-33 -12 -60 57 -32 85 15 15 25 15 33 2z m247 -38 l-6 -27 -6 25 c-8 30 -1 58
10 40 4 -6 5 -23 2 -38z m-372 21 c-1 -10 -7 -31 -15 -48 -14 -28 -14 -16 0
32 5 17 1 22 -17 26 -20 4 -20 4 5 6 20 1 27 -4 27 -16z m485 7 c4 -6 3 -10
-2 -9 -22 4 -23 -3 -2 -19 15 -13 19 -21 10 -26 -6 -4 -10 -3 -9 3 2 5 -6 17
-17 25 -17 14 -18 17 -5 26 19 12 18 12 25 0z m1255 -22 c0 -7 -5 -6 -15 2
-23 19 -47 4 -43 -27 3 -24 7 -28 33 -26 28 2 29 1 11 -12 -25 -19 -31 -19
-46 0 -32 39 1 106 41 84 11 -5 19 -15 19 -21z m-1460 -4 c0 -8 -7 -14 -15
-14 -21 0 -19 -18 3 -23 13 -4 13 -5 -4 -6 -25 -1 -40 35 -23 55 13 16 39 7
39 -12z m61 -8 c5 -17 6 -32 4 -35 -3 -2 -8 10 -11 28 -5 26 -10 30 -27 25
-13 -4 -17 -3 -12 5 12 21 38 7 46 -23z m97 3 c2 -16 -3 -29 -12 -32 -18 -7
-42 18 -26 28 6 4 9 2 8 -3 -2 -6 2 -9 7 -8 16 2 12 30 -5 38 -11 6 -10 7 5 5
13 -1 21 -11 23 -28z m1324 -6 c-6 -65 -10 -70 -11 -15 0 28 3 52 7 52 4 0 6
-17 4 -37z m-1552 7 c7 20 8 21 9 5 0 -11 -3 -26 -8 -34 -7 -11 -11 -10 -20 7
-6 11 -11 27 -10 34 0 7 5 2 11 -12 l11 -25 7 25z m1754 -35 c1 -49 -10 -60
-20 -20 -7 27 3 81 13 71 4 -3 7 -26 7 -51z m-1657 3 c-3 -7 -5 -2 -5 12 0 14
2 19 5 13 2 -7 2 -19 0 -25z m1485 -3 c-2 -19 -6 -35 -8 -35 -2 0 -4 16 -4 35
0 19 4 35 8 35 4 0 6 -16 4 -35z m66 12 c2 -12 -3 -17 -17 -17 -12 0 -21 -5
-21 -11 0 -7 9 -9 21 -6 16 4 19 3 11 -5 -16 -16 -42 -1 -42 25 0 13 3 27 7
31 12 12 38 2 41 -17z m70 -14 c2 -19 -1 -33 -7 -33 -6 0 -11 14 -11 31 0 17
-4 28 -10 24 -5 -3 -10 -17 -10 -31 0 -13 -4 -24 -10 -24 -11 0 -14 53 -3 64
4 4 16 6 28 4 15 -2 21 -12 23 -35z m102 23 c0 -2 3 -11 6 -20 5 -12 0 -16
-21 -16 -16 0 -24 -4 -20 -11 4 -6 13 -8 21 -5 8 3 14 1 14 -5 0 -6 -10 -9
-22 -7 -39 5 -37 68 2 68 11 0 20 -2 20 -4z m66 -7 c4 -8 0 -9 -15 -4 -12 4
-21 2 -21 -4 0 -6 3 -11 8 -11 4 0 13 -4 21 -9 12 -8 12 -12 2 -25 -7 -8 -19
-12 -27 -9 -20 8 -17 23 4 17 15 -5 15 -4 -2 10 -10 8 -16 22 -13 31 7 17 33
20 43 4z m90 -35 c1 -34 1 -35 -3 -6 -5 40 -25 38 -34 -4 -6 -28 -7 -27 -8 8
-1 34 11 50 34 44 6 -1 11 -20 11 -42z m49 -24 c8 0 15 14 18 33 4 31 4 31 5
-5 2 -34 0 -38 -23 -38 -23 0 -25 4 -23 38 1 36 1 36 5 5 3 -19 10 -33 18 -33z
m93 37 c2 -12 -3 -17 -17 -17 -12 0 -21 -4 -21 -10 0 -5 8 -10 17 -10 13 0 14
-3 5 -12 -14 -14 -42 6 -42 31 0 38 51 54 58 18z m32 -10 c1 -21 1 -21 15 3 8
14 14 19 14 10 0 -8 -6 -26 -14 -40 l-13 -25 -11 28 c-14 35 -14 60 -1 52 6
-3 10 -16 10 -28z m-9820 12 l85 -2 -102 -8 c-103 -8 -153 -24 -172 -56 -6
-10 -11 -12 -11 -5 0 6 -9 21 -20 32 -17 17 -34 20 -112 21 l-93 2 90 8 c50 5
97 11 105 13 8 3 44 3 80 1 36 -3 103 -6 150 -6z m9915 0 c4 -5 4 -21 1 -35
-5 -19 -12 -25 -29 -22 -37 5 -36 68 2 68 11 0 23 -5 26 -11z m61 -1 c5 -8 2
-9 -9 -5 -22 8 -22 -2 0 -18 10 -7 14 -19 10 -29 -8 -20 -38 -18 -45 4 -4 12
-3 13 10 3 8 -7 18 -10 22 -6 4 4 -3 15 -15 24 -12 9 -19 21 -15 28 9 14 33
14 42 -1z m-6401 -128 c0 -42 -2 -45 -27 -48 -27 -3 -28 -2 -28 48 0 50 1 51
28 48 25 -3 27 -6 27 -48z m-565 25 c17 -21 8 -50 -17 -53 -13 -2 -23 -12 -26
-25 -2 -12 -5 4 -6 36 -1 50 1 57 18 57 10 0 24 -7 31 -15z m200 -36 c0 -49
-1 -50 -27 -47 -20 2 -29 9 -31 26 -4 29 15 53 35 45 12 -5 15 -2 10 10 -3 9
-2 17 3 17 6 0 10 -23 10 -51z m179 23 c-12 -5 -11 -45 1 -60 6 -8 5 -8 -4 0
-13 12 -20 43 -17 76 1 10 4 10 15 0 8 -7 10 -14 5 -16z m-44 -3 c4 -6 0 -9
-11 -7 -14 2 -19 -3 -19 -22 0 -18 5 -25 19 -23 11 1 15 -2 9 -8 -17 -17 -43
2 -43 30 0 15 3 31 7 34 10 10 31 8 38 -4z m121 -14 c8 -34 -12 -58 -37 -44
-18 9 -26 49 -12 62 15 16 43 6 49 -18z m-404 3 c-6 -7 -12 -26 -15 -43 -3
-24 -4 -22 -6 13 -1 33 3 42 15 42 12 0 14 -3 6 -12z m66 0 c28 -28 -3 -83
-33 -58 -15 13 -20 51 -8 63 10 11 28 8 41 -5z m127 -48 c8 0 15 14 18 33 4
31 4 31 5 -6 2 -34 0 -38 -20 -35 -18 2 -24 10 -25 36 -3 32 -3 32 3 2 3 -16
11 -30 19 -30z m5961 -75 c15 -23 15 -27 0 -49 -10 -15 -12 -27 -6 -31 20 -12
11 -64 -14 -81 -22 -13 -29 -14 -53 -2 -30 14 -44 48 -20 48 8 0 17 -7 21 -15
7 -19 30 -19 45 -1 14 16 4 46 -14 46 -26 0 -26 20 -1 30 29 11 34 31 12 49
-11 9 -17 8 -29 -4 -17 -17 -37 -20 -37 -6 0 18 31 41 55 41 15 0 31 -10 41
-25z m129 -9 c18 -27 13 -47 -28 -98 -30 -40 -31 -38 22 -42 8 -1 16 -7 19
-14 5 -15 -104 -17 -113 -2 -3 5 14 32 39 58 26 27 46 59 46 71 0 28 -29 40
-45 18 -13 -18 -35 -23 -35 -8 0 18 31 41 55 41 15 0 31 -10 40 -24z m-1792
-51 c4 -27 4 -44 1 -37 -3 6 -14 12 -25 12 -10 0 -19 5 -19 10 0 13 30 73 34
68 2 -1 6 -25 9 -53z m61 25 c-1 -14 -5 -34 -9 -44 -6 -14 -5 -17 3 -12 7 4
12 2 12 -3 0 -6 -9 -11 -20 -11 -24 0 -25 9 -5 36 27 35 16 71 -14 42 -10 -11
-11 -9 -5 5 10 27 39 16 38 -13z m249 -18 c3 -24 3 -41 0 -39 -8 9 -21 76 -15
81 8 8 9 6 15 -42z m-393 26 c-25 -11 -25 -12 -3 -15 12 -3 25 -13 28 -24 8
-24 -11 -50 -31 -42 -20 7 -18 21 4 19 9 0 17 6 17 14 0 8 -9 15 -20 15 -13 0
-21 8 -23 23 -3 18 1 22 25 21 l28 0 -25 -11z m460 -34 c0 -13 -5 -24 -11 -24
-5 0 -7 5 -3 11 3 6 0 15 -7 20 -11 7 -11 9 -1 9 7 0 10 5 7 10 -4 6 -11 7
-17 4 -7 -4 -8 -2 -4 5 12 18 36 -6 36 -35z m45 36 c3 -6 -1 -7 -9 -4 -23 9
-19 -5 7 -26 20 -17 21 -19 4 -25 -10 -4 -21 -5 -24 -1 -4 3 2 6 13 6 17 0 17
2 -5 19 -13 10 -21 23 -17 30 9 14 23 14 31 1z m-268 -32 c-3 -7 -5 -2 -5 12
0 14 2 19 5 13 2 -7 2 -19 0 -25z m61 14 c2 -7 -5 -16 -17 -19 -11 -3 -18 -10
-15 -15 3 -5 12 -7 20 -4 8 3 14 1 14 -5 0 -15 -31 -7 -43 12 -6 9 -7 24 -4
33 8 20 38 18 45 -2z m60 -23 c-3 -20 -5 -19 -9 9 -3 20 -2 29 4 23 5 -5 7
-19 5 -32z m-133 -27 c-8 -8 -13 0 -20 33 l-7 30 16 -29 c9 -16 14 -31 11 -34z
m199 22 c3 -8 2 -12 -4 -9 -6 3 -10 10 -10 16 0 14 7 11 14 -7z m3633 -176
c-2 -29 -3 -8 -3 47 0 55 1 79 3 53 2 -26 2 -71 0 -100z m-7931 34 c1 -7 0 -8
-3 -2 -8 17 -41 11 -48 -10 -8 -24 11 -60 30 -60 8 0 15 5 15 10 0 6 5 10 11
10 8 0 8 -5 -1 -15 -7 -8 -21 -15 -31 -15 -33 0 -52 63 -27 88 16 16 51 12 54
-6z m-378 -93 c-17 -11 -29 -7 -42 14 -12 19 1 48 25 55 8 2 6 -2 -5 -10 -13
-10 -16 -21 -11 -37 11 -36 30 -18 35 35 l4 49 4 -49 c2 -33 -1 -52 -10 -57z
m188 59 c-8 -13 -8 -23 2 -38 7 -11 8 -20 2 -20 -12 0 -25 52 -21 88 1 10 4
10 15 0 10 -10 11 -17 2 -30z m-368 0 c3 -22 -2 -29 -23 -34 -17 -4 -24 -11
-21 -20 3 -8 1 -14 -4 -14 -6 0 -10 23 -10 51 0 49 1 50 28 47 21 -2 28 -9 30
-30z m332 0 c0 -6 -6 -5 -15 2 -12 10 -16 9 -21 -4 -9 -23 4 -49 21 -42 8 3
15 1 15 -5 0 -6 -10 -9 -22 -7 -26 3 -37 41 -18 63 12 15 40 10 40 -7z m108
10 c28 -28 -3 -83 -33 -58 -15 13 -20 51 -8 63 10 11 28 8 41 -5z m-328 -12
c18 -23 8 -61 -17 -64 -17 -3 -24 3 -29 22 -4 16 -1 32 6 41 16 19 24 19 40 1z
m126 -46 c9 0 14 12 15 33 l2 32 6 -35 c5 -26 2 -37 -9 -41 -23 -10 -40 10
-38 45 l1 31 4 -32 c3 -20 10 -33 19 -33z m-193 42 c-6 -4 -13 -21 -16 -37 -4
-27 -4 -27 -6 8 -1 29 3 37 17 37 11 0 13 -3 5 -8z m8434 -195 c-2 -23 -3 -1
-3 48 0 50 1 68 3 42 2 -26 2 -67 0 -90z m-2257 93 c0 -5 -2 -10 -4 -10 -3 0
-8 5 -11 10 -3 6 -1 10 4 10 6 0 11 -4 11 -10z m144 2 c2 -4 -4 -8 -14 -8 -10
0 -16 4 -14 8 3 4 9 8 14 8 5 0 11 -4 14 -8z m-259 -24 c6 -4 -3 -8 -18 -8
-23 0 -26 2 -15 14 7 8 15 11 18 8 3 -4 10 -10 15 -14z m302 0 c-3 -8 -6 -5
-6 6 -1 11 2 17 5 13 3 -3 4 -12 1 -19z m-237 -8 c0 -5 -4 -10 -10 -10 -5 0
-10 5 -10 10 0 6 5 10 10 10 6 0 10 -4 10 -10z m109 -22 c0 -13 -3 -17 -6 -10
-2 6 -14 12 -26 13 -20 1 -20 2 3 9 14 4 26 8 28 9 1 1 2 -9 1 -21z m86 -17
c-3 -6 -11 -11 -16 -11 -5 0 -4 6 3 14 14 16 24 13 13 -3z m2102 -203 c-2 -24
-4 -7 -4 37 0 44 2 63 4 43 2 -21 2 -57 0 -80z m-10 -180 c-2 -18 -4 -4 -4 32
0 36 2 50 4 33 2 -18 2 -48 0 -65z m-2759 -150 c-1 -73 2 -149 6 -168 5 -19 5
-32 2 -29 -16 15 -27 141 -21 232 4 53 9 97 11 97 1 0 2 -60 2 -132z m2749
-40 c-2 -18 -4 -6 -4 27 0 33 2 48 4 33 2 -15 2 -42 0 -60z m-2337 2 c1 -8 8
2 17 23 8 20 19 37 24 37 11 0 -24 -83 -38 -87 -10 -4 -34 62 -32 88 1 17 28
-39 29 -61z m110 5 c0 -9 -10 -15 -26 -15 -15 0 -23 -4 -19 -11 4 -6 13 -8 21
-5 8 3 14 1 14 -5 0 -6 -10 -9 -22 -7 -17 2 -24 11 -26 32 -2 16 2 32 9 37 17
10 49 -7 49 -26z m50 15 c0 -5 -4 -10 -10 -10 -5 0 -10 -11 -10 -25 0 -14 -4
-25 -10 -25 -5 0 -10 16 -10 35 0 28 4 35 20 35 11 0 20 -4 20 -10z m78 -12
c-9 -7 -18 -24 -20 -38 -3 -20 -5 -17 -9 13 -5 34 -3 37 20 37 22 0 23 -2 9
-12z m70 0 c21 -21 14 -41 -13 -36 -14 3 -25 2 -25 -3 0 -4 10 -9 23 -12 19
-3 20 -4 4 -11 -21 -10 -47 9 -47 33 0 19 19 41 35 41 6 0 16 -5 23 -12z m86
-13 c10 -26 -6 -55 -29 -55 -14 0 -25 -7 -28 -17 -3 -10 -5 5 -6 34 -1 41 2
52 17 55 23 6 39 -1 46 -17z m169 10 c4 -8 2 -17 -3 -20 -14 -9 -12 -43 3 -48
6 -2 9 -8 5 -12 -15 -16 -28 8 -28 51 0 43 12 59 23 29z m-109 -1 c18 -7 22
-59 6 -69 -22 -13 -50 6 -50 34 0 39 11 48 44 35z m64 -12 c-12 -2 -18 -13
-18 -33 0 -16 -5 -29 -11 -29 -7 0 -9 9 -5 23 3 12 6 29 6 39 0 12 6 15 23 10
18 -5 19 -7 5 -10z m120 -19 c3 -18 -2 -23 -17 -23 -12 0 -21 -5 -21 -11 0 -6
9 -8 21 -4 15 5 19 4 15 -4 -12 -18 -44 -12 -51 9 -3 11 -3 29 0 41 9 28 49
22 53 -8z m68 6 c4 -8 0 -9 -15 -4 -11 3 -21 2 -21 -3 0 -5 9 -12 20 -15 11
-3 20 -12 20 -20 0 -23 -31 -30 -49 -11 -15 15 -14 16 9 9 l25 -6 -24 19 c-13
11 -21 24 -17 31 9 14 43 14 52 0z m-8691 -49 c13 -5 14 -9 5 -9 -8 0 -24 4
-35 9 -13 5 -14 9 -5 9 8 0 24 -4 35 -9z m9895 -49 c0 -4 -11 -18 -25 -31 -30
-28 -34 -16 -5 15 18 20 19 23 5 35 -8 7 -15 18 -15 24 1 12 40 -31 40 -43z
m-9795 19 c28 -10 43 -18 35 -18 -8 0 -37 8 -65 18 -27 10 -43 18 -35 18 8 0
38 -8 65 -18z m100 -30 c13 -5 14 -9 5 -9 -8 0 -24 4 -35 9 -13 5 -14 9 -5 9
8 0 24 -4 35 -9z m155 -46 c55 -20 22 -16 -45 6 -33 11 -44 17 -25 13 19 -3
50 -11 70 -19z m100 -29 c19 -7 28 -13 20 -13 -8 0 -31 6 -50 13 -19 7 -28 13
-20 13 8 0 31 -6 50 -13z m11162 5 c-13 -6 -73 -12 -135 -14 l-112 -5 105 10
c58 5 109 11 115 13 5 3 19 4 30 5 18 0 17 -1 -3 -9z m-3998 -37 c9 -18 14
-33 12 -33 -6 0 -36 55 -36 66 0 11 5 3 24 -33z m-6991 -20 c66 -20 116 -38
111 -40 -5 -1 -63 15 -129 36 -66 22 -116 40 -111 40 5 1 63 -16 129 -36z
m10684 30 c-20 -2 -52 -2 -70 0 -17 2 0 4 38 4 39 0 53 -2 32 -4z m-179 -10
c-16 -2 -40 -2 -55 0 -16 2 -3 4 27 4 30 0 43 -2 28 -4z m-160 -10 c-16 -2
-40 -2 -55 0 -16 2 -3 4 27 4 30 0 43 -2 28 -4z m-160 -10 c-10 -2 -28 -2 -40
0 -13 2 -5 4 17 4 22 1 32 -1 23 -4z m-9730 -140 c171 -53 310 -98 308 -100
-2 -3 -123 32 -268 77 -301 93 -377 118 -363 119 6 1 151 -42 323 -96z m5930
-80 c-10 -2 -26 -2 -35 0 -10 3 -2 5 17 5 19 0 27 -2 18 -5z m-5466 -64 c71
-22 128 -43 126 -45 -3 -2 -65 16 -139 40 -74 24 -130 44 -126 45 5 1 67 -17
139 -40z m4888 23 c0 -9 -928 -67 -937 -58 -3 3 18 6 48 7 45 0 858 54 882 58
4 0 7 -2 7 -7z m-983 -69 c-20 -2 -52 -2 -70 0 -17 2 0 4 38 4 39 0 53 -2 32
-4z m-149 -10 c-15 -2 -42 -2 -60 0 -18 2 -6 4 27 4 33 0 48 -2 33 -4z m-160
-10 c-16 -2 -40 -2 -55 0 -16 2 -3 4 27 4 30 0 43 -2 28 -4z m-150 -10 c-10
-2 -28 -2 -40 0 -13 2 -5 4 17 4 22 1 32 -1 23 -4z m2129 1 c-3 -3 -12 -4 -19
-1 -8 3 -5 6 6 6 11 1 17 -2 13 -5z m-2254 -11 c-7 -2 -21 -2 -30 0 -10 3 -4
5 12 5 17 0 24 -2 18 -5z m2100 0 c-7 -2 -19 -2 -25 0 -7 3 -2 5 12 5 14 0 19
-2 13 -5z m-2255 -10 c-10 -2 -28 -2 -40 0 -13 2 -5 4 17 4 22 1 32 -1 23 -4z
m2125 0 c-13 -2 -35 -2 -50 0 -16 2 -5 4 22 4 28 0 40 -2 28 -4z m-2265 -10
c-10 -2 -26 -2 -35 0 -10 3 -2 5 17 5 19 0 27 -2 18 -5z m-135 -10 c-13 -2
-35 -2 -50 0 -16 2 -5 4 22 4 28 0 40 -2 28 -4z m-150 -10 c-13 -2 -33 -2 -45
0 -13 2 -3 4 22 4 25 0 35 -2 23 -4z m-160 -10 c-7 -2 -21 -2 -30 0 -10 3 -4
5 12 5 17 0 24 -2 18 -5z m-140 -10 c-7 -2 -21 -2 -30 0 -10 3 -4 5 12 5 17 0
24 -2 18 -5z m-160 -10 c-7 -2 -19 -2 -25 0 -7 3 -2 5 12 5 14 0 19 -2 13 -5z
m-130 -10 c-13 -2 -33 -2 -45 0 -13 2 -3 4 22 4 25 0 35 -2 23 -4z m-135 -10
c-16 -2 -40 -2 -55 0 -16 2 -3 4 27 4 30 0 43 -2 28 -4z m-130 -10 c-16 -2
-40 -2 -55 0 -16 2 -3 4 27 4 30 0 43 -2 28 -4z m-145 -10 c-13 -2 -35 -2 -50
0 -16 2 -5 4 22 4 28 0 40 -2 28 -4z m-166 -9 c-3 -3 -12 -4 -19 -1 -8 3 -5 6
6 6 11 1 17 -2 13 -5z"/>
<path d="M11810 9090 c0 -13 20 -13 40 0 12 8 9 10 -12 10 -16 0 -28 -4 -28
-10z"/>
<path d="M12000 9080 c-11 -7 -4 -10 25 -10 29 0 36 3 25 10 -8 5 -19 10 -25
10 -5 0 -17 -5 -25 -10z"/>
<path d="M11762 9060 c0 -14 2 -19 5 -12 2 6 2 18 0 25 -3 6 -5 1 -5 -13z"/>
<path d="M12150 8955 l0 -65 62 0 61 0 -21 23 c-24 26 -29 42 -9 31 6 -4 4 2
-7 14 -10 12 -22 19 -27 17 -4 -3 -16 6 -27 20 -11 14 -23 25 -26 25 -3 0 -6
-29 -6 -65z"/>
<path d="M11763 8835 c0 -27 2 -38 4 -22 2 15 2 37 0 50 -2 12 -4 0 -4 -28z"/>
<path d="M12319 8848 c4 -28 6 -29 9 -9 2 13 0 27 -5 32 -6 6 -7 -3 -4 -23z"/>
<path d="M12268 8863 c6 -2 18 -2 25 0 6 3 1 5 -13 5 -14 0 -19 -2 -12 -5z"/>
<path d="M11988 8663 c18 -2 45 -2 60 0 15 2 0 4 -33 4 -33 0 -45 -2 -27 -4z"/>
<path d="M4410 8623 c0 -4 4 -14 9 -22 11 -17 45 -7 39 12 -5 13 -48 23 -48
10z"/>
<path d="M4500 8590 c0 -5 9 -10 21 -10 11 0 17 5 14 10 -3 6 -13 10 -21 10
-8 0 -14 -4 -14 -10z"/>
<path d="M4860 8580 c0 -5 7 -10 16 -10 8 0 12 5 9 10 -3 6 -10 10 -16 10 -5
0 -9 -4 -9 -10z"/>
<path d="M5052 8566 c2 -15 8 -26 13 -26 15 0 12 43 -3 48 -10 3 -13 -4 -10
-22z"/>
<path d="M5130 8570 c0 -5 4 -10 9 -10 6 0 13 5 16 10 3 6 -1 10 -9 10 -9 0
-16 -4 -16 -10z"/>
<path d="M5285 8570 c-3 -5 3 -10 15 -10 12 0 18 5 15 10 -3 6 -10 10 -15 10
-5 0 -12 -4 -15 -10z"/>
<path d="M5410 8530 c0 -5 4 -10 9 -10 6 0 13 5 16 10 3 6 -1 10 -9 10 -9 0
-16 -4 -16 -10z"/>
<path d="M12013 8513 c15 -2 37 -2 50 0 12 2 0 4 -28 4 -27 0 -38 -2 -22 -4z"/>
<path d="M4650 8050 c0 -5 7 -10 15 -10 8 0 15 5 15 10 0 6 -7 10 -15 10 -8 0
-15 -4 -15 -10z"/>
<path d="M6352 8033 c4 -21 33 -25 33 -3 0 8 -8 16 -18 18 -14 3 -18 -1 -15
-15z"/>
<path d="M6492 7998 c5 -32 28 -35 28 -4 0 17 -5 26 -16 26 -10 0 -14 -7 -12
-22z"/>
<path d="M6586 8011 c-9 -14 5 -42 18 -38 15 5 14 39 -1 44 -6 2 -14 0 -17 -6z"/>
<path d="M6425 8020 c-3 -5 1 -10 10 -10 9 0 13 5 10 10 -3 6 -8 10 -10 10 -2
0 -7 -4 -10 -10z"/>
<path d="M6658 8008 c-7 -19 2 -38 19 -38 9 0 13 8 11 22 -3 25 -23 35 -30 16z"/>
<path d="M2971 7966 c-17 -18 -22 -33 -19 -62 3 -43 28 -61 28 -20 0 21 5 26
25 26 20 0 25 -5 25 -25 0 -16 6 -25 15 -25 11 0 15 11 15 43 0 36 -5 47 -30
65 -16 12 -31 22 -33 22 -2 0 -14 -11 -26 -24z"/>
<path d="M8080 7980 c0 -5 7 -10 16 -10 8 0 12 5 9 10 -3 6 -10 10 -16 10 -5
0 -9 -4 -9 -10z"/>
<path d="M8250 7980 c0 -5 5 -10 11 -10 5 0 7 5 4 10 -3 6 -8 10 -11 10 -2 0
-4 -4 -4 -10z"/>
<path d="M9490 7960 c0 -13 5 -20 13 -17 6 2 12 10 12 17 0 7 -6 15 -12 18 -8
2 -13 -5 -13 -18z"/>
<path d="M3217 7928 c7 -41 10 -45 24 -31 16 16 7 57 -13 61 -15 3 -17 -2 -11
-30z"/>
<path d="M3480 7910 c0 -11 5 -20 10 -20 6 0 10 9 10 20 0 11 -4 20 -10 20 -5
0 -10 -9 -10 -20z"/>
<path d="M3704 7916 c-4 -10 -2 -22 4 -28 8 -8 13 -7 18 6 4 10 2 22 -4 28 -8
8 -13 7 -18 -6z"/>
<path d="M9592 7929 c1 -13 8 -23 13 -21 15 3 12 35 -3 40 -9 3 -13 -3 -10
-19z"/>
<path d="M9874 7936 c-6 -17 2 -36 17 -36 12 0 12 37 -1 45 -6 3 -13 -1 -16
-9z"/>
<path d="M3295 7900 c-3 -5 -1 -10 4 -10 6 0 11 5 11 10 0 6 -2 10 -4 10 -3 0
-8 -4 -11 -10z"/>
<path d="M3542 7909 c1 -13 8 -23 13 -21 15 3 12 35 -3 40 -9 3 -13 -3 -10
-19z"/>
<path d="M3605 7890 c4 -6 11 -8 16 -5 14 9 11 15 -7 15 -8 0 -12 -5 -9 -10z"/>
<path d="M4600 7776 c0 -8 5 -18 10 -21 6 -3 10 3 10 14 0 12 -4 21 -10 21 -5
0 -10 -6 -10 -14z"/>
<path d="M4640 7696 c0 -22 3 -27 11 -19 8 8 8 16 0 30 -9 16 -10 14 -11 -11z"/>
<path d="M4913 7779 c-14 -14 -6 -39 12 -39 18 0 26 15 19 34 -7 19 -16 20
-31 5z"/>
<path d="M4911 7707 c-8 -10 -7 -19 3 -32 12 -16 16 -17 30 -6 12 10 13 18 5
32 -12 22 -22 24 -38 6z"/>
<path d="M5180 7734 c-14 -35 -13 -44 5 -44 10 0 15 11 15 35 0 41 -7 45 -20
9z"/>
<path d="M5277 7773 c-10 -9 -8 -86 2 -102 16 -25 41 -4 41 34 0 53 -23 89
-43 68z"/>
<path d="M5422 7718 c3 -45 6 -53 23 -53 15 0 21 8 23 29 6 46 -6 76 -29 76
-18 0 -20 -5 -17 -52z"/>
<path d="M5527 7749 c-8 -29 2 -76 19 -89 20 -18 36 21 26 67 -9 43 -36 56
-45 22z"/>
<path d="M5637 7763 c-4 -3 -7 -25 -7 -48 0 -43 20 -73 40 -60 11 7 14 73 4
99 -6 16 -26 21 -37 9z"/>
<path d="M6549 7713 c-7 -16 -15 -31 -17 -35 -2 -5 6 -8 17 -8 17 0 21 6 21
35 0 42 -3 43 -21 8z"/>
<path d="M6657 7746 c-8 -20 20 -43 35 -28 8 8 8 15 -2 27 -16 19 -26 19 -33
1z"/>
<path d="M6667 7683 c-12 -11 -8 -41 7 -46 21 -8 37 13 25 35 -10 19 -21 23
-32 11z"/>
<path d="M7990 7711 c0 -15 6 -21 21 -21 25 0 22 33 -4 38 -12 2 -17 -3 -17
-17z"/>
<path d="M7992 7638 c2 -15 10 -23 23 -23 30 0 27 39 -3 43 -20 3 -23 0 -20
-20z"/>
<path d="M8112 7675 c-16 -34 -15 -35 8 -35 21 0 27 24 12 48 -6 9 -12 5 -20
-13z"/>
<path d="M9874 7626 c-9 -22 2 -46 21 -46 12 0 15 8 13 27 -3 30 -25 42 -34
19z"/>
<path d="M2990 7454 l0 -35 48 3 c45 3 47 4 50 36 l3 32 -50 0 -51 0 0 -36z
m66 2 c15 5 16 4 8 -5 -15 -16 -46 -11 -52 9 -4 12 -3 13 10 2 9 -7 24 -9 34
-6z"/>
<path d="M3310 7450 c0 -5 5 -10 10 -10 6 0 10 5 10 10 0 6 -4 10 -10 10 -5 0
-10 -4 -10 -10z"/>
<path d="M3470 7420 c0 -5 7 -10 16 -10 8 0 12 5 9 10 -3 6 -10 10 -16 10 -5
0 -9 -4 -9 -10z"/>
<path d="M6517 7414 c-8 -8 1 -24 14 -24 5 0 9 7 9 15 0 15 -12 20 -23 9z"/>
<path d="M6516 7371 c-3 -5 1 -14 8 -20 16 -13 32 2 21 19 -8 12 -22 13 -29 1z"/>
<path d="M6720 7350 c0 -5 5 -10 10 -10 6 0 10 5 10 10 0 6 -4 10 -10 10 -5 0
-10 -4 -10 -10z"/>
<path d="M3022 7053 c-49 -20 -38 -33 28 -33 65 0 76 11 32 32 -23 12 -33 12
-60 1z"/>
<path d="M3000 6973 c0 -26 5 -36 23 -42 20 -8 23 -5 28 28 l6 36 2 -37 c1
-42 0 -42 35 -28 21 8 26 16 26 43 l0 33 -60 0 -60 0 0 -33z"/>
<path d="M3266 7022 c-2 -4 -1 -14 4 -22 7 -11 12 -12 21 -3 6 6 8 16 5 22 -8
13 -23 14 -30 3z"/>
<path d="M3432 6983 c5 -25 28 -28 28 -4 0 12 -6 21 -16 21 -9 0 -14 -7 -12
-17z"/>
<path d="M3370 6980 c0 -11 7 -20 15 -20 8 0 15 9 15 20 0 11 -7 20 -15 20 -8
0 -15 -9 -15 -20z"/>
<path d="M3662 6979 c1 -13 8 -23 13 -21 15 3 12 35 -3 40 -9 3 -13 -3 -10
-19z"/>
<path d="M11172 6959 c2 -6 8 -10 13 -10 5 0 11 4 13 10 2 6 -4 11 -13 11 -9
0 -15 -5 -13 -11z"/>
<path d="M4720 6730 c0 -5 5 -10 10 -10 6 0 10 5 10 10 0 6 -4 10 -10 10 -5 0
-10 -4 -10 -10z"/>
<path d="M4900 6700 c0 -5 4 -10 9 -10 6 0 13 5 16 10 3 6 -1 10 -9 10 -9 0
-16 -4 -16 -10z"/>
<path d="M5170 6730 c0 -5 7 -10 16 -10 8 0 12 5 9 10 -3 6 -10 10 -16 10 -5
0 -9 -4 -9 -10z"/>
<path d="M5445 6700 c-3 -5 -2 -10 4 -10 5 0 13 5 16 10 3 6 2 10 -4 10 -5 0
-13 -4 -16 -10z"/>
<path d="M5540 6730 c0 -5 5 -10 10 -10 6 0 10 5 10 10 0 6 -4 10 -10 10 -5 0
-10 -4 -10 -10z"/>
<path d="M8072 6714 c4 -21 22 -23 26 -1 2 10 -3 17 -13 17 -10 0 -15 -6 -13
-16z"/>
<path d="M8214 6685 c-3 -8 -3 -19 1 -25 11 -18 25 -11 25 15 0 27 -17 34 -26
10z"/>
<path d="M8316 6691 c-7 -11 3 -41 14 -41 14 0 21 17 14 34 -7 18 -20 21 -28
7z"/>
<path d="M8150 6689 c0 -5 5 -7 10 -4 6 3 10 8 10 11 0 2 -4 4 -10 4 -5 0 -10
-5 -10 -11z"/>
<path d="M8390 6675 c0 -17 5 -25 13 -22 6 2 12 12 12 22 0 10 -6 20 -12 23
-8 2 -13 -6 -13 -23z"/>
<path d="M8600 6690 c0 -5 5 -10 11 -10 5 0 7 5 4 10 -3 6 -8 10 -11 10 -2 0
-4 -4 -4 -10z"/>
<path d="M8760 6690 c0 -5 5 -10 10 -10 6 0 10 5 10 10 0 6 -4 10 -10 10 -5 0
-10 -4 -10 -10z"/>
<path d="M8940 6690 c0 -5 5 -10 11 -10 5 0 7 5 4 10 -3 6 -8 10 -11 10 -2 0
-4 -4 -4 -10z"/>
<path d="M3055 6600 c-7 -11 12 -50 24 -50 16 0 31 27 25 44 -7 18 -39 22 -49
6z"/>
<path d="M13215 6587 c-9 -7 -20 -32 -25 -55 l-7 -42 46 0 46 0 -3 45 c-5 52
-28 73 -57 52z"/>
<path d="M11826 6583 c-3 -3 -6 -21 -6 -40 0 -26 4 -33 19 -33 19 0 31 18 31
45 0 16 -34 38 -44 28z"/>
<path d="M12143 6534 c-7 -18 11 -39 26 -30 17 11 13 46 -4 46 -9 0 -18 -7
-22 -16z"/>
<path d="M12437 6543 c-4 -3 -7 -15 -7 -25 0 -28 34 -19 38 10 3 21 -16 31
-31 15z"/>
<path d="M11915 6550 c-3 -5 1 -10 9 -10 9 0 16 5 16 10 0 6 -4 10 -9 10 -6 0
-13 -4 -16 -10z"/>
<path d="M11910 6510 c0 -5 4 -10 9 -10 6 0 13 5 16 10 3 6 -1 10 -9 10 -9 0
-16 -4 -16 -10z"/>
<path d="M12224 6535 c-7 -18 3 -35 22 -35 8 0 14 10 14 25 0 27 -27 35 -36
10z"/>
<path d="M12305 6510 c-3 -5 1 -10 9 -10 9 0 16 5 16 10 0 6 -4 10 -9 10 -6 0
-13 -4 -16 -10z"/>
<path d="M3037 6513 c-4 -3 -7 -15 -7 -25 0 -15 8 -18 55 -18 56 0 69 12 43
38 -13 13 -80 17 -91 5z"/>
<path d="M8193 6208 c2 -7 10 -13 17 -13 7 0 15 6 18 13 2 7 -5 12 -18 12 -13
0 -20 -5 -17 -12z"/>
<path d="M8604 6286 c-8 -21 -1 -49 14 -54 8 -2 12 7 12 27 0 33 -17 51 -26
27z"/>
<path d="M8736 6271 c-4 -7 -5 -15 -2 -18 9 -9 19 4 14 18 -4 11 -6 11 -12 0z"/>
<path d="M10260 6094 c0 -8 5 -12 10 -9 6 3 10 10 10 16 0 5 -4 9 -10 9 -5 0
-10 -7 -10 -16z"/>
<path d="M10324 6126 c-8 -21 3 -66 16 -66 13 0 13 67 0 75 -6 3 -13 -1 -16
-9z"/>
<path d="M10422 6099 c2 -19 8 -33 13 -31 15 3 12 55 -3 60 -10 3 -13 -5 -10
-29z"/>
<path d="M10487 6123 c-12 -11 -8 -40 8 -53 13 -11 15 -7 15 24 0 34 -8 44
-23 29z"/>
<path d="M10552 6098 c4 -46 28 -49 28 -4 0 26 -4 36 -16 36 -11 0 -14 -8 -12
-32z"/>
<path d="M3314 6119 c-10 -17 13 -36 27 -22 12 12 4 33 -11 33 -5 0 -12 -5
-16 -11z"/>
<path d="M3380 6090 c0 -5 4 -10 9 -10 6 0 13 5 16 10 3 6 -1 10 -9 10 -9 0
-16 -4 -16 -10z"/>
<path d="M3450 6075 c0 -17 5 -25 13 -22 6 2 12 12 12 22 0 10 -6 20 -12 23
-8 2 -13 -6 -13 -23z"/>
<path d="M3514 6085 c-3 -8 -3 -19 1 -25 11 -18 25 -11 25 15 0 27 -17 34 -26
10z"/>
<path d="M3660 6090 c0 -5 5 -10 10 -10 6 0 10 5 10 10 0 6 -4 10 -10 10 -5 0
-10 -4 -10 -10z"/>
<path d="M11215 5990 c-3 -5 1 -10 10 -10 9 0 13 5 10 10 -3 6 -8 10 -10 10
-2 0 -7 -4 -10 -10z"/>
<path d="M11397 5963 c-4 -3 -7 -11 -7 -17 0 -6 5 -5 12 2 6 6 9 14 7 17 -3 3
-9 2 -12 -2z"/>
<path d="M11610 5964 c0 -31 23 -28 28 4 2 15 -2 22 -12 22 -11 0 -16 -9 -16
-26z"/>
<path d="M11140 5701 c0 -6 5 -13 10 -16 6 -3 10 1 10 9 0 9 -4 16 -10 16 -5
0 -10 -4 -10 -9z"/>
<path d="M11170 5630 c0 -19 3 -21 12 -12 9 9 9 15 0 24 -9 9 -12 7 -12 -12z"/>
<path d="M11517 5670 c-18 -29 -18 -30 2 -30 17 0 21 6 21 30 0 17 -1 30 -3
30 -1 0 -11 -13 -20 -30z"/>
<path d="M11617 5703 c-11 -10 -8 -91 3 -98 28 -17 51 44 34 89 -6 16 -26 21
-37 9z"/>
<path d="M11766 5694 c-12 -32 -6 -84 10 -91 20 -7 34 13 34 49 0 36 -9 58
-25 58 -7 0 -16 -7 -19 -16z"/>
<path d="M11876 5694 c-3 -9 -6 -33 -6 -55 0 -32 4 -39 19 -39 21 0 31 19 31
59 0 42 -32 67 -44 35z"/>
<path d="M11992 5698 c-15 -15 -16 -95 0 -104 16 -10 38 25 38 62 0 37 -20 60
-38 42z"/>
<path d="M3099 5684 c-21 -11 -25 -20 -24 -56 1 -32 5 -43 17 -43 8 0 22 -6
30 -13 12 -10 18 -9 27 2 7 8 18 13 25 10 9 -4 13 7 12 40 -1 38 -5 46 -23 51
-13 3 -23 10 -23 15 0 13 -8 11 -41 -6z m55 -41 c4 -9 0 -23 -9 -32 -13 -14
-17 -14 -30 0 -19 19 -10 49 15 49 10 0 21 -8 24 -17z"/>
<path d="M3114 5639 c-10 -17 13 -36 27 -22 12 12 4 33 -11 33 -5 0 -12 -5
-16 -11z"/>
<path d="M8223 5674 c-22 -22 -24 -30 -18 -70 14 -93 51 -164 87 -164 9 0 9
-3 -2 -10 -8 -5 -10 -10 -5 -10 41 1 72 97 62 194 -7 81 -72 112 -124 60z m93
-46 c4 -6 0 -16 -9 -23 -21 -15 -21 -24 0 -50 13 -16 15 -17 10 -2 -4 11 -1
17 7 17 9 0 12 -7 9 -19 -4 -14 -13 -19 -39 -18 -18 1 -36 -2 -40 -5 -11 -12
7 -28 32 -28 13 0 24 -4 24 -10 0 -12 -30 -13 -46 -2 -12 8 -44 66 -44 80 0 5
12 7 26 4 20 -4 25 -1 22 9 -3 8 -12 13 -22 11 -16 -3 -23 27 -9 41 11 11 71
8 79 -5z"/>
<path d="M8310 5405 c-7 -9 -8 -15 -2 -15 5 0 12 7 16 15 3 8 4 15 2 15 -2 0
-9 -7 -16 -15z"/>
<path d="M8530 5650 c0 -5 5 -10 10 -10 6 0 10 5 10 10 0 6 -4 10 -10 10 -5 0
-10 -4 -10 -10z"/>
<path d="M8644 5676 c-8 -21 -1 -49 14 -54 8 -2 12 7 12 27 0 33 -17 51 -26
27z"/>
<path d="M8847 5666 c-4 -10 -5 -21 -2 -24 9 -9 17 6 13 25 -3 17 -4 17 -11
-1z"/>
<path d="M3787 5623 c-4 -3 -7 -11 -7 -17 0 -6 5 -5 12 2 6 6 9 14 7 17 -3 3
-9 2 -12 -2z"/>
<path d="M3924 5646 c-6 -17 2 -36 17 -36 12 0 12 37 -1 45 -6 3 -13 -1 -16
-9z"/>
<path d="M3422 5629 c1 -13 8 -23 13 -21 15 3 12 35 -3 40 -9 3 -13 -3 -10
-19z"/>
<path d="M3610 5630 c0 -11 7 -20 15 -20 8 0 15 9 15 20 0 11 -7 20 -15 20 -8
0 -15 -9 -15 -20z"/>
<path d="M10280 5515 c0 -25 4 -35 13 -32 6 2 12 16 12 32 0 16 -6 30 -12 33
-9 2 -13 -8 -13 -33z"/>
<path d="M10345 5539 c-10 -16 4 -61 18 -56 7 2 12 9 11 15 -1 7 -2 21 -2 32
-2 22 -17 27 -27 9z"/>
<path d="M10442 5519 c2 -19 8 -33 13 -31 15 3 12 55 -3 60 -10 3 -13 -5 -10
-29z"/>
<path d="M10512 5519 c2 -19 8 -33 13 -31 15 3 12 55 -3 60 -10 3 -13 -5 -10
-29z"/>
<path d="M10574 5547 c-9 -24 4 -69 19 -64 14 5 12 56 -2 70 -7 7 -12 5 -17
-6z"/>
<path d="M11280 5411 c0 -6 5 -13 10 -16 6 -3 10 1 10 9 0 9 -4 16 -10 16 -5
0 -10 -4 -10 -9z"/>
<path d="M8261 5064 c-12 -15 -21 -34 -21 -43 0 -27 30 -141 42 -164 7 -12 11
-27 10 -34 -1 -6 3 -15 9 -19 8 -4 9 -3 5 4 -4 7 -2 12 3 12 6 0 11 -4 11 -10
0 -5 7 -10 16 -10 8 0 12 -5 9 -11 -4 -6 -14 -8 -22 -5 -8 3 -11 1 -8 -4 11
-17 34 -11 49 13 8 12 16 52 18 89 2 38 7 68 11 68 16 0 -5 95 -26 118 -29 32
-79 30 -106 -4z m96 -50 c3 -9 -3 -21 -16 -30 -24 -17 -19 -34 10 -34 12 0 19
-7 19 -20 0 -24 -18 -27 -27 -4 -6 15 -8 15 -20 -2 -11 -15 -17 -16 -31 -8
-23 15 -28 42 -6 40 9 0 19 5 22 13 3 10 -1 12 -17 8 -17 -4 -21 -1 -21 17 0
30 7 36 47 36 21 0 36 -6 40 -16z m-27 -131 c24 6 27 -11 4 -20 -9 -3 -24 3
-37 18 -12 12 -14 17 -5 10 10 -7 27 -11 38 -8z"/>
<path d="M8570 5040 c0 -5 5 -10 10 -10 6 0 10 5 10 10 0 6 -4 10 -10 10 -5 0
-10 -4 -10 -10z"/>
<path d="M8684 5066 c-8 -21 -1 -49 14 -54 8 -2 12 7 12 27 0 33 -17 51 -26
27z"/>
<path d="M8815 5057 c-4 -10 -5 -21 -1 -24 10 -10 18 4 13 24 -4 17 -4 17 -12
0z"/>
<path d="M10352 4939 c2 -18 9 -34 16 -37 10 -3 13 5 10 29 -2 18 -9 34 -16
37 -10 3 -13 -5 -10 -29z"/>
<path d="M10450 4936 c0 -26 4 -36 16 -36 11 0 14 8 12 32 -4 46 -28 49 -28 4z"/>
<path d="M10516 4961 c-10 -15 5 -62 18 -58 15 5 14 59 -1 64 -6 2 -14 0 -17
-6z"/>
<path d="M10587 4966 c-9 -24 3 -68 17 -63 17 5 19 40 3 61 -13 17 -14 18 -20
2z"/>
<path d="M10212 4954 c1 -9 9 -19 16 -22 9 -3 13 2 10 14 -1 9 -9 19 -16 22
-9 3 -13 -2 -10 -14z"/>
<path d="M10280 4955 c0 -9 5 -15 11 -13 6 2 11 8 11 13 0 5 -5 11 -11 13 -6
2 -11 -4 -11 -13z"/>
<path d="M10285 4920 c-7 -12 2 -30 16 -30 5 0 9 9 9 20 0 21 -15 27 -25 10z"/>
<path d="M9355 4921 c-3 -5 -1 -12 5 -16 5 -3 10 1 10 9 0 18 -6 21 -15 7z"/>
<path d="M11090 4820 c0 -13 5 -20 13 -17 6 2 12 10 12 17 0 7 -6 15 -12 18
-8 2 -13 -5 -13 -18z"/>
<path d="M11224 4796 c-6 -17 2 -36 17 -36 12 0 12 37 -1 45 -6 3 -13 -1 -16
-9z"/>
<path d="M11320 4780 c0 -11 7 -20 15 -20 8 0 15 9 15 20 0 11 -7 20 -15 20
-8 0 -15 -9 -15 -20z"/>
<path d="M11992 4763 c5 -25 28 -28 28 -4 0 12 -6 21 -16 21 -9 0 -14 -7 -12
-17z"/>
<path d="M11160 4800 c0 -5 5 -10 10 -10 6 0 10 5 10 10 0 6 -4 10 -10 10 -5
0 -10 -4 -10 -10z"/>
<path d="M11392 4778 c2 -13 8 -23 13 -23 6 0 11 10 13 23 2 15 -2 22 -13 22
-11 0 -15 -7 -13 -22z"/>
<path d="M11930 4750 c0 -5 5 -10 10 -10 6 0 10 5 10 10 0 6 -4 10 -10 10 -5
0 -10 -4 -10 -10z"/>
<path d="M11557 4793 c-4 -3 -7 -15 -7 -25 0 -26 24 -17 28 10 3 21 -8 29 -21
15z"/>
<path d="M11627 4794 c-11 -11 -8 -44 3 -44 15 0 24 30 13 41 -5 5 -12 6 -16
3z"/>
<path d="M11768 4783 c7 -3 16 -2 19 1 4 3 -2 6 -13 5 -11 0 -14 -3 -6 -6z"/>
<path d="M12064 4769 c-10 -17 13 -36 27 -22 12 12 4 33 -11 33 -5 0 -12 -5
-16 -11z"/>
<path d="M12104 4356 c-8 -22 3 -33 18 -18 9 9 9 15 0 24 -9 9 -13 7 -18 -6z"/>
<path d="M12920 4315 c0 -9 5 -15 11 -13 6 2 11 8 11 13 0 5 -5 11 -11 13 -6
2 -11 -4 -11 -13z"/>
<path d="M12996 4341 c-4 -7 -5 -15 -2 -18 9 -9 19 4 14 18 -4 11 -6 11 -12 0z"/>
<path d="M11072 4052 c2 -19 9 -27 23 -27 11 0 22 -3 25 -7 11 -15 57 -19 62
-6 15 39 -31 75 -60 46 -8 -8 -12 -8 -12 -1 0 6 -9 13 -21 16 -17 5 -20 1 -17
-21z"/>
<path d="M11190 3969 c0 -11 7 -27 15 -35 8 -9 15 -12 15 -8 0 3 6 1 14 -5 28
-23 25 16 -3 43 -33 31 -41 33 -41 5z"/>
<path d="M11211 3876 l-22 -24 22 -16 c31 -21 42 -20 65 7 17 19 18 25 7 35
-7 7 -13 10 -13 7 0 -3 -8 -1 -19 4 -14 8 -23 5 -40 -13z"/>
<path d="M11354 3803 c-14 -10 -13 -12 6 -18 28 -9 87 2 93 18 6 16 -77 16
-99 0z"/>
<path d="M12190 4079 c0 -24 23 -21 28 4 2 10 -3 17 -12 17 -10 0 -16 -9 -16
-21z"/>
<path d="M12420 4090 c0 -5 5 -10 10 -10 6 0 10 5 10 10 0 6 -4 10 -10 10 -5
0 -10 -4 -10 -10z"/>
<path d="M13075 4040 c-3 -5 -1 -10 4 -10 6 0 11 5 11 10 0 6 -2 10 -4 10 -3
0 -8 -4 -11 -10z"/>
<path d="M5872 3808 c2 -13 8 -23 13 -23 6 0 11 10 13 23 2 15 -2 22 -13 22
-11 0 -15 -7 -13 -22z"/>
<path d="M5970 3816 c0 -17 5 -26 16 -26 10 0 14 7 12 22 -5 32 -28 35 -28 4z"/>
<path d="M6044 3825 c-3 -8 -3 -19 1 -25 11 -18 25 -11 25 15 0 27 -17 34 -26
10z"/>
<path d="M12372 3813 c5 -25 28 -28 28 -4 0 12 -6 21 -16 21 -9 0 -14 -7 -12
-17z"/>
<path d="M4792 3814 c4 -21 22 -23 26 -1 2 10 -3 17 -13 17 -10 0 -15 -6 -13
-16z"/>
<path d="M4982 3788 c2 -12 10 -23 18 -23 22 0 19 39 -3 43 -15 3 -18 -1 -15
-20z"/>
<path d="M5735 3820 c3 -5 10 -10 16 -10 5 0 9 5 9 10 0 6 -7 10 -16 10 -8 0
-12 -4 -9 -10z"/>
<path d="M5516 3791 c-4 -5 -2 -12 3 -15 5 -4 12 -2 15 3 4 5 2 12 -3 15 -5 4
-12 2 -15 -3z"/>
<path d="M12432 3813 c5 -25 28 -28 28 -4 0 12 -6 21 -16 21 -9 0 -14 -7 -12
-17z"/>
<path d="M5246 3813 c-12 -12 -6 -43 9 -43 8 0 15 9 15 19 0 21 -13 34 -24 24z"/>
<path d="M4917 3803 c-13 -12 -7 -43 7 -43 16 0 25 19 18 38 -5 13 -15 16 -25
5z"/>
<path d="M9262 3524 c4 -21 22 -23 26 -1 2 10 -3 17 -13 17 -10 0 -15 -6 -13
-16z"/>
<path d="M9330 3530 c0 -5 5 -10 10 -10 6 0 10 5 10 10 0 6 -4 10 -10 10 -5 0
-10 -4 -10 -10z"/>
<path d="M9335 3500 c-7 -12 2 -30 16 -30 12 0 12 27 0 35 -5 3 -12 1 -16 -5z"/>
<path d="M9394 3536 c-8 -21 3 -66 16 -66 13 0 13 67 0 75 -6 3 -13 -1 -16 -9z"/>
<path d="M9545 3520 c-3 -5 1 -10 10 -10 9 0 13 5 10 10 -3 6 -8 10 -10 10 -2
0 -7 -4 -10 -10z"/>
<path d="M5380 3383 c0 -13 5 -23 10 -23 13 0 13 11 0 30 -8 12 -10 11 -10 -7z"/>
<path d="M5010 3349 c0 -20 4 -29 13 -27 18 7 20 45 3 51 -12 5 -16 -1 -16
-24z"/>
<path d="M4810 3381 c0 -15 6 -21 21 -21 14 0 19 5 17 17 -5 26 -38 29 -38 4z"/>
<path d="M5264 3377 c-8 -21 1 -47 16 -47 19 0 23 31 7 48 -15 14 -17 14 -23
-1z"/>
<path d="M4932 3348 c2 -12 10 -23 18 -23 22 0 19 39 -3 43 -15 3 -18 -1 -15
-20z"/>
<path d="M9420 3150 c0 -13 5 -20 13 -17 6 2 12 10 12 17 0 7 -6 15 -12 18 -8
2 -13 -5 -13 -18z"/>
<path d="M9565 3180 c-3 -5 1 -10 10 -10 9 0 13 5 10 10 -3 6 -8 10 -10 10 -2
0 -7 -4 -10 -10z"/>
<path d="M11145 3150 c-3 -5 1 -10 10 -10 9 0 13 5 10 10 -3 6 -8 10 -10 10
-2 0 -7 -4 -10 -10z"/>
<path d="M11320 3140 c0 -5 5 -10 10 -10 6 0 10 5 10 10 0 6 -4 10 -10 10 -5
0 -10 -4 -10 -10z"/>
<path d="M11615 3130 c-3 -5 1 -10 10 -10 9 0 13 5 10 10 -3 6 -8 10 -10 10
-2 0 -7 -4 -10 -10z"/>
<path d="M11734 3115 c-9 -23 14 -45 26 -25 5 8 8 19 7 24 -6 17 -27 18 -33 1z"/>
<path d="M5390 3025 c0 -8 7 -15 15 -15 8 0 15 7 15 15 0 8 -7 15 -15 15 -8 0
-15 -7 -15 -15z"/>
<path d="M5390 2980 c0 -15 5 -20 18 -18 9 2 17 10 17 18 0 8 -8 16 -17 18
-13 2 -18 -3 -18 -18z"/>
<path d="M4830 2999 c0 -14 5 -19 17 -17 26 5 29 38 4 38 -15 0 -21 -6 -21
-21z"/>
<path d="M5024 2985 c-7 -18 3 -35 22 -35 8 0 14 10 14 25 0 27 -27 35 -36 10z"/>
<path d="M5283 2994 c-8 -21 13 -42 28 -27 13 13 5 43 -11 43 -6 0 -13 -7 -17
-16z"/>
<path d="M4957 2993 c-13 -12 -7 -41 8 -47 18 -6 30 16 21 39 -6 16 -18 19
-29 8z"/>
<path d="M9387 2826 c-4 -10 -5 -21 -2 -24 9 -9 17 6 13 25 -3 17 -4 17 -11
-1z"/>
<path d="M9595 2830 c-3 -5 1 -10 9 -10 9 0 16 5 16 10 0 6 -4 10 -9 10 -6 0
-13 -4 -16 -10z"/>
<path d="M4853 2634 c-8 -21 13 -42 28 -27 13 13 5 43 -11 43 -6 0 -13 -7 -17
-16z"/>
<path d="M5304 2625 c-7 -18 2 -45 15 -45 12 0 24 37 16 50 -9 15 -25 12 -31
-5z"/>
<path d="M4974 2615 c-9 -21 3 -45 21 -45 20 0 20 46 0 54 -9 3 -18 -1 -21 -9z"/>
<path d="M11070 1890 c0 -5 7 -10 15 -10 8 0 15 5 15 10 0 6 -7 10 -15 10 -8
0 -15 -4 -15 -10z"/>
<path d="M11285 1880 c-3 -5 1 -10 10 -10 9 0 13 5 10 10 -3 6 -8 10 -10 10
-2 0 -7 -4 -10 -10z"/>
<path d="M11362 1858 c2 -13 8 -23 13 -23 6 0 11 10 13 23 2 15 -2 22 -13 22
-11 0 -15 -7 -13 -22z"/>
<path d="M11430 1850 c0 -15 5 -20 18 -18 9 2 17 10 17 18 0 8 -8 16 -17 18
-13 2 -18 -3 -18 -18z"/>
<path d="M11618 1853 c7 -3 16 -2 19 1 4 3 -2 6 -13 5 -11 0 -14 -3 -6 -6z"/>
</g>
</svg>
