<?xml version="1.0" standalone="no"?>
<!DOCTYPE svg PUBLIC "-//W3C//DTD SVG 20010904//EN"
 "http://www.w3.org/TR/2001/REC-SVG-20010904/DTD/svg10.dtd">
<svg version="1.0" xmlns="http://www.w3.org/2000/svg"
 width="1536.000000pt" height="1024.000000pt" viewBox="0 0 1536.000000 1024.000000"
 preserveAspectRatio="xMidYMid meet">

<g transform="translate(0.000000,1024.000000) scale(0.100000,-0.100000)"
fill="#000000" stroke="none">
<path d="M0 5120 l0 -5120 7680 0 7680 0 0 5120 0 5120 -7680 0 -7680 0 0
-5120z m5455 4307 c197 -57 357 -190 454 -376 78 -152 82 -174 250 -1447 108
-812 140 -1028 152 -1032 5 -2 23 -15 38 -28 21 -17 43 -25 77 -26 l49 -2 -49
-3 c-38 -3 -55 -11 -79 -35 l-31 -30 22 -177 c27 -211 97 -745 113 -853 8 -56
15 -78 26 -78 7 0 25 -11 39 -25 25 -25 25 -25 237 -27 l212 -2 -212 -5 c-206
-6 -213 -7 -228 -28 -9 -13 -23 -23 -31 -23 -21 0 -17 -51 30 -400 14 -102 43
-327 66 -500 22 -173 56 -432 75 -575 33 -243 39 -304 29 -280 -3 8 -82 591
-115 855 -5 41 -30 221 -54 400 -24 179 -67 507 -95 730 -28 223 -62 488 -76
590 -14 102 -36 271 -50 375 -13 105 -33 255 -44 335 -11 80 -29 215 -40 300
-11 85 -27 198 -35 250 -8 52 -28 201 -44 330 -17 129 -41 316 -55 415 -14 99
-34 250 -45 335 -58 437 -76 521 -138 643 -113 225 -305 367 -535 397 -77 10
-2022 -4 -2818 -19 -424 -9 -437 -10 -527 -35 -146 -40 -220 -84 -293 -172
-22 -27 -46 -48 -52 -46 -6 2 -36 -21 -66 -50 -35 -34 -48 -42 -34 -23 40 58
177 178 267 233 28 17 93 45 145 62 133 45 233 49 1470 59 1521 12 1920 9
1995 -12z m-312 -54 c-106 -2 -280 -2 -385 0 -106 1 -20 2 192 2 212 0 298 -1
193 -2z m-1065 -10 c-86 -2 -230 -2 -320 0 -90 1 -19 3 157 3 176 0 249 -2
163 -3z m-1861 -19 c-3 -3 -12 -4 -19 -1 -8 3 -5 6 6 6 11 1 17 -2 13 -5z
m-70 -10 c-3 -3 -12 -4 -19 -1 -8 3 -5 6 6 6 11 1 17 -2 13 -5z m-50 -10 c-3
-3 -12 -4 -19 -1 -8 3 -5 6 6 6 11 1 17 -2 13 -5z m-87 -29 c-14 -8 -29 -14
-35 -14 -5 0 1 6 15 14 14 8 30 14 35 14 6 0 -1 -6 -15 -14z m-70 -33 c-14 -9
-50 -39 -80 -67 l-55 -49 45 48 c25 27 59 57 75 67 37 23 49 24 15 1z m3115
-234 c2 -7 5 -34 8 -60 3 -36 1 -48 -9 -48 -14 0 -31 76 -25 113 2 12 21 8 26
-5z m199 -3 c29 -22 10 -36 -23 -17 -27 15 -32 15 -65 0 -23 -11 -37 -14 -42
-7 -10 17 29 38 71 38 22 0 48 -6 59 -14z m-3633 -46 c-5 -24 -13 -77 -17
-116 -3 -40 -11 -73 -17 -73 -5 0 -27 -16 -48 -35 -22 -19 -43 -35 -48 -35 -6
0 -12 -19 -14 -42 -2 -24 -4 0 -5 53 -1 60 3 113 13 145 13 43 21 52 65 77 28
15 56 39 62 52 16 36 20 25 9 -26z m3897 4 l3 -43 -84 0 -85 0 -7 36 c-9 49 3
55 95 52 l75 -3 3 -42z m-2989 18 c8 -5 12 -18 8 -30 -3 -12 -1 -24 4 -27 16
-10 9 -43 -11 -49 -23 -7 -63 12 -54 26 4 7 10 7 17 0 16 -16 37 -13 37 4 0 8
-7 15 -15 15 -8 0 -15 5 -15 10 0 6 5 10 10 10 6 0 10 7 10 15 0 18 -21 20
-38 3 -9 -9 -12 -8 -12 4 0 24 33 35 59 19z m106 -21 c27 -52 -1 -103 -45 -80
-23 12 -35 62 -20 89 16 30 47 26 65 -9z m2379 8 c10 -39 7 -68 -8 -68 -14 0
-30 66 -20 82 9 15 22 8 28 -14z m-2684 -12 c0 -13 3 -38 6 -55 4 -18 2 -31
-4 -31 -5 0 -13 20 -16 44 -6 37 -10 44 -24 39 -15 -6 -15 -5 -3 10 20 25 41
21 41 -7z m70 -8 c0 -18 3 -43 6 -55 4 -13 2 -23 -4 -23 -6 0 -14 20 -17 44
-6 36 -10 43 -24 38 -14 -5 -14 -4 -2 11 22 28 41 21 41 -15z m2839 19 c15
-19 3 -29 -20 -16 -13 6 -25 6 -38 -1 -21 -11 -37 2 -26 20 9 15 71 12 84 -3z
m-2789 -11 c0 -11 -19 -15 -25 -6 -3 5 1 10 9 10 9 0 16 -2 16 -4z m2523 -23
c6 -33 3 -38 -18 -30 -19 8 -20 57 -1 57 7 0 16 -12 19 -27z m-43 -13 c0 -11
-7 -20 -15 -20 -8 0 -15 9 -15 20 0 11 7 20 15 20 8 0 15 -9 15 -20z m290 7
c0 -21 -12 -28 -27 -16 -19 16 -16 29 7 29 11 0 20 -6 20 -13z m-2765 -27 c3
-5 -1 -10 -10 -10 -9 0 -13 5 -10 10 3 6 8 10 10 10 2 0 7 -4 10 -10z m-809
-278 c15 -133 15 -177 0 -161 -7 7 -36 257 -36 306 0 27 4 66 8 88 7 38 7 38
9 -20 1 -33 10 -129 19 -213z m6299 94 c333 -113 551 -434 532 -786 -7 -129
-25 -199 -81 -315 -178 -367 -621 -527 -995 -360 l-57 26 -199 -50 c-110 -28
-201 -48 -204 -45 -3 2 18 89 47 193 l52 188 -35 80 c-50 116 -68 201 -68 323
0 128 20 212 77 335 99 209 286 367 506 425 113 30 314 23 425 -14z m-3178
-281 c34 -70 -28 -132 -97 -97 -61 31 -65 107 -9 141 28 17 33 17 60 4 17 -8
37 -30 46 -48z m-633 43 c3 -7 7 -43 10 -80 6 -60 5 -67 -11 -66 -10 0 -26 -3
-35 -6 -46 -20 -82 90 -37 114 15 9 24 8 35 -1 12 -9 14 -6 14 20 0 30 17 43
24 19z m48 -3 c0 -5 -5 -11 -11 -13 -6 -2 -11 4 -11 13 0 9 5 15 11 13 6 -2
11 -8 11 -13z m132 -46 c10 -97 11 -95 -34 -96 -43 -2 -70 22 -70 63 0 28 34
57 58 50 16 -6 19 -3 14 19 -3 18 0 25 10 25 11 0 17 -17 22 -61z m-710 -10
c10 -98 11 -96 -33 -97 -44 -2 -71 23 -71 65 0 28 28 56 51 50 15 -4 19 0 19
19 0 14 6 24 14 24 9 0 15 -20 20 -61z m296 29 c20 -36 5 -62 -39 -66 -28 -3
-32 -7 -29 -29 2 -15 -2 -28 -9 -30 -7 -3 -14 16 -18 54 -3 32 -8 68 -11 81
-4 22 -2 23 43 20 40 -3 50 -7 63 -30z m-686 0 c10 -13 12 -27 7 -36 -6 -10
-4 -21 5 -30 35 -35 5 -72 -60 -72 l-35 0 -6 58 c-3 31 -8 67 -11 80 -4 20 -1
22 40 22 35 0 48 -5 60 -22z m186 -3 c0 -8 7 -15 15 -15 8 0 15 -4 15 -10 0
-5 -4 -10 -10 -10 -16 0 -12 -60 5 -66 14 -6 22 -34 9 -34 -21 0 -43 25 -49
57 -4 21 -12 41 -18 45 -9 6 -8 10 2 17 7 5 10 14 7 20 -4 6 0 11 8 11 9 0 16
-7 16 -15z m1025 -19 c24 -37 16 -79 -18 -90 -23 -8 -31 -6 -48 11 -24 24 -28
65 -9 88 19 23 57 18 75 -9z m104 11 c15 -19 3 -28 -20 -14 -10 6 -21 8 -25 5
-10 -11 6 -28 25 -28 42 0 50 -53 10 -65 -20 -7 -59 10 -59 25 0 13 13 13 27
-1 6 -6 16 -8 22 -5 19 12 12 23 -18 29 -32 7 -47 33 -30 53 15 18 53 18 68 1z
m1488 -9 c-3 -8 -6 -5 -6 6 -1 11 2 17 5 13 3 -3 4 -12 1 -19z m-2307 -8 c31
-31 26 -50 -15 -50 -19 0 -35 -5 -35 -10 0 -16 29 -23 44 -11 17 14 29 2 15
-16 -29 -35 -89 0 -89 52 0 55 42 73 80 35z m305 -10 l16 -30 -41 0 c-42 0
-52 -13 -22 -29 13 -7 23 -6 30 1 17 17 27 1 12 -17 -19 -23 -46 -18 -69 11
-38 48 -22 94 31 94 20 0 31 -8 43 -30z m175 13 c0 -10 3 -35 6 -55 5 -31 4
-38 -10 -38 -11 0 -16 9 -16 33 0 17 -3 42 -6 55 -5 16 -2 22 10 22 9 0 16 -8
16 -17z m-1369 -22 c32 -33 36 -56 14 -88 -14 -20 -14 -22 2 -28 10 -3 30 -17
46 -30 l28 -25 -26 -40 c-14 -23 -31 -43 -38 -45 -7 -2 -61 -5 -120 -8 -104
-4 -108 -3 -103 16 3 11 1 43 -4 71 -16 95 -19 176 -5 176 7 0 18 7 25 15 9
11 32 15 82 15 64 0 72 -3 99 -29z m523 7 c21 -29 20 -57 -1 -80 -21 -24 -42
-23 -70 4 -25 23 -29 48 -13 79 15 27 64 25 84 -3z m2282 1 c10 -17 -13 -36
-27 -22 -12 12 -4 33 11 33 5 0 12 -5 16 -11z m-3455 -76 c-17 -20 -31 -40
-31 -43 0 -3 34 -4 75 -2 49 2 75 0 75 -7 0 -7 -29 -11 -77 -11 l-77 0 47 -48
c26 -27 45 -51 41 -55 -8 -7 -124 91 -124 105 0 20 85 117 94 108 5 -5 -4 -24
-23 -47z m-452 -310 c24 -192 94 -742 156 -1223 62 -481 132 -1023 154 -1205
87 -702 253 -2071 306 -2520 53 -448 112 -943 155 -1291 22 -178 24 -214 11
-214 -4 0 -11 30 -15 67 -4 38 -22 199 -42 358 -19 160 -50 421 -69 580 -105
882 -133 1113 -351 2885 -60 494 -97 781 -175 1370 -16 124 -61 477 -99 785
-38 308 -74 593 -80 633 -12 89 -13 122 -2 122 5 0 28 -156 51 -347z m3916
307 c11 -17 -5 -32 -21 -19 -7 6 -11 15 -8 20 7 12 21 11 29 -1z m5 -94 c-13
-13 -35 7 -25 24 5 8 11 8 21 -1 10 -8 12 -15 4 -23z m-2247 -93 c4 -31 2 -53
-3 -53 -6 0 -10 20 -10 44 0 24 -3 53 -6 63 -5 12 -4 15 3 8 6 -5 13 -34 16
-62z m37 57 c0 -5 -5 -10 -11 -10 -5 0 -7 5 -4 10 3 6 8 10 11 10 2 0 4 -4 4
-10z m172 -37 c26 -23 22 -33 -13 -33 -20 0 -29 -4 -26 -12 2 -7 17 -12 32
-11 20 2 25 -1 18 -8 -6 -6 -21 -9 -34 -7 -38 5 -38 86 0 88 3 0 13 -7 23 -17z
m86 5 c12 -17 21 -78 10 -78 -4 0 -8 9 -8 20 0 13 -7 20 -20 20 -22 0 -28 -26
-7 -33 7 -2 6 -3 -3 -3 -25 2 -18 41 8 44 29 4 22 28 -7 25 -13 -2 -20 1 -16
7 9 14 31 13 43 -2z m-480 -10 c22 -22 13 -38 -19 -38 -27 0 -30 -2 -18 -16 7
-9 21 -13 32 -10 14 3 17 2 9 -6 -16 -16 -51 1 -58 28 -10 41 27 69 54 42z
m95 5 c11 -19 18 -88 9 -78 -6 6 -12 23 -14 40 -2 19 -9 31 -20 33 -15 3 -18
-4 -19 -40 0 -33 -2 -38 -9 -23 -5 11 -9 31 -9 45 -1 21 4 26 28 28 16 1 32
-1 34 -5z m129 -33 c2 -22 1 -40 -3 -40 -4 0 -9 18 -11 40 -2 22 -1 40 3 40 4
0 9 -18 11 -40z m89 13 c5 -14 8 -34 6 -42 -2 -9 -7 1 -11 22 -6 26 -13 37
-27 37 -13 0 -19 -9 -21 -37 l-3 -38 -5 41 c-5 38 -4 40 23 42 21 2 30 -3 38
-25z m2566 -235 c-3 -8 -6 -5 -6 6 -1 11 2 17 5 13 3 -3 4 -12 1 -19z m-4454
-70 c3 -13 13 -85 23 -161 12 -103 14 -141 5 -150 -8 -8 -11 2 -11 39 0 27 -7
99 -15 159 -8 61 -15 114 -15 118 0 5 -5 5 -12 1 -7 -4 -8 -3 -4 4 11 19 23
14 29 -10z m1007 -319 c5 -32 8 -34 49 -39 30 -3 47 -11 55 -25 6 -11 17 -24
24 -28 14 -9 16 -67 2 -67 -5 0 -10 -15 -10 -34 l0 -33 -92 -6 c-94 -6 -128 2
-128 28 0 9 -9 23 -20 32 -20 18 -28 73 -10 73 6 0 10 8 10 18 0 27 20 42 56
42 35 0 52 23 33 46 -6 7 -8 18 -4 24 12 20 30 4 35 -31z m979 -34 c36 -50 51
-57 51 -21 0 13 7 29 15 36 17 14 17 14 20 -20 1 -14 6 -50 10 -81 7 -50 5
-59 -14 -78 -33 -33 -69 -27 -133 24 -54 42 -71 65 -49 65 6 0 13 -4 16 -10 3
-5 11 -10 18 -10 6 0 -4 13 -23 29 -41 34 -36 51 6 19 26 -19 26 -18 -5 15
-35 37 -37 64 -3 34 26 -24 39 -21 17 3 -10 11 -15 23 -11 28 4 4 23 -11 42
-33 36 -43 48 -41 14 2 -11 14 -20 30 -20 34 0 20 19 6 49 -36z m-429 -9 c0
-12 3 -51 6 -85 5 -41 3 -61 -4 -61 -6 0 -13 19 -16 43 -14 118 -14 127 0 127
8 0 14 -10 14 -24z m180 -8 c0 -18 3 -43 6 -55 4 -14 2 -23 -4 -23 -6 0 -14
17 -17 38 -4 20 -9 45 -12 55 -3 11 1 17 11 17 11 0 16 -10 16 -32z m-472 -16
c3 -30 6 -32 44 -32 40 0 40 0 36 35 -3 24 0 35 9 35 7 0 13 -10 14 -22 0 -13
4 -49 8 -81 4 -32 4 -60 0 -63 -9 -5 -19 21 -19 52 0 21 -4 24 -40 24 l-40 0
0 -40 c0 -55 -16 -50 -24 8 -4 26 -9 64 -12 86 -5 30 -3 37 7 34 8 -3 15 -19
17 -36z m400 -9 c13 -12 22 -35 25 -63 l4 -46 -43 -2 c-35 -1 -46 3 -54 19
-15 26 0 44 42 53 30 6 31 7 15 23 -13 13 -19 15 -29 5 -7 -7 -19 -12 -27 -12
-12 1 -10 6 8 20 29 24 34 25 59 3z m-159 -25 c18 -32 6 -81 -22 -86 -59 -12
-103 47 -71 95 21 34 72 29 93 -9z m249 -69 c-2 -6 -8 -10 -13 -10 -5 0 -11 4
-13 10 -2 6 4 11 13 11 9 0 15 -5 13 -11z m-1668 -133 c0 -3 -4 -8 -10 -11 -5
-3 -10 -1 -10 4 0 6 5 11 10 11 6 0 10 -2 10 -4z m55 -273 c15 -122 25 -232
23 -245 -2 -13 -9 27 -16 87 -8 61 -22 177 -33 259 -21 160 -22 185 -9 146 5
-14 20 -125 35 -247z m11500 208 c129 -58 163 -233 64 -332 -60 -60 -152 -74
-229 -34 -61 31 -110 114 -110 185 0 144 146 240 275 181z m-9925 -21 c0 -27
2 -30 19 -20 41 21 71 -16 71 -86 0 -50 -17 -42 -23 12 -5 51 -18 70 -41 61
-12 -5 -16 -20 -16 -57 0 -68 -17 -63 -25 8 -3 31 -9 69 -11 85 -4 20 -2 27
10 27 11 0 16 -9 16 -30z m6307 24 c14 -4 27 -20 35 -40 l12 -34 177 0 c98 0
180 -4 183 -8 5 -9 -34 -159 -47 -179 -6 -9 -46 -13 -141 -13 -73 0 -135 -3
-139 -6 -3 -3 -3 -12 0 -20 4 -11 34 -14 144 -14 117 0 139 -2 139 -15 0 -8
-7 -15 -15 -15 -12 0 -11 -4 5 -20 20 -20 18 -47 -4 -62 -21 -14 -55 -8 -66
11 -14 27 -13 37 6 55 14 15 6 16 -83 16 -71 -1 -93 -3 -80 -11 25 -14 22 -65
-4 -79 -16 -9 -26 -8 -45 5 -27 18 -30 33 -10 60 11 16 11 21 1 30 -7 5 -20
53 -29 105 -37 210 -33 200 -72 200 -22 0 -34 5 -34 13 0 27 21 33 67 21z
m-6777 -19 c0 -8 -4 -15 -9 -15 -13 0 -22 16 -14 24 11 11 23 6 23 -9z m-206
-26 c27 -31 34 -81 16 -109 -5 -9 -5 -19 1 -27 9 -10 -1 -11 -43 -7 -68 8 -98
37 -98 96 0 52 22 78 66 78 24 0 39 -8 58 -31z m1131 1 c14 -16 15 -20 4 -20
-8 0 -20 5 -27 12 -9 10 -16 8 -29 -5 -23 -23 -7 -71 25 -75 12 -2 22 1 22 7
0 6 5 11 10 11 16 0 11 -27 -6 -34 -44 -17 -84 10 -84 57 0 58 50 86 85 47z
m117 8 c9 -7 19 -23 23 -35 6 -21 3 -23 -34 -23 -30 0 -41 -4 -41 -15 0 -22
29 -30 52 -16 11 7 22 10 24 8 9 -8 -27 -37 -46 -37 -24 0 -60 46 -60 76 0 44
48 69 82 42z m108 2 c0 -4 -7 -10 -15 -14 -10 -4 -15 -20 -15 -51 0 -25 -4
-45 -10 -45 -5 0 -10 10 -10 23 0 12 -3 38 -6 58 -6 35 -5 36 25 37 17 0 31
-3 31 -8z m-491 -9 c16 -10 32 -109 19 -117 -4 -3 -8 0 -8 6 0 8 -6 8 -20 0
-25 -14 -56 -5 -65 18 -7 20 27 52 57 52 11 0 18 5 16 13 -6 17 -39 21 -49 6
-10 -17 -23 -4 -16 16 7 16 44 20 66 6z m141 -6 c17 -21 7 -29 -18 -14 -41 25
-67 -14 -42 -62 13 -23 28 -24 51 -3 11 10 19 12 23 5 4 -6 -5 -18 -19 -27
-25 -16 -27 -16 -53 3 -30 22 -41 75 -21 99 15 19 63 18 79 -1z m-790 -66 c0
-32 -4 -59 -9 -59 -9 0 -23 109 -15 122 13 21 24 -8 24 -63z m115 46 c35 -34
31 -45 -14 -45 -43 0 -54 -8 -41 -29 5 -9 18 -12 39 -8 34 7 43 -8 10 -18 -36
-12 -66 3 -78 36 -11 32 -9 41 17 72 21 23 38 21 67 -8z m105 14 c0 -4 -7 -9
-15 -13 -11 -4 -15 -20 -15 -56 0 -59 -15 -67 -24 -12 -12 76 -9 89 24 89 17
0 30 -4 30 -8z m119 -15 c26 -33 27 -58 1 -84 -26 -26 -46 -25 -75 5 -29 28
-32 61 -8 87 23 26 58 22 82 -8z m-479 -22 c0 -47 19 -76 44 -66 14 6 17 16
14 55 -2 34 1 49 10 49 7 0 12 -12 12 -29 0 -16 3 -42 6 -59 5 -26 3 -31 -12
-31 -11 1 -28 -2 -39 -6 -30 -9 -51 21 -58 78 -3 36 -1 47 9 47 10 0 14 -12
14 -38z m8210 -44 c0 -29 3 -83 7 -120 6 -65 5 -68 -16 -68 -11 0 -21 5 -21
12 0 9 -3 9 -12 0 -7 -7 -24 -12 -39 -12 -57 0 -91 94 -53 148 17 24 62 30 82
10 9 -9 12 -2 12 35 0 40 3 47 20 47 17 0 20 -7 20 -52z m69 38 c8 -10 8 -16
-2 -24 -17 -14 -42 2 -34 22 8 20 21 20 36 2z m185 -32 c11 -84 7 -194 -7
-194 -7 0 -18 5 -24 11 -8 8 -13 8 -17 0 -11 -17 -51 -13 -76 7 -31 25 -39 99
-13 131 19 23 54 30 84 17 13 -6 16 -2 12 18 -7 32 2 56 20 56 9 0 17 -16 21
-46z m764 29 c5 -17 -26 -29 -40 -15 -6 6 -7 15 -3 22 9 14 37 9 43 -7z m68
-22 c6 -37 8 -39 30 -29 55 25 107 -47 84 -116 -11 -34 -52 -62 -72 -50 -6 4
-26 7 -44 6 l-33 -1 -3 110 c-2 61 -1 113 1 115 15 15 32 -1 37 -35z m182 22
c5 -17 -26 -29 -40 -15 -6 6 -7 15 -3 22 9 14 37 9 43 -7z m182 -97 l0 -114
-59 -1 c-68 -1 -88 15 -98 73 -10 64 45 114 96 86 20 -10 21 -8 21 30 0 33 3
40 20 40 19 0 20 -7 20 -114z m-1810 84 c13 -13 20 -33 20 -59 0 -48 -26 -71
-82 -71 -38 0 -38 0 -38 -41 0 -33 -3 -40 -17 -37 -16 3 -18 18 -21 116 l-3
112 61 0 c47 0 64 -4 80 -20z m-1353 -32 c-3 -7 -5 -2 -5 12 0 14 2 19 5 13 2
-7 2 -19 0 -25z m2131 -34 c30 -34 30 -87 -3 -119 -69 -70 -176 32 -119 113
33 47 82 49 122 6z m212 10 c0 -8 -6 -14 -14 -14 -33 0 -48 -31 -41 -81 6 -45
5 -49 -14 -49 -20 0 -21 5 -21 80 0 64 3 80 15 80 8 0 15 -5 15 -11 0 -6 9 -4
22 5 23 17 38 13 38 -10z m113 15 c25 -11 47 -47 47 -74 0 -11 -14 -15 -55
-15 -58 0 -71 -14 -40 -40 12 -10 21 -10 41 -1 14 6 32 11 42 11 14 0 13 -4
-6 -22 -30 -31 -88 -30 -113 1 -35 42 -21 123 24 141 30 12 32 12 60 -1z m170
0 c39 -21 49 -49 17 -49 -11 0 -20 5 -20 11 0 6 -12 9 -27 7 -25 -3 -28 -8
-31 -43 -4 -51 19 -73 55 -49 13 8 31 14 40 12 13 -3 12 -7 -5 -27 -14 -19
-29 -25 -57 -25 -49 0 -75 30 -75 89 0 35 5 48 26 64 30 24 46 26 77 10z m355
-77 c3 -77 2 -82 -18 -82 -19 0 -20 6 -20 86 0 76 2 85 18 82 14 -3 17 -16 20
-86z m337 63 c53 -52 21 -145 -49 -145 -53 0 -79 28 -79 85 0 38 4 52 22 67
33 26 77 23 106 -7z m-1796 -11 c26 -33 29 -79 5 -70 -23 9 -95 -5 -91 -17 8
-24 35 -31 62 -17 36 19 56 -1 24 -24 -59 -41 -129 -2 -129 72 0 75 85 112
129 56z m265 -11 c3 -21 6 -59 6 -85 0 -41 -3 -48 -20 -48 -18 0 -20 7 -20 85
0 65 3 85 14 85 8 0 16 -15 20 -37z m946 -43 c0 -73 -2 -80 -20 -80 -18 0 -20
7 -20 80 0 73 2 80 20 80 18 0 20 -7 20 -80z m-2782 48 c7 -7 12 -21 12 -33 0
-16 -6 -20 -27 -19 -31 1 -42 26 -23 49 15 18 22 19 38 3z m49 -90 c-3 -8 -6
-5 -6 6 -1 11 2 17 5 13 3 -3 4 -12 1 -19z m-5947 -39 c0 -5 -4 -9 -10 -9 -5
0 -10 7 -10 16 0 8 5 12 10 9 6 -3 10 -10 10 -16z m135 -46 c4 -38 7 -74 8
-82 2 -11 -10 -15 -43 -15 -40 -1 -46 2 -59 28 -21 45 -5 81 37 81 28 0 32 3
32 27 0 56 19 26 25 -39z m-179 -22 c8 -69 8 -79 -6 -79 -8 0 -25 -3 -37 -7
-15 -5 -27 -1 -42 14 -42 42 -16 119 35 107 21 -6 24 -3 24 19 0 14 4 25 9 25
4 0 12 -36 17 -79z m294 29 c29 -29 27 -87 -4 -101 -38 -18 -86 22 -86 72 0
14 38 49 55 49 8 0 24 -9 35 -20z m-246 -6 c10 -26 7 -104 -4 -104 -5 0 -10
20 -10 44 0 24 -3 51 -6 60 -3 9 -2 16 4 16 5 0 13 -7 16 -16z m-510 -7 c21
-15 36 -117 19 -117 -6 0 -13 21 -16 46 -5 52 -16 67 -40 58 -13 -5 -17 -19
-17 -55 0 -27 -4 -49 -10 -49 -5 0 -10 13 -10 29 0 16 -3 43 -7 61 -5 27 -3
32 9 28 8 -4 21 -2 29 3 19 12 22 11 43 -4z m200 -9 c34 -49 11 -105 -39 -96
-21 4 -25 1 -25 -18 0 -45 -17 -24 -24 29 -11 99 -11 102 33 105 31 2 43 -2
55 -20z m126 3 c16 -32 12 -38 -31 -45 -25 -4 -39 -11 -36 -19 5 -17 45 -21
63 -7 17 15 19 -1 2 -18 -17 -17 -48 -15 -70 5 -20 18 -24 73 -6 91 19 19 66
15 78 -7z m-512 -37 c4 -51 18 -67 44 -53 17 9 19 17 13 55 -3 26 -2 44 3 44
12 0 22 -35 22 -81 0 -35 -1 -36 -39 -37 -47 -2 -56 8 -65 71 -4 36 -3 48 7
45 6 -3 13 -22 15 -44z m1722 11 c7 -9 10 -18 7 -22 -4 -3 -2 -15 4 -25 8 -16
7 -24 -4 -35 -16 -16 -57 -10 -57 9 0 7 5 6 15 -2 8 -6 19 -9 25 -5 16 10 12
35 -7 35 -15 0 -14 2 3 14 15 12 17 17 7 27 -10 10 -16 10 -25 1 -17 -17 -33
-15 -18 3 16 19 34 19 50 0z m88 3 c16 -16 15 -85 0 -91 -22 -8 -46 12 -53 43
-10 47 24 77 53 48z m-276 -48 c1 -28 0 -50 -4 -50 -5 0 -8 18 -8 41 0 32 -3
40 -15 35 -15 -5 -20 5 -8 17 19 19 31 3 35 -43z m62 34 c3 -9 6 -32 5 -52 -1
-41 -4 -36 -14 21 -4 24 -10 35 -17 31 -7 -4 -8 -3 -4 4 10 17 23 15 30 -4z
m46 -4 c0 -5 -5 -10 -11 -10 -5 0 -7 5 -4 10 3 6 8 10 11 10 2 0 4 -4 4 -10z
m5 -60 c3 -5 1 -10 -4 -10 -6 0 -11 5 -11 10 0 6 2 10 4 10 3 0 8 -4 11 -10z
m-2461 -64 c-3 -9 -10 -16 -15 -16 -5 0 -4 9 3 20 14 22 21 20 12 -4z m59
-269 c3 -28 17 -142 32 -251 25 -203 28 -233 21 -225 -5 4 -62 431 -68 499 -2
23 -8 34 -16 32 -8 -1 -11 2 -7 8 13 21 32 -10 38 -63z m2375 -230 c6 -5 12
-16 12 -24 0 -11 -6 -10 -26 6 -59 46 -97 -32 -46 -91 20 -24 37 -23 61 3 11
12 21 16 25 10 9 -14 -30 -51 -54 -51 -27 0 -67 40 -76 75 -17 66 50 113 104
72z m67 -64 c4 -45 3 -73 -3 -73 -10 0 -22 69 -22 128 0 61 17 22 25 -55z
m-417 -11 c5 -40 5 -75 1 -78 -12 -7 -16 7 -24 91 -9 103 10 91 23 -13z m162
30 c5 -50 -3 -71 -13 -34 -16 55 -18 94 -5 90 7 -3 15 -26 18 -56z m-339 26
c0 -13 4 -49 8 -80 5 -45 4 -58 -6 -58 -8 0 -13 13 -13 36 0 35 -1 35 -37 32
-35 -3 -38 -6 -39 -33 -2 -46 -3 -50 -13 -39 -12 13 -24 154 -13 154 5 0 12
-13 16 -30 5 -27 10 -30 41 -30 33 0 35 2 35 35 0 38 19 50 21 13z m688 -7 c7
-5 16 -31 18 -57 l5 -49 -35 -2 c-64 -5 -77 55 -14 67 21 4 24 8 17 20 -8 12
-13 13 -30 3 -25 -16 -30 -16 -30 1 0 23 43 34 69 17z m101 -1 c0 -4 -10 -10
-21 -13 -19 -5 -21 -11 -15 -46 3 -22 2 -42 -3 -45 -9 -6 -21 40 -21 84 0 23
4 27 30 28 17 0 30 -3 30 -8z m100 -9 c35 -67 -32 -129 -77 -73 -16 20 -17 64
-1 80 19 19 66 15 78 -7z m-606 -20 c3 -9 8 -34 12 -55 6 -33 4 -38 -8 -33 -9
3 -20 1 -24 -3 -13 -13 -52 -1 -59 18 -7 18 27 52 51 52 8 0 14 4 14 9 0 13
-28 22 -35 11 -4 -6 -14 -10 -23 -10 -14 1 -13 4 5 19 26 22 60 17 67 -8z
m-164 -1 c37 -37 19 -100 -29 -100 -32 0 -46 13 -56 53 -5 20 -2 33 10 47 23
25 50 25 75 0z m-270 -6 c0 -9 -5 -14 -12 -12 -18 6 -21 28 -4 28 9 0 16 -7
16 -16z m0 -44 c0 -5 0 -11 0 -12 1 -2 5 -20 9 -40 7 -30 6 -38 -5 -38 -9 0
-14 12 -14 34 0 19 -3 41 -6 50 -3 9 -1 16 5 16 6 0 11 -4 11 -10z m1100 -19
c0 -11 -4 -23 -10 -26 -6 -4 -10 5 -10 19 0 14 5 26 10 26 6 0 10 -9 10 -19z
m-600 -6 c0 -8 -4 -15 -10 -15 -5 0 -10 7 -10 15 0 8 5 15 10 15 6 0 10 -7 10
-15z m1026 -201 l7 -71 -29 -6 c-40 -7 -62 8 -70 48 -8 43 10 69 43 62 20 -4
23 0 23 26 0 58 19 14 26 -59z m35 73 c-1 -12 -15 -9 -19 4 -3 6 1 10 8 8 6
-3 11 -8 11 -12z m167 1 c17 -17 14 -50 -7 -75 -11 -13 -22 -23 -25 -23 -12 0
-6 28 9 40 8 7 15 19 15 27 0 23 -30 27 -45 7 -14 -18 -14 -18 -15 3 0 31 44
45 68 21z m-1330 -40 c-2 -6 -10 -14 -16 -16 -7 -2 -10 2 -6 12 7 18 28 22 22
4z m196 -28 c3 -22 9 -58 12 -80 4 -26 2 -40 -5 -40 -6 0 -11 5 -11 12 0 9 -3
9 -12 0 -29 -29 -63 -8 -74 45 -7 37 18 67 51 59 19 -5 22 -2 17 19 -2 14 0
25 6 25 6 0 13 -18 16 -40z m1052 27 c4 -4 -1 -9 -10 -13 -11 -4 -16 -19 -16
-50 0 -24 -4 -44 -10 -44 -5 0 -10 10 -10 23 0 12 -3 39 -6 59 -6 35 -5 37 20
34 14 -1 29 -6 32 -9z m8284 -17 c114 -58 144 -218 59 -315 -121 -138 -349
-44 -349 145 1 151 152 240 290 170z m-8625 -34 c12 -35 -3 -60 -39 -64 -18
-2 -26 -9 -26 -23 0 -39 -19 -17 -25 29 -3 26 -8 60 -10 76 -4 21 -1 27 8 23
8 -3 20 -1 28 4 19 11 52 -12 64 -45z m101 29 c21 -32 11 -45 -34 -45 -34 0
-35 -1 -19 -17 15 -15 20 -16 38 -5 18 12 20 11 17 -5 -2 -11 -14 -19 -30 -21
-47 -6 -77 67 -42 102 23 23 51 20 70 -9z m168 -26 c7 -50 3 -69 -10 -56 -4 4
-9 29 -12 57 -6 67 13 66 22 -1z m-560 28 c11 -8 20 -31 23 -59 l5 -46 -43 2
c-38 1 -44 4 -47 24 -3 18 3 26 27 35 17 6 31 15 31 19 0 15 -21 19 -36 7 -8
-6 -18 -9 -22 -5 -4 4 2 14 12 22 24 17 28 17 50 1z m104 1 c19 -19 14 -29 -8
-16 -15 10 -22 10 -31 1 -10 -10 -8 -14 7 -18 36 -12 49 -22 52 -43 4 -23 -26
-37 -58 -27 -32 10 -23 25 10 19 40 -8 40 13 1 27 -34 12 -46 35 -30 55 14 17
41 18 57 2z m-320 -10 c19 -19 14 -29 -8 -16 -15 10 -22 10 -31 1 -9 -9 -3
-15 25 -27 30 -12 37 -20 34 -38 -4 -29 -48 -37 -69 -12 -13 16 -12 17 6 10
32 -12 37 -12 42 2 3 7 -8 17 -25 23 -37 13 -46 33 -26 54 19 18 36 19 52 3z
m114 -5 c27 -24 22 -43 -11 -43 -34 0 -49 -16 -32 -33 9 -9 17 -8 32 1 25 16
37 8 19 -13 -19 -23 -46 -18 -69 12 -43 53 11 121 61 76z m-202 -12 c17 -32
12 -41 -25 -41 -23 0 -35 -5 -35 -14 0 -18 30 -30 44 -16 13 13 26 13 26 0 0
-5 -9 -14 -21 -20 -43 -24 -95 42 -69 89 14 28 65 29 80 2z m-458 -46 c2 -32
7 -40 23 -40 17 0 21 9 26 50 6 55 14 45 24 -25 l6 -46 -41 -1 c-45 -2 -57 11
-60 67 -3 49 -2 56 9 45 5 -6 11 -28 13 -50z m172 33 c23 -32 20 -38 -19 -38
-25 0 -35 -4 -35 -15 0 -20 28 -31 43 -16 14 14 27 14 27 1 0 -6 -11 -16 -25
-22 -22 -10 -29 -8 -50 12 -27 25 -33 68 -13 88 19 19 55 14 72 -10z m-364 -3
c0 -8 -4 -15 -9 -15 -13 0 -22 16 -14 24 11 11 23 6 23 -9z m144 -29 c12 -94
12 -107 5 -112 -4 -2 -10 10 -14 26 -6 25 -9 29 -21 19 -19 -16 -59 11 -68 46
-11 42 9 65 54 63 38 -1 39 -2 44 -42z m1951 18 c21 -22 17 -88 -6 -92 -38 -7
-66 67 -37 96 16 16 23 15 43 -4z m157 -18 c-17 -28 -18 -35 -6 -40 9 -3 22 9
36 34 13 22 27 40 31 40 9 0 7 -3 -30 -63 -20 -32 -27 -36 -39 -27 -11 10 -17
10 -30 0 -13 -11 -19 -10 -37 8 -12 12 -16 22 -10 22 7 0 15 -4 18 -10 11 -18
24 -10 47 30 13 22 27 40 31 40 5 0 0 -15 -11 -34z m4226 17 c18 -16 21 -35
27 -153 6 -123 5 -137 -12 -152 -15 -14 -51 -17 -226 -20 -253 -4 -237 -13
-237 141 0 58 -3 116 -6 128 -4 15 2 29 20 47 l25 26 194 0 c171 0 197 -2 215
-17z m-4640 -73 c0 -32 -1 -31 -11 13 -7 27 -15 45 -19 41 -5 -4 -8 -2 -8 4 0
5 6 12 13 15 14 5 25 -25 25 -73z m62 25 c4 -25 3 -45 -2 -45 -4 0 -8 11 -8
24 0 33 -10 57 -21 50 -5 -3 -9 -1 -9 5 0 10 22 21 29 15 2 -2 7 -24 11 -49z
m116 30 c1 -11 4 -28 8 -37 4 -9 5 -22 1 -28 -8 -13 -52 -13 -60 0 -4 7 2 9
18 5 33 -9 43 10 15 29 -18 13 -19 16 -5 16 9 0 17 4 17 9 0 17 -20 23 -35 11
-8 -7 -15 -8 -15 -3 0 31 54 29 56 -2z m-356 0 c0 -8 -4 -15 -10 -15 -5 0 -10
7 -10 15 0 8 5 15 10 15 6 0 10 -7 10 -15z m-1675 -48 c-14 -22 -14 -25 0 -37
13 -11 19 -10 35 5 16 14 20 15 20 4 0 -40 -46 -51 -76 -18 -15 16 -16 23 -6
37 7 9 17 28 24 42 9 20 12 22 15 8 2 -9 -3 -28 -12 -41z m1955 43 c0 -5 -2
-10 -4 -10 -3 0 -8 5 -11 10 -3 6 -1 10 4 10 6 0 11 -4 11 -10z m6348 -8 c2
-7 -5 -16 -17 -19 -27 -7 -28 -33 -1 -33 11 0 20 -7 20 -15 0 -9 -9 -15 -21
-15 -20 0 -21 -3 -14 -70 7 -67 6 -70 -14 -70 -19 0 -21 6 -21 65 0 49 -4 67
-15 71 -17 7 -21 34 -5 34 6 0 10 7 10 15 0 39 67 70 78 37z m59 2 c9 -23 -13
-40 -32 -24 -12 10 -13 16 -4 26 15 18 28 18 36 -2z m723 -102 l5 -114 -27 6
c-15 3 -30 1 -33 -4 -10 -16 -41 -11 -69 11 -22 17 -26 29 -26 68 0 61 23 85
75 79 35 -4 35 -4 35 35 0 31 3 38 18 35 15 -3 18 -19 22 -116z m-2021 72 c12
-15 21 -38 21 -51 0 -36 -42 -73 -85 -73 -34 0 -35 -1 -35 -40 0 -33 -3 -40
-20 -40 -18 0 -20 7 -20 69 0 37 -3 89 -6 115 l-7 46 66 0 c59 0 68 -3 86 -26z
m150 -41 c17 -14 23 -34 28 -86 6 -68 6 -69 -18 -66 -13 1 -36 -1 -51 -5 -51
-15 -91 32 -62 72 7 11 29 23 49 26 41 8 49 36 11 36 -14 0 -28 -4 -31 -10 -3
-5 -13 -10 -21 -10 -24 0 -12 33 16 47 34 17 54 16 79 -4z m141 8 c8 -6 19 -7
25 -3 33 21 45 -9 45 -119 0 -76 -22 -104 -80 -104 -30 0 -46 6 -56 20 -21 28
-2 39 33 18 26 -14 33 -15 47 -4 9 7 16 23 16 34 0 16 -3 18 -12 9 -37 -37
-108 12 -108 73 0 25 8 44 25 60 26 27 41 30 65 16z m221 -20 c45 -46 34 -118
-22 -141 -72 -30 -138 57 -98 131 23 45 80 49 120 10z m247 2 c24 -24 25 -28
9 -31 -10 -2 -27 4 -38 14 -29 26 -54 8 -54 -41 0 -48 22 -65 58 -46 37 20 53
10 30 -18 -14 -18 -29 -24 -54 -23 -71 2 -106 96 -54 147 32 33 69 32 103 -2z
m164 7 c30 -23 40 -62 26 -102 -12 -32 -35 -48 -73 -48 -41 0 -63 17 -74 56
-12 43 -1 76 31 98 30 21 60 20 90 -4z m88 10 c0 -6 9 -5 24 1 31 14 73 4 80
-19 2 -9 8 -45 11 -79 6 -58 5 -63 -13 -63 -16 0 -20 9 -25 61 -6 69 -18 89
-45 73 -12 -8 -18 -28 -20 -73 -3 -53 -6 -61 -22 -61 -18 0 -20 7 -20 85 0 69
3 85 15 85 8 0 15 -4 15 -10z m290 -76 c0 -76 -2 -85 -17 -82 -15 3 -18 16
-21 86 -3 77 -2 82 18 82 19 0 20 -6 20 -86z m70 74 c0 -9 3 -9 12 0 18 18 38
14 38 -7 0 -13 -8 -21 -22 -23 -21 -3 -23 -9 -26 -65 -2 -44 -7 -63 -16 -63
-15 0 -26 51 -26 123 0 40 3 47 20 47 11 0 20 -5 20 -12z m110 0 c0 -9 3 -9
12 0 7 7 21 12 33 12 12 0 26 -5 33 -12 9 -9 15 -9 24 0 7 7 24 12 39 12 41 0
59 -33 59 -108 0 -55 -2 -63 -17 -60 -15 3 -19 16 -21 65 -2 51 -6 63 -22 68
-33 10 -40 -3 -40 -71 0 -48 -4 -64 -14 -64 -15 0 -26 42 -26 97 0 41 -26 56
-47 27 -10 -13 -12 -33 -8 -66 6 -39 4 -49 -9 -54 -9 -4 -18 -5 -20 -3 -2 2
-6 41 -9 87 -6 77 -5 82 13 82 11 0 20 -5 20 -12z m343 -5 c9 -11 17 -42 19
-80 3 -61 2 -63 -22 -62 -14 0 -38 -3 -53 -7 -30 -7 -67 17 -67 44 0 27 32 52
67 52 23 0 33 5 33 15 0 21 -29 31 -51 17 -25 -16 -39 -15 -39 3 0 34 85 48
113 18z m357 -3 c14 -14 20 -33 20 -64 0 -37 -5 -48 -27 -66 -33 -26 -79 -21
-105 11 -22 26 -23 87 -2 117 20 29 85 31 114 2z m-3610 -46 c0 -41 -42 -26
-45 17 -1 11 5 14 22 11 16 -3 23 -11 23 -28z m-2803 -236 c-3 -8 -6 -5 -6 6
-1 11 2 17 5 13 3 -3 4 -12 1 -19z m973 -68 c26 -48 -35 -80 -83 -43 l-22 16
20 24 c25 29 70 31 85 3z m-963 -27 c-3 -10 -5 -4 -5 12 0 17 2 24 5 18 2 -7
2 -21 0 -30z m10 -55 c-3 -7 -5 -2 -5 12 0 14 2 19 5 13 2 -7 2 -19 0 -25z
m-1997 -208 c0 -27 2 -30 19 -20 26 13 27 13 51 -12 42 -46 15 -106 -47 -105
-27 0 -33 4 -33 22 0 12 -3 50 -6 84 -5 43 -3 61 5 61 6 0 11 -14 11 -30z
m910 -12 c0 -9 -3 -9 -12 0 -16 16 -38 15 -38 -1 0 -7 14 -18 31 -24 24 -9 30
-17 27 -35 -2 -18 -10 -24 -34 -26 -21 -2 -33 2 -37 12 -7 19 4 21 21 4 9 -9
15 -9 23 -1 15 15 3 33 -21 33 -11 0 -24 9 -30 19 -8 16 -6 23 12 35 23 16 58
6 58 -16z m-2367 -4 c15 -8 27 -16 27 -18 0 -3 3 -12 7 -22 4 -12 3 -15 -5
-10 -8 5 -10 2 -6 -8 5 -13 -2 -16 -35 -16 -23 0 -41 -4 -41 -9 0 -4 11 -6 25
-3 31 6 33 -6 3 -18 l-23 -9 22 0 c12 -1 27 7 32 17 6 9 10 13 11 7 0 -16 -13
-29 -48 -49 -25 -13 -37 -15 -45 -7 -6 6 -28 11 -49 11 -46 0 -51 17 -5 23 24
3 21 4 -10 3 -32 -1 -39 2 -31 11 7 9 7 13 -1 13 -16 0 -14 42 4 68 29 41 104
48 168 16z m947 -8 c9 -25 4 -41 -28 -83 l-24 -33 36 0 c20 0 36 -4 36 -10 0
-5 -22 -10 -50 -10 -56 0 -64 14 -29 46 12 10 27 31 35 46 12 23 12 29 -1 42
-18 17 -45 11 -45 -10 0 -8 -4 -14 -10 -14 -20 0 -10 41 12 49 31 11 58 2 68
-23z m104 9 c5 -20 11 -24 29 -19 14 3 28 0 35 -9 16 -19 28 -107 15 -107 -6
0 -13 19 -16 41 -6 48 -19 64 -43 55 -14 -5 -16 -15 -11 -51 4 -26 3 -45 -3
-45 -9 0 -14 24 -24 113 -6 49 7 65 18 22z m1107 8 c13 -15 11 -16 -13 -10
-41 11 -44 -10 -3 -27 37 -16 45 -36 21 -56 -18 -14 -58 -10 -64 7 -2 9 5 11
29 6 24 -5 31 -3 27 8 -2 7 -15 16 -28 19 -32 8 -47 34 -31 54 17 21 45 20 62
-1z m105 5 c4 -7 11 -31 14 -54 6 -41 6 -42 -24 -47 -38 -5 -53 0 -60 20 -8
19 9 41 35 45 30 5 18 23 -14 21 -23 -1 -26 1 -16 13 14 17 55 18 65 2z m-424
-18 c4 -8 7 -41 7 -72 1 -47 -2 -59 -19 -68 -22 -12 -60 2 -60 21 0 6 7 6 20
-1 23 -12 40 -6 40 15 0 8 -7 11 -20 8 -48 -13 -85 82 -43 106 25 13 67 9 75
-9z m48 -17 c0 -46 13 -68 34 -60 11 5 16 19 16 52 0 25 5 45 10 45 9 0 15
-87 8 -107 -4 -11 -51 -13 -67 -4 -14 9 -33 96 -23 106 14 14 22 1 22 -32z
m174 15 c20 -28 12 -38 -30 -38 -37 0 -43 -10 -18 -31 12 -10 20 -10 35 -1 29
19 37 13 11 -8 -37 -30 -82 -3 -82 50 0 50 55 69 84 28z m-1610 -9 c-3 -5 -10
-7 -15 -3 -5 3 -7 10 -3 15 3 5 10 7 15 3 5 -3 7 -10 3 -15z m1134 -30 c6 -35
12 -44 27 -44 17 0 20 7 21 42 1 79 19 67 27 -17 l4 -46 -38 -1 c-20 -1 -42 3
-47 10 -18 23 -23 121 -5 103 2 -2 7 -23 11 -47z m135 34 c-19 -13 -22 -21
-16 -59 3 -27 2 -44 -4 -44 -9 0 -23 66 -23 105 0 7 14 12 33 13 32 0 32 0 10
-15z m-1460 -13 c29 -23 44 -78 29 -107 -7 -12 -7 -25 -1 -36 10 -17 -4 -26
-15 -9 -3 5 -18 7 -34 4 -45 -6 -84 33 -86 85 -1 74 53 105 107 63z m1073 9
c4 -8 9 -8 17 0 15 15 42 14 55 -1 5 -7 13 -34 17 -60 10 -64 -10 -64 -21 -1
-6 33 -15 49 -27 51 -14 3 -17 -4 -17 -47 0 -28 -4 -51 -10 -51 -5 0 -10 17
-10 39 0 23 -6 44 -15 51 -24 20 -38 -1 -33 -49 4 -43 -8 -57 -16 -18 -14 68
-13 86 8 90 38 8 45 7 52 -4z m-96 -25 c6 -14 10 -40 10 -58 0 -26 -4 -32 -22
-33 -49 -3 -68 7 -68 32 0 20 6 27 30 32 17 3 30 11 30 18 0 18 -25 26 -39 12
-13 -13 -26 -3 -16 12 3 6 20 11 36 11 22 0 32 -6 39 -26z m-467 -12 c23 -20
22 -65 -2 -86 -25 -23 -49 -18 -74 16 -24 32 -17 75 16 87 23 9 32 7 60 -17z
m-205 2 c12 -8 22 -24 22 -35 0 -16 -7 -19 -40 -19 -43 0 -50 -9 -24 -31 13
-10 19 -10 36 0 26 16 39 3 14 -15 -27 -19 -42 -18 -66 6 -24 24 -26 67 -3 92
20 22 32 23 61 2z m102 5 c0 -5 -7 -9 -15 -9 -17 0 -19 -8 -16 -62 2 -21 -2
-38 -7 -38 -10 0 -22 47 -22 90 0 23 4 27 30 28 17 0 30 -4 30 -9z m-330 -36
c0 -47 12 -66 36 -61 16 3 19 12 17 51 -2 56 14 63 22 10 13 -84 15 -79 -32
-81 -38 -1 -45 1 -53 24 -13 33 -13 94 0 94 6 0 10 -17 10 -37z m124 6 c9 -47
7 -89 -4 -89 -5 0 -10 10 -10 23 0 12 -3 39 -6 60 -8 45 11 51 20 6z m-406
-54 c-3 -3 -9 2 -12 12 -6 14 -5 15 5 6 7 -7 10 -15 7 -18z m-228 -5 c0 -5 -2
-10 -4 -10 -3 0 -8 5 -11 10 -3 6 -1 10 4 10 6 0 11 -4 11 -10z m230 -34 c0
-8 -5 -18 -12 -22 -7 -4 -8 -3 -4 4 11 17 -9 15 -24 -3 -9 -11 -34 -15 -96
-15 -46 0 -84 2 -84 4 0 2 -2 10 -5 18 -4 10 8 12 57 10 35 -1 83 1 108 7 25
5 48 9 53 10 4 1 7 -5 7 -13z m1174 -128 c3 -13 7 -49 10 -80 7 -70 -10 -79
-19 -10 -3 26 -8 62 -11 80 -6 36 13 45 20 10z m-46 -46 c28 -36 5 -102 -37
-102 -47 0 -74 89 -36 116 22 16 54 10 73 -14z m162 9 c5 -11 10 -37 10 -58
l0 -39 -42 1 c-33 0 -43 4 -46 18 -5 25 16 47 45 47 15 0 23 5 20 13 -2 6 -18
11 -36 10 -26 -1 -30 1 -20 13 17 20 57 17 69 -5z m-285 -7 c21 -21 13 -29
-13 -13 -42 27 -73 -28 -36 -65 19 -20 19 -20 39 0 18 19 30 13 22 -11 -8 -20
-56 -19 -79 2 -36 32 -14 103 32 103 10 0 26 -7 35 -16z m-290 -10 c21 -21 13
-29 -14 -12 -29 18 -56 -9 -47 -47 9 -34 32 -42 56 -20 18 16 20 16 20 2 0
-24 -35 -40 -60 -27 -42 22 -51 69 -20 100 24 24 43 25 65 4z m112 4 c6 -7 13
-34 16 -59 l6 -46 -41 1 c-48 1 -70 24 -49 50 8 9 24 16 37 16 25 0 35 29 12
31 -18 2 -21 1 -43 -7 -18 -7 -18 -6 -6 9 16 20 54 22 68 5z m-356 -18 c26
-21 19 -26 -12 -9 -27 14 -51 -6 -47 -39 5 -37 32 -51 57 -28 18 17 21 17 21
3 0 -16 -28 -37 -49 -37 -21 0 -51 41 -51 69 0 31 22 61 45 61 7 0 23 -9 36
-20z m123 5 c25 -25 29 -54 12 -80 -31 -47 -96 -20 -96 40 0 17 5 36 12 43 17
17 54 15 72 -3z m-300 -17 c19 -27 22 -100 4 -97 -7 1 -21 -1 -31 -6 -13 -5
-25 -1 -40 14 l-22 22 24 20 c13 10 29 19 37 19 8 0 14 5 14 10 0 17 -29 23
-45 10 -12 -10 -15 -10 -15 3 0 32 53 35 74 5z m2050 6 c3 -9 3 -20 0 -25 -3
-6 0 -16 6 -24 10 -12 10 -18 0 -30 -16 -19 -21 -19 -46 0 -18 14 -17 14 14 9
33 -7 47 11 17 22 -12 5 -13 9 -4 21 18 21 -4 41 -26 23 -8 -7 -15 -8 -15 -3
0 26 44 32 54 7z m66 -3 c0 -10 3 -33 7 -51 4 -24 3 -31 -5 -26 -7 4 -12 23
-12 43 0 28 -3 34 -16 29 -14 -5 -15 -4 -4 9 17 20 30 19 30 -4z m-2407 -88
c17 -27 37 -1 37 48 0 27 5 49 10 49 6 0 10 -10 10 -22 0 -13 3 -41 7 -62 5
-34 4 -38 -10 -33 -9 3 -19 2 -23 -4 -5 -8 -41 -4 -53 7 -2 2 -7 24 -12 50
-12 61 3 82 16 24 5 -25 14 -50 18 -57z m175 84 c9 -11 17 -75 12 -102 -3 -17
-19 29 -19 56 -1 35 -25 56 -46 39 -10 -9 -13 -24 -8 -56 3 -27 2 -44 -4 -44
-11 0 -23 46 -23 90 0 24 4 27 39 28 21 1 43 -4 49 -11z m1982 -40 c3 -26 3
-47 -1 -47 -5 0 -9 19 -11 43 -2 28 -7 41 -16 39 -8 -1 -10 2 -7 8 14 22 30 2
35 -43z m60 41 c0 -7 3 -31 5 -53 4 -30 3 -35 -4 -20 -5 11 -10 32 -10 47 -1
21 -5 26 -18 21 -11 -4 -14 -3 -9 5 10 16 36 15 36 0z m-2399 -45 l23 -48 9
48 c6 26 16 47 23 47 14 0 -16 -131 -36 -155 -14 -17 -40 -20 -40 -5 0 6 6 10
14 10 25 0 24 24 -5 82 -32 63 -33 68 -19 68 5 0 19 -21 31 -47z m2449 43 c0
-3 -4 -8 -10 -11 -5 -3 -10 -1 -10 4 0 6 5 11 10 11 6 0 10 -2 10 -4z m4605
-107 c1 -13 4 -35 8 -49 9 -29 -6 -80 -24 -80 -7 0 -9 13 -4 39 4 24 2 42 -4
46 -12 7 -15 58 -4 69 13 12 28 -1 28 -25z m-89 -5 c-4 -14 -2 -31 3 -38 13
-16 2 -88 -13 -83 -6 2 -11 17 -12 33 0 16 -4 37 -8 47 -11 25 1 67 20 67 12
0 15 -6 10 -26z m3669 -26 c35 -18 86 -72 101 -107 17 -40 18 -118 3 -158 -14
-38 -67 -92 -106 -109 -73 -31 -152 -15 -214 45 -89 87 -90 210 -1 294 56 53
151 68 217 35z m-3470 2 c4 -6 2 -17 -5 -24 -6 -8 -8 -26 -4 -39 10 -42 -7
-54 -23 -16 -11 26 -11 39 -2 61 12 29 23 35 34 18z m2289 -95 c3 -9 -1 -18
-10 -22 -19 -7 -39 11 -30 26 10 16 33 13 40 -4z m146 7 c0 -13 -39 -46 -46
-39 -12 12 8 47 27 47 10 0 19 -4 19 -8z m-1740 -26 c0 -11 -15 -16 -52 -18
-49 -3 -53 -5 -56 -30 -3 -27 -2 -28 47 -28 44 0 51 -3 51 -20 0 -17 -7 -20
-45 -20 -43 0 -45 -1 -45 -30 0 -30 0 -30 56 -30 47 0 55 -3 52 -17 -3 -15
-16 -19 -76 -21 l-72 -3 0 54 c0 30 -3 82 -6 116 l-7 61 77 0 c60 0 76 -3 76
-14z m-747 -6 c29 0 46 -7 68 -29 22 -22 41 -31 72 -33 37 -3 42 -6 45 -30 2
-17 -4 -31 -16 -40 -14 -9 -24 -35 -32 -78 -22 -114 -15 -110 -200 -110 -183
0 -169 -7 -195 104 -10 42 -24 74 -41 91 -35 35 -19 65 36 65 26 0 43 6 52 18
7 10 20 22 28 27 19 12 99 24 125 19 11 -2 37 -4 58 -4z m2498 -49 c22 -22 29
-39 29 -67 0 -81 -83 -114 -134 -53 -31 37 -33 77 -6 112 18 22 31 29 73 36 5
0 22 -12 38 -28z m190 -3 c12 -21 16 -145 6 -140 -4 1 -11 2 -17 2 -5 0 -10
22 -10 48 0 55 -18 86 -46 80 -16 -3 -19 -13 -22 -71 -2 -58 -6 -68 -20 -65
-14 3 -17 17 -20 87 -3 82 -3 83 20 78 13 -3 32 -2 43 2 27 11 54 2 66 -21z
m-1805 16 c30 -8 44 -45 44 -114 0 -53 -2 -58 -20 -53 -16 4 -20 15 -22 67 -3
61 -3 61 -33 61 -30 0 -30 -1 -35 -65 -4 -49 -9 -65 -20 -65 -12 0 -16 17 -18
83 -3 77 -2 82 18 82 11 0 20 -5 20 -12 0 -8 6 -6 17 5 19 19 19 19 49 11z
m279 -19 c19 -18 25 -35 25 -67 0 -49 -6 -60 -37 -77 -15 -7 -30 -8 -47 -1
-25 9 -26 8 -26 -25 0 -28 -4 -35 -20 -35 -18 0 -20 7 -20 79 0 43 -3 93 -7
111 -6 33 -6 33 25 27 17 -4 34 -2 37 3 11 18 45 10 70 -15z m87 10 c5 -6 12
-5 20 3 18 18 38 14 38 -8 0 -13 -7 -20 -19 -20 -24 0 -31 -19 -31 -81 0 -42
-3 -49 -20 -49 -18 0 -20 7 -20 85 0 63 3 84 13 83 6 -2 15 -7 19 -13z m183 9
c18 -7 45 -54 45 -79 0 -12 -13 -15 -60 -15 -58 0 -60 -1 -50 -20 12 -22 49
-27 67 -9 7 7 20 9 29 5 16 -6 16 -8 -4 -28 -26 -27 -84 -28 -112 -3 -25 23
-34 72 -21 108 14 37 64 57 106 41z m105 -4 c0 -7 6 -7 19 0 32 17 58 11 81
-17 49 -63 3 -169 -63 -144 -26 10 -27 9 -27 -24 0 -28 -4 -35 -20 -35 -18 0
-20 7 -20 63 0 34 -3 86 -6 115 -6 48 -5 52 15 52 11 0 21 -5 21 -10z m266
-11 c12 -14 19 -40 22 -83 l4 -63 -61 -1 c-51 -1 -63 2 -76 21 -8 12 -15 25
-15 29 0 18 42 48 68 48 35 0 45 9 31 27 -13 15 -49 18 -49 3 0 -5 -9 -10 -20
-10 -24 0 -25 8 -3 32 22 25 75 23 99 -3z m84 9 c0 -9 3 -9 12 0 16 16 48 15
48 -1 0 -8 -11 -19 -25 -25 -23 -10 -25 -17 -25 -72 0 -53 -2 -60 -20 -60 -18
0 -20 7 -20 85 0 69 3 85 15 85 8 0 15 -5 15 -12z m207 -18 c7 -14 13 -50 13
-81 l0 -56 -60 -1 c-50 -1 -62 2 -75 21 -8 12 -15 25 -15 29 0 18 42 48 68 48
34 0 43 7 35 26 -6 16 -53 19 -53 4 0 -5 -9 -10 -20 -10 -24 0 -25 8 -3 32 26
29 93 21 110 -12z m165 13 c10 -9 18 -22 18 -30 0 -18 -36 -17 -44 2 -7 18
-37 20 -54 3 -17 -17 -15 -64 4 -82 19 -20 38 -20 54 -1 15 18 40 20 40 3 0
-22 -33 -48 -61 -48 -41 0 -58 9 -74 41 -21 39 -19 72 6 103 24 31 81 36 111
9z m82 -5 c3 -13 6 -51 6 -85 0 -56 -2 -63 -20 -63 -18 0 -20 7 -20 85 0 66 3
85 14 85 7 0 16 -10 20 -22z m-3099 -18 c-3 -5 1 -10 9 -10 9 0 16 -9 16 -20
0 -25 -26 -26 -39 -2 -7 13 -6 23 1 30 15 15 21 15 13 2z m-3701 -381 l7 -76
-35 -1 c-44 -2 -66 19 -66 62 0 40 21 60 51 51 19 -6 21 -4 16 17 -7 26 2 44
14 31 3 -5 9 -42 13 -84z m-124 66 c0 -8 -4 -15 -10 -15 -5 0 -10 7 -10 15 0
8 5 15 10 15 6 0 10 -7 10 -15z m-160 -3 c0 -13 -12 -22 -22 -16 -10 6 -1 24
13 24 5 0 9 -4 9 -8z m40 -17 c0 -22 3 -25 25 -19 48 12 84 -51 56 -95 -13
-20 -80 -21 -85 -1 -13 44 -17 140 -7 140 6 0 11 -11 11 -25z m-1136 -7 c10
-13 16 -43 16 -73 0 -32 -3 -45 -9 -36 -7 11 -11 9 -20 -8 -7 -11 -21 -21 -32
-21 -20 0 -20 1 5 45 15 25 25 45 22 45 -3 0 -24 -32 -47 -71 l-42 -70 -41 38
c-22 21 -34 30 -26 20 12 -17 12 -20 -3 -28 -19 -11 -23 -44 -7 -52 6 -3 5 -4
-2 -3 -15 3 -40 133 -36 186 l3 35 60 6 c126 12 143 11 159 -13z m600 -34 c3
-26 6 -63 6 -83 0 -36 -1 -37 -36 -36 -42 2 -64 24 -64 66 0 32 23 53 50 46
17 -4 20 0 20 24 0 46 17 34 24 -17z m-170 24 c3 -7 7 -43 10 -79 l5 -66 -39
-1 c-43 -2 -70 23 -70 65 0 25 35 54 56 46 10 -4 14 3 14 21 0 26 17 36 24 14z
m46 2 c0 -5 -4 -10 -10 -10 -5 0 -10 5 -10 10 0 6 5 10 10 10 6 0 10 -4 10
-10z m1014 -21 c5 -14 6 -38 2 -53 -6 -23 -11 -27 -39 -24 -41 4 -65 47 -48
85 16 35 72 30 85 -8z m-390 -1 c9 -36 7 -98 -4 -98 -5 0 -10 10 -10 23 0 12
-3 39 -6 60 -7 40 9 53 20 15z m164 -36 c2 -29 -1 -52 -7 -52 -5 0 -11 25 -13
55 -2 34 1 54 7 52 6 -2 11 -27 13 -55z m-1070 36 c7 -7 12 -24 12 -38 0 -32
-17 -50 -47 -50 -19 0 -23 -5 -23 -30 0 -16 -4 -30 -10 -30 -5 0 -10 8 -10 19
0 10 -3 46 -6 80 l-7 61 40 0 c21 0 44 -5 51 -12z m652 -9 c0 -5 -7 -9 -15 -9
-11 0 -15 -12 -15 -47 0 -59 -12 -49 -20 18 -5 38 -4 49 6 45 8 -3 16 -1 19 5
7 11 25 3 25 -12z m92 4 c10 -9 18 -24 18 -35 0 -14 -8 -18 -35 -18 -19 0 -35
-5 -35 -10 0 -17 31 -24 51 -11 21 13 26 2 7 -17 -44 -44 -109 29 -74 83 19
29 42 32 68 8z m113 6 c11 -17 -3 -23 -20 -9 -23 19 -50 -9 -41 -43 7 -28 34
-43 50 -27 13 13 26 13 26 0 0 -5 -9 -14 -21 -20 -43 -24 -95 42 -69 89 12 23
63 30 75 10z m-345 -19 c34 -34 19 -100 -22 -100 -49 0 -77 69 -42 104 21 21
40 20 64 -4z m-222 -56 c4 -73 -14 -62 -20 14 -4 36 -2 52 6 49 6 -2 12 -30
14 -63z m-172 31 c20 -31 11 -45 -31 -45 -27 0 -33 -3 -28 -16 4 -12 14 -15
40 -11 29 5 33 4 23 -8 -30 -36 -90 -1 -90 52 0 50 58 70 86 28z m679 -240
c19 -18 25 -35 25 -68 0 -23 -5 -48 -12 -55 -19 -19 -55 -14 -72 10 -21 30
-20 96 1 120 21 24 29 23 58 -7z m129 3 c19 -26 21 -109 4 -126 -48 -48 -114
61 -78 129 14 26 55 24 74 -3z m-249 -8 c25 -28 32 -102 10 -123 -36 -37 -75
-10 -90 61 -13 64 40 106 80 62z m-430 -6 c14 -9 25 -23 25 -32 0 -12 -3 -13
-12 -4 -18 18 -27 15 -21 -8 3 -10 16 -26 29 -35 30 -20 30 -37 0 -70 l-25
-27 -27 26 c-16 14 -24 29 -20 33 5 4 11 2 13 -4 7 -19 23 -15 23 5 0 10 -11
28 -25 40 -30 26 -31 35 -7 67 21 29 17 29 47 9z m145 -55 c0 -21 4 -39 10
-41 11 -4 1 -48 -11 -48 -5 0 -9 7 -9 15 0 11 -11 15 -40 15 -22 0 -40 2 -40
5 0 3 14 33 31 67 29 58 32 61 45 43 8 -10 14 -36 14 -56z m120 61 c0 -5 -13
-10 -30 -10 -24 0 -30 -4 -30 -21 0 -16 4 -19 21 -14 43 14 80 -60 47 -93 -17
-17 -53 -15 -68 3 -17 20 -5 32 15 15 19 -16 45 -6 45 18 0 29 -24 46 -49 33
-30 -16 -31 -15 -31 34 l0 45 40 0 c22 0 40 -4 40 -10z m-467 -17 c10 -18 18
-153 8 -153 -5 0 -12 26 -16 58 -3 31 -8 67 -11 80 -4 20 10 31 19 15z m-313
-23 c0 -5 -10 -10 -23 -10 -22 0 -23 -2 -16 -67 4 -38 5 -70 3 -72 -9 -10 -15
10 -22 70 -7 60 -9 64 -34 67 -52 6 -28 22 32 22 33 0 60 -4 60 -10z m156 -20
c8 0 14 -4 14 -10 0 -5 -4 -10 -10 -10 -16 0 -12 -57 5 -74 19 -18 19 -26 0
-26 -19 0 -35 31 -35 69 0 16 -6 32 -12 34 -10 4 -9 8 2 16 8 6 11 11 7 11 -5
0 -5 6 0 13 5 9 8 7 11 -5 2 -10 10 -18 18 -18z m1905 -6 c-25 -42 -25 -44 -6
-44 8 0 26 18 40 40 14 22 28 40 30 40 6 0 -16 -44 -43 -83 -17 -25 -20 -26
-32 -11 -13 15 -15 14 -27 -2 -12 -17 -14 -17 -33 1 -23 21 -19 35 5 15 9 -7
17 -11 18 -9 2 2 15 23 30 47 33 51 48 57 18 6z m-224 14 c5 -7 9 -31 9 -53
-1 -35 -4 -40 -25 -40 -13 0 -26 7 -29 15 -4 12 -2 13 9 3 7 -7 19 -13 26 -13
19 0 16 27 -4 39 -10 6 -12 11 -5 11 6 0 12 7 12 16 0 11 -6 15 -20 11 -22 -6
-28 8 -7 16 20 8 24 8 34 -5z m71 -58 l0 -35 -12 43 c-6 24 -14 40 -19 36 -4
-4 -7 -2 -7 4 0 17 25 20 32 3 4 -9 6 -32 6 -51z m-1654 47 c11 -8 22 -33 26
-60 7 -49 10 -46 -52 -48 -22 0 -40 18 -35 36 2 6 18 17 35 26 28 14 30 18 17
29 -12 10 -18 10 -30 0 -21 -18 -30 -6 -10 14 20 19 26 20 49 3z m116 -2 c0
-8 -4 -15 -10 -15 -5 0 -10 7 -10 15 0 8 5 15 10 15 6 0 10 -7 10 -15z m1298
-70 c1 -25 -1 -27 -8 -10 -5 11 -9 32 -9 47 -1 21 -5 26 -18 22 -15 -5 -15 -3
2 11 19 15 20 15 26 -12 4 -15 7 -41 7 -58z m56 54 c3 -17 6 -43 5 -58 0 -23
-1 -24 -9 -6 -5 11 -9 32 -9 47 -1 22 -5 26 -18 21 -16 -6 -16 -5 -4 10 20 24
28 21 35 -14z m-1642 4 c23 -27 28 -51 18 -78 -19 -50 -100 -20 -100 37 0 21
34 58 53 58 8 0 21 -8 29 -17z m768 -53 c0 -5 -4 -10 -10 -10 -5 0 -10 5 -10
10 0 6 5 10 10 10 6 0 10 -4 10 -10z m-470 -26 c0 -8 -4 -12 -10 -9 -5 3 -10
10 -10 16 0 5 5 9 10 9 6 0 10 -7 10 -16z m2278 -219 c0 -16 -6 6 -13 50 -8
44 -13 96 -13 115 0 19 6 -3 13 -50 7 -47 13 -98 13 -115z m20 -150 c0 -22 -3
-18 -9 15 -4 25 -7 59 -7 75 0 22 3 18 9 -15 4 -25 7 -58 7 -75z m6786 29 c72
-37 109 -99 110 -184 0 -114 -85 -200 -198 -200 -54 0 -132 44 -163 91 -24 37
-28 52 -28 114 0 61 4 77 27 113 55 83 162 111 252 66z m-3513 -4 c11 -6 19
-21 19 -35 0 -24 3 -25 65 -25 l65 0 31 -50 c17 -28 40 -57 52 -65 16 -11 23
-30 28 -77 7 -70 -1 -88 -37 -88 -13 0 -24 -5 -24 -12 0 -22 -43 -58 -70 -58
-31 0 -70 25 -70 46 0 11 -19 14 -95 14 -57 0 -95 -4 -95 -10 0 -22 -41 -50
-75 -50 -32 0 -75 30 -75 52 0 4 -9 8 -19 8 -47 0 -51 8 -51 95 0 63 -4 88
-16 99 -8 9 -20 16 -25 16 -5 0 -9 5 -9 10 0 6 9 10 20 10 17 0 20 7 20 49 0
78 6 81 186 81 88 0 164 -4 175 -10z m-3264 -107 c-3 -10 -5 -2 -5 17 0 19 2
27 5 18 2 -10 2 -26 0 -35z m4962 23 c9 -10 8 -16 -4 -26 -19 -16 -41 1 -32
24 8 20 21 20 36 2z m-929 -18 c0 -15 -9 -18 -50 -18 -49 0 -50 -1 -50 -30 0
-29 1 -30 51 -30 42 0 50 -3 47 -17 -2 -12 -14 -17 -48 -17 -43 -1 -45 -2 -48
-33 l-3 -33 55 0 c43 0 56 -3 56 -15 0 -12 -15 -15 -74 -15 l-75 0 -3 111 c-2
61 -1 113 1 115 2 2 35 3 73 2 58 -2 68 -5 68 -20z m-4023 -85 c-3 -10 -5 -2
-5 17 0 19 2 27 5 18 2 -10 2 -26 0 -35z m4095 36 c3 -9 10 -8 24 1 25 15 69
7 78 -15 3 -8 8 -44 12 -80 6 -62 6 -65 -15 -65 -16 0 -21 6 -21 28 0 53 -13
101 -27 107 -29 10 -43 -15 -43 -76 0 -52 -2 -59 -20 -59 -18 0 -20 7 -20 85
0 67 3 85 14 85 8 0 16 -5 18 -11z m338 -9 c35 -35 16 -58 -21 -24 -39 35 -85
-18 -60 -72 12 -28 48 -32 66 -8 9 13 16 14 30 7 17 -10 17 -11 -4 -32 -29
-29 -91 -29 -117 0 -29 32 -26 105 5 130 30 25 76 24 101 -1z m158 12 c17 -11
32 -67 32 -118 l0 -41 -60 -1 c-61 -1 -90 13 -90 44 0 24 38 54 68 54 34 0 43
7 35 26 -6 16 -53 19 -53 4 0 -5 -9 -10 -20 -10 -24 0 -26 13 -4 34 16 17 70
21 92 8z m92 -4 c0 -9 3 -9 12 0 15 15 61 15 76 0 9 -9 15 -9 24 0 18 18 66
15 76 -5 5 -10 12 -48 16 -85 6 -63 5 -68 -13 -68 -16 0 -19 9 -23 60 -5 68
-19 91 -46 74 -13 -9 -17 -26 -17 -73 0 -52 -3 -61 -17 -61 -15 0 -18 9 -18
53 0 59 -18 94 -44 84 -12 -5 -16 -20 -16 -72 0 -58 -2 -65 -20 -65 -18 0 -20
7 -20 85 0 69 3 85 15 85 8 0 15 -5 15 -12z m270 -12 c0 -12 3 -51 6 -85 6
-57 6 -61 -14 -61 -19 0 -21 7 -24 78 -4 86 -3 92 18 92 8 0 14 -10 14 -24z
m168 11 c5 -6 13 -45 17 -84 7 -69 6 -73 -14 -73 -18 0 -20 7 -23 61 -3 65
-19 88 -52 76 -12 -5 -16 -20 -16 -72 0 -58 -2 -65 -20 -65 -18 0 -20 7 -20
83 l0 83 59 2 c36 1 63 -3 69 -11z m181 -13 c45 -58 10 -144 -59 -144 -69 0
-108 96 -60 148 31 33 92 30 119 -4z m-2799 -35 c0 -11 -7 -19 -15 -19 -8 0
-15 9 -15 21 0 13 -4 18 -12 13 -6 -4 -8 -3 -5 4 11 16 47 2 47 -19z m-2493
-56 c-3 -10 -5 -4 -5 12 0 17 2 24 5 18 2 -7 2 -21 0 -30z m-1953 -78 l7 -70
-33 1 c-54 2 -56 3 -67 34 -7 21 -7 39 0 56 8 22 14 25 40 22 26 -4 30 -2 28
16 -2 34 1 42 10 26 5 -8 11 -46 15 -85z m-529 49 c-20 -15 -20 -15 -1 -30 12
-8 15 -14 7 -14 -10 0 -12 -13 -9 -50 3 -27 2 -50 -2 -50 -11 0 -20 27 -20 60
0 16 -4 31 -10 35 -5 3 -7 12 -5 20 3 8 7 22 10 30 2 8 15 15 27 15 23 -1 23
-1 3 -16z m46 3 c-1 -12 -15 -9 -19 4 -3 6 1 10 8 8 6 -3 11 -8 11 -12z m581
-14 c25 -30 29 -54 13 -79 -20 -31 -59 -31 -79 -2 -21 29 -20 57 1 80 20 23
46 23 65 1z m-232 -13 c21 -21 30 -107 10 -95 -5 3 -18 1 -28 -4 -14 -7 -24
-7 -37 3 -26 19 -15 48 24 61 29 10 31 12 17 24 -13 11 -19 11 -31 1 -9 -7
-19 -10 -23 -6 -7 8 25 36 40 36 4 0 17 -9 28 -20z m2097 -27 c-3 -10 -5 -2
-5 17 0 19 2 27 5 18 2 -10 2 -26 0 -35z m-3509 16 c3 -14 -14 -18 -118 -24
-67 -4 -124 -5 -127 -1 -3 3 0 12 6 20 13 15 89 23 191 22 33 -1 46 -5 48 -17z
m1239 10 c8 -8 13 -8 17 0 11 17 44 13 55 -7 13 -25 18 -97 6 -97 -6 0 -12 20
-15 45 -4 37 -9 45 -25 45 -18 0 -20 -6 -17 -47 4 -59 -13 -64 -21 -7 -6 46
-19 65 -37 54 -8 -5 -11 -23 -7 -51 5 -45 -9 -62 -17 -21 -14 68 -13 86 8 90
37 8 42 7 53 -4z m-163 -55 c6 -52 3 -74 -9 -63 -10 11 -17 119 -8 119 6 0 13
-25 17 -56z m64 42 c-13 -9 -18 -27 -18 -62 0 -61 -15 -46 -23 22 l-6 51 32 1
c28 1 30 -1 15 -12z m-944 -12 c33 -32 14 -84 -31 -84 -19 0 -23 -5 -23 -30 0
-16 -4 -30 -10 -30 -9 0 -13 19 -25 113 l-6 47 40 0 c23 0 46 -7 55 -16z m756
-3 c13 -25 14 -109 1 -95 -5 5 -11 27 -13 49 -2 32 -7 40 -23 40 -17 0 -20 -8
-23 -47 -2 -27 -7 -48 -12 -48 -7 0 -20 97 -14 110 1 3 18 6 38 7 26 2 38 -2
46 -16z m-234 -5 c25 -18 12 -31 -14 -15 -17 10 -23 10 -36 0 -20 -17 -20 -31
0 -59 15 -22 17 -22 41 -7 23 16 25 16 21 -2 -4 -24 -60 -30 -78 -8 -17 20
-17 69 0 89 16 20 40 20 66 2z m118 -8 c23 -33 20 -65 -9 -84 -23 -15 -27 -15
-50 0 -28 18 -35 72 -13 94 19 19 55 14 72 -10z m-290 -4 c41 -40 26 -104 -24
-104 -30 0 -60 30 -60 60 0 25 29 60 50 60 10 0 26 -7 34 -16z m-240 -10 c9
-8 16 -25 16 -37 0 -12 3 -32 6 -44 5 -17 2 -22 -12 -21 -11 0 -26 -2 -35 -6
-20 -9 -51 20 -47 43 2 9 18 20 36 26 17 5 32 13 32 17 0 16 -30 20 -45 8 -9
-7 -19 -10 -23 -6 -8 9 26 36 44 36 7 0 20 -7 28 -16z m141 -51 c8 -75 -3 -96
-48 -91 -42 4 -47 26 -5 25 25 -2 33 3 36 18 4 17 2 18 -12 6 -40 -33 -92 32
-68 85 10 20 18 24 51 22 l39 -1 7 -64z m-431 6 c10 -51 7 -99 -6 -104 -7 -2
-61 -6 -119 -10 -120 -7 -113 -12 -124 78 l-7 56 83 4 c46 1 103 4 125 5 39 2
42 0 48 -29z m3503 -1 c-3 -7 -5 -2 -5 12 0 14 2 19 5 13 2 -7 2 -19 0 -25z
m10 -80 c-3 -7 -5 -2 -5 12 0 14 2 19 5 13 2 -7 2 -19 0 -25z m-2327 -113 c-7
-8 -17 -15 -22 -15 -6 0 -5 7 2 15 7 8 17 15 22 15 6 0 5 -7 -2 -15z m-107
-24 c-2 -6 4 -11 12 -11 8 0 15 -4 15 -10 0 -5 -4 -10 -10 -10 -11 0 -14 -49
-4 -74 3 -9 10 -14 14 -11 5 3 11 1 15 -5 4 -6 -4 -10 -18 -10 -28 0 -37 16
-37 65 0 18 -6 36 -12 39 -10 5 -10 7 -1 12 7 3 9 12 6 21 -4 11 -2 14 8 11 8
-3 13 -11 12 -17z m-459 -43 c9 -79 8 -120 -4 -113 -6 4 -17 2 -25 -5 -26 -22
-75 22 -75 68 0 27 35 56 60 49 17 -4 20 0 20 24 0 49 17 32 24 -23z m-180
-25 c4 -38 10 -76 13 -86 4 -15 1 -18 -15 -13 -11 4 -23 2 -27 -4 -3 -5 -11
-10 -16 -10 -19 0 -59 49 -59 73 0 31 33 61 60 54 17 -4 20 0 20 24 0 56 18
28 24 -38z m46 52 c0 -8 -4 -15 -10 -15 -5 0 -10 7 -10 15 0 8 5 15 10 15 6 0
10 -7 10 -15z m730 -21 c6 -14 10 -40 10 -57 0 -31 -1 -32 -43 -32 -40 0 -42
1 -42 30 0 25 4 30 28 33 15 2 27 10 27 17 0 23 -20 28 -41 9 -16 -14 -19 -14
-19 -2 0 21 10 28 42 28 21 0 31 -6 38 -26z m-314 8 c11 -7 34 -45 34 -56 0
-3 -18 -6 -40 -6 -29 0 -40 -4 -40 -15 0 -21 27 -30 45 -15 20 17 32 5 15 -15
-42 -51 -113 33 -76 90 16 25 41 32 62 17z m119 -3 c11 -16 -3 -23 -19 -10 -8
7 -20 10 -26 6 -19 -12 -10 -24 23 -33 27 -7 32 -13 32 -38 0 -26 -3 -29 -34
-29 -19 0 -36 6 -38 12 -3 9 4 11 26 7 43 -9 43 22 0 31 -32 7 -45 25 -35 50
6 17 61 21 71 4z m-285 -19 c36 -36 16 -110 -31 -110 -20 0 -59 45 -59 69 0
26 29 61 51 61 10 0 28 -9 39 -20z m-840 0 c0 -5 -10 -10 -21 -10 -21 0 -22
-3 -16 -70 3 -38 2 -70 -3 -70 -4 0 -14 32 -20 70 -11 64 -14 70 -36 70 -13 0
-24 5 -24 10 0 6 27 10 60 10 33 0 60 -4 60 -10z m594 -22 c12 -59 14 -98 5
-98 -12 0 -16 13 -22 73 -5 47 9 67 17 25z m-312 -5 c22 -20 24 -85 3 -103 -8
-7 -24 -10 -35 -7 -16 4 -20 0 -20 -19 0 -43 -19 -25 -25 24 -3 26 -8 62 -11
81 -4 26 -2 32 9 28 7 -3 20 -1 28 4 20 13 30 11 51 -8z m125 5 c27 -35 23
-48 -17 -54 -22 -4 -40 -11 -40 -16 0 -16 32 -21 52 -9 17 11 19 10 16 -6 -2
-12 -14 -19 -35 -21 -49 -5 -79 50 -53 99 12 22 62 26 77 7z m-293 -68 l7 -56
-40 -1 c-22 -1 -44 3 -49 10 -15 18 -26 107 -14 107 5 0 14 -21 19 -47 6 -38
12 -48 28 -48 17 0 20 8 23 54 4 66 17 56 26 -19z m536 -185 c0 -8 -4 -15 -10
-15 -5 0 -10 7 -10 15 0 8 5 15 10 15 6 0 10 -7 10 -15z m250 -61 c23 -58 -32
-104 -76 -63 -26 25 -31 56 -11 81 27 35 71 26 87 -18z m1060 31 c11 -13 10
-21 -1 -43 -7 -15 -15 -31 -18 -36 -2 -5 4 -6 13 -3 9 4 16 2 16 -3 0 -6 -11
-10 -25 -10 -30 0 -31 9 -4 44 17 22 19 29 9 41 -10 12 -16 13 -26 4 -9 -7
-14 -8 -14 -1 0 9 14 19 31 21 4 1 12 -6 19 -14z m-1192 -8 c14 -18 25 -107
13 -107 -6 0 -13 17 -16 38 -10 57 -14 64 -32 60 -14 -2 -19 -15 -21 -51 -2
-26 -7 -47 -11 -47 -8 0 -22 99 -16 110 7 11 73 9 83 -3z m1111 -1 c9 -10 9
-16 1 -21 -8 -5 -8 -11 1 -21 6 -7 9 -21 5 -29 -6 -16 -41 -21 -50 -6 -3 4 6
6 20 3 21 -4 25 -1 22 14 -2 11 -10 18 -16 17 -7 -2 -12 2 -12 7 0 6 5 10 10
10 6 0 10 7 10 15 0 18 -21 20 -38 3 -7 -7 -12 -8 -12 -2 0 27 40 33 59 10z
m-1354 -6 c4 -6 13 -5 24 2 25 15 49 4 61 -27 13 -34 13 -85 0 -85 -5 0 -10
15 -10 33 0 18 -6 42 -14 53 -22 28 -39 5 -34 -45 2 -29 0 -41 -9 -41 -8 0
-13 14 -13 39 0 46 -21 69 -40 46 -8 -10 -10 -29 -6 -55 7 -47 -9 -55 -18 -9
-12 62 -8 87 17 92 12 2 25 5 29 6 4 0 10 -3 13 -9z m138 -47 c3 -32 4 -59 2
-62 -11 -10 -19 12 -23 64 -6 74 13 72 21 -2z m1027 38 c0 -10 3 -34 6 -52 4
-26 3 -30 -5 -19 -6 8 -11 28 -11 44 0 22 -4 27 -16 22 -14 -5 -15 -4 -4 9 17
20 30 19 30 -4z m68 -33 l-1 -53 -6 45 c-4 30 -10 44 -19 42 -8 -1 -11 2 -7 8
3 5 13 10 21 10 10 0 14 -13 12 -52z m-1338 27 c7 -8 15 -35 17 -59 l5 -44
-43 2 c-40 1 -44 3 -47 29 -3 23 1 28 27 33 17 4 31 11 31 16 0 15 -30 21 -45
8 -12 -10 -15 -10 -15 3 0 28 50 36 70 12z m-102 -19 c4 -17 3 -17 -19 -3 -29
21 -49 6 -49 -35 0 -34 24 -47 52 -29 25 15 35 7 18 -14 -16 -20 -49 -19 -72
2 -21 19 -24 73 -6 91 19 19 72 11 76 -12z m-306 -3 c10 -9 18 -24 18 -35 0
-14 -8 -18 -36 -18 -28 0 -35 -3 -32 -17 4 -22 38 -30 49 -12 4 7 11 10 15 6
4 -3 1 -13 -6 -22 -42 -51 -113 33 -76 90 19 29 42 32 68 8z m126 4 c14 -16
19 -96 7 -99 -6 -2 -11 15 -13 37 -7 81 -52 85 -52 4 0 -27 -4 -49 -9 -49 -7
0 -21 68 -21 105 0 16 75 18 88 2z m3159 -419 c16 -21 24 -97 13 -118 -25 -47
-70 -2 -70 71 0 25 3 49 7 52 11 11 40 8 50 -5z m-521 -42 c11 -8 31 -16 44
-18 16 -2 26 -10 27 -23 1 -16 1 -16 -3 -2 -3 9 -14 17 -25 17 -10 0 -36 9
-56 20 -21 11 -31 20 -23 20 9 0 25 -6 36 -14z m-71 -10 c-11 -7 -29 -15 -40
-17 -10 -2 -22 -15 -27 -29 l-7 -25 2 24 c1 13 9 27 17 31 8 4 24 12 35 18 29
16 43 14 20 -2z m-361 -50 c27 -32 36 -52 35 -77 l-2 -34 -6 35 c-3 19 -19 52
-35 73 -26 33 -33 37 -75 37 -26 0 -52 -5 -59 -12 -8 -8 -12 -9 -12 -1 0 16
18 21 72 22 43 1 49 -2 82 -43z m401 4 c-27 -12 -43 -12 -25 0 8 5 22 9 30 9
10 0 8 -3 -5 -9z m485 -2 c0 -6 7 -20 17 -30 29 -33 83 -17 83 24 0 10 5 18
10 18 21 0 9 -49 -16 -69 -22 -17 -24 -23 -14 -36 11 -13 8 -15 -14 -15 -21 0
-26 4 -22 18 3 12 -5 23 -27 37 -31 19 -50 65 -28 65 6 0 11 -5 11 -12z m-430
-44 c0 -19 -29 -44 -49 -44 -10 0 -25 8 -32 18 -11 14 -11 15 1 5 36 -33 81 0
61 45 -10 25 -10 26 4 8 8 -11 15 -25 15 -32z m-603 -31 c-2 -16 -4 -5 -4 22
0 28 2 40 4 28 2 -13 2 -35 0 -50z m660 5 c-2 -13 -4 -3 -4 22 0 25 2 35 4 23
2 -13 2 -33 0 -45z m-150 30 c-3 -8 -6 -5 -6 6 -1 11 2 17 5 13 3 -3 4 -12 1
-19z m-60 -35 c-3 -10 -5 -2 -5 17 0 19 2 27 5 18 2 -10 2 -26 0 -35z m-326
-16 c-15 -16 -24 -18 -32 -10 -8 8 -6 11 7 10 11 -1 23 8 29 21 5 12 12 17 14
11 2 -6 -6 -21 -18 -32z m-2024 -34 c-3 -10 -5 -2 -5 17 0 19 2 27 5 18 2 -10
2 -26 0 -35z m-948 -65 c13 -112 45 -262 67 -314 18 -43 17 -56 -1 -24 -28 49
-64 179 -79 289 -18 128 -19 151 -8 151 5 0 14 -46 21 -102z m3326 63 c-6 -5
-25 10 -25 20 0 5 6 4 14 -3 8 -7 12 -15 11 -17z m175 9 c-8 -6 -49 -9 -90 -8
l-75 2 75 3 c41 2 79 8 84 13 5 5 12 7 15 4 3 -3 -1 -9 -9 -14z m-625 -20 l20
-25 -22 19 c-13 11 -23 24 -23 29 0 6 1 8 3 6 1 -2 11 -15 22 -29z m141 -8
c-17 -16 -18 -16 -5 5 7 12 15 20 18 17 3 -2 -3 -12 -13 -22z m-2509 -29 c-3
-10 -5 -4 -5 12 0 17 2 24 5 18 2 -7 2 -21 0 -30z m456 -28 c4 -34 3 -42 -3
-25 -8 25 -13 87 -6 79 2 -2 6 -26 9 -54z m1985 38 c-10 -2 -26 -2 -35 0 -10
3 -2 5 17 5 19 0 27 -2 18 -5z m-2448 -37 c0 -2 -18 -6 -40 -8 -22 -2 -40 0
-40 4 0 5 18 8 40 8 22 0 40 -2 40 -4z m33 -3 c-8 -2 -14 -25 -15 -51 -1 -45
-1 -46 -5 -8 -5 45 1 66 19 65 10 0 10 -2 1 -6z m2372 -277 c23 -17 14 -44
-17 -50 -13 -2 -147 -12 -298 -20 -151 -9 -421 -26 -599 -37 -292 -18 -326
-18 -340 -4 -13 13 -13 17 -1 29 14 14 312 38 960 76 213 13 263 16 271 18 3
1 14 -4 24 -12z"/>
<path d="M2583 8974 c-3 -8 -1 -26 5 -40 22 -46 51 -20 33 29 -12 30 -29 35
-38 11z"/>
<path d="M7073 7930 c0 -25 2 -35 4 -22 2 12 2 32 0 45 -2 12 -4 2 -4 -23z"/>
<path d="M7420 7936 c0 -2 8 -10 18 -17 15 -13 16 -12 3 4 -13 16 -21 21 -21
13z"/>
<path d="M7459 7885 c8 -11 37 -44 65 -72 30 -32 44 -53 36 -54 -52 -2 -105
-12 -108 -20 -2 -5 -22 -9 -43 -9 -24 0 -38 -4 -34 -10 3 -5 -2 -10 -12 -10
-11 0 -24 -5 -31 -12 -7 -7 -12 -9 -12 -5 0 3 -11 2 -24 -3 -18 -7 -28 -5 -38
7 -7 9 -13 19 -12 22 1 3 -20 18 -46 33 -48 27 -76 25 -64 -5 3 -9 4 -17 1
-17 -3 0 -13 23 -22 51 -9 28 -19 48 -21 46 -7 -7 36 -116 65 -166 l27 -45
-27 -96 c-45 -162 -44 -152 -12 -144 16 4 73 19 127 35 l99 28 29 -20 c15 -11
65 -35 111 -52 77 -30 90 -31 212 -31 121 0 136 2 214 32 85 32 169 80 193
109 11 14 11 16 -2 8 -8 -4 -23 -15 -33 -23 -16 -14 -19 -14 -34 0 -9 9 -13
23 -10 31 6 15 16 16 47 4 26 -9 54 -5 74 12 23 20 66 80 45 64 -13 -10 -22
-8 -49 12 -19 14 -39 25 -44 25 -6 0 -18 13 -27 29 -13 22 -14 32 -5 42 6 8 0
4 -14 -8 -36 -31 -110 -63 -148 -63 -47 0 -174 44 -245 86 -33 19 -61 33 -64
31 -2 -3 15 -16 39 -30 24 -15 38 -26 32 -27 -15 0 -94 58 -92 68 1 4 -34 43
-78 87 -43 44 -73 71 -65 60z m408 -281 c-3 -3 -12 -4 -19 -1 -8 3 -5 6 6 6
11 1 17 -2 13 -5z m-671 -50 c-17 -17 -19 -12 -9 25 5 20 7 21 15 7 6 -11 4
-21 -6 -32z m752 39 c-10 -2 -26 -2 -35 0 -10 3 -2 5 17 5 19 0 27 -2 18 -5z"/>
<path d="M7081 7864 c0 -11 3 -14 6 -6 3 7 2 16 -1 19 -3 4 -6 -2 -5 -13z"/>
<path d="M7720 7856 c0 -3 9 -10 20 -16 11 -6 20 -8 20 -6 0 3 -9 10 -20 16
-11 6 -20 8 -20 6z"/>
<path d="M8120 7777 c4 -41 5 -41 8 -8 2 18 0 37 -5 42 -5 5 -6 -11 -3 -34z"/>
<path d="M8300 7714 c-6 -14 -15 -35 -21 -47 -8 -14 -8 -19 -1 -12 13 12 45
85 37 85 -3 0 -10 -12 -15 -26z"/>
<path d="M8245 7614 c-9 -15 -12 -23 -6 -20 11 7 35 46 28 46 -3 0 -12 -12
-22 -26z"/>
<path d="M4708 8440 c-9 -14 -19 -18 -38 -13 -22 6 -24 5 -11 -10 20 -25 37
-21 61 13 12 17 17 30 11 30 -6 0 -16 -9 -23 -20z"/>
<path d="M4064 8426 c-8 -21 15 -58 34 -54 11 2 17 13 17 33 0 24 -5 31 -23
33 -13 2 -24 -3 -28 -12z"/>
<path d="M4242 8408 c2 -25 8 -33 23 -33 16 0 20 7 20 30 0 24 -5 31 -23 33
-21 3 -23 0 -20 -30z"/>
<path d="M3532 8398 c2 -25 8 -33 23 -33 16 0 20 7 20 30 0 24 -5 31 -23 33
-21 3 -23 0 -20 -30z"/>
<path d="M3820 8466 c0 -28 12 -46 31 -46 25 0 35 26 19 45 -16 19 -50 20 -50
1z"/>
<path d="M3145 8448 c10 -30 7 -28 33 -21 32 8 24 37 -11 41 -26 3 -28 1 -22
-20z"/>
<path d="M3150 8381 c0 -17 6 -21 31 -21 24 0 30 4 27 18 -2 10 -14 18 -31 20
-22 3 -27 -1 -27 -17z"/>
<path d="M4367 8443 c-12 -12 -7 -50 8 -63 21 -18 48 5 39 34 -9 29 -33 44
-47 29z"/>
<path d="M3660 8424 c-10 -12 -8 -14 14 -14 28 0 35 14 12 23 -8 3 -20 -1 -26
-9z"/>
<path d="M3957 8433 c-13 -12 -7 -22 13 -20 11 1 20 7 20 14 0 14 -22 18 -33
6z"/>
<path d="M2691 8378 c4 -24 8 -46 9 -50 0 -5 18 -8 39 -8 47 0 75 23 65 54 -9
32 -33 46 -80 46 l-41 0 8 -42z"/>
<path d="M2637 8361 c-4 -18 -2 -64 4 -104 l11 -72 93 3 c77 3 96 7 111 23 9
10 15 19 13 19 -2 1 -35 3 -73 6 -98 7 -123 22 -132 81 -9 67 -20 83 -27 44z"/>
<path d="M2710 8285 c0 -13 13 -15 73 -14 68 2 70 3 42 15 -44 19 -115 18
-115 -1z"/>
<path d="M3287 8424 c-13 -13 -7 -51 9 -65 14 -11 18 -10 29 5 23 31 -12 85
-38 60z"/>
<path d="M3566 8183 c-12 -12 -5 -23 14 -23 11 0 20 4 20 9 0 11 -26 22 -34
14z"/>
<path d="M3167 8174 c-14 -14 -6 -24 19 -24 16 0 24 5 22 13 -5 14 -31 21 -41
11z"/>
<path d="M2553 7452 c-8 -20 6 -74 24 -94 12 -13 31 -18 75 -18 52 0 58 2 58
21 0 11 5 17 10 14 6 -4 10 8 10 29 0 40 -8 66 -22 66 -5 0 -6 -5 -2 -12 5 -8
3 -8 -7 -2 -22 14 -141 11 -146 -4z m155 -11 c6 -1 12 -13 11 -28 0 -26 -1
-26 -9 -7 -4 12 -16 24 -26 28 -15 6 -16 1 -11 -36 5 -41 5 -42 -8 -18 -8 14
-14 19 -15 12 0 -11 -2 -11 -13 0 -7 7 -16 21 -20 31 -3 9 -11 17 -17 17 -18
0 -23 -30 -11 -58 11 -25 10 -26 -4 -8 -15 20 -20 57 -9 68 3 3 31 4 62 3 31
-2 63 -4 70 -4z m-61 -87 c-3 -3 -12 -4 -19 -1 -8 3 -5 6 6 6 11 1 17 -2 13
-5z"/>
<path d="M2762 7410 c0 -14 2 -19 5 -12 2 6 2 18 0 25 -3 6 -5 1 -5 -13z"/>
<path d="M3257 7403 c-16 -15 -6 -34 15 -31 29 4 38 38 10 38 -10 0 -22 -3
-25 -7z"/>
<path d="M3067 7443 c-11 -11 -8 -58 5 -71 31 -31 71 15 49 57 -11 20 -41 28
-54 14z"/>
<path d="M9710 7057 c0 -8 5 -39 11 -71 l12 -57 131 3 130 3 12 40 c6 22 14
52 18 68 l6 27 -160 0 c-127 0 -160 -3 -160 -13z m92 -72 c0 -5 -5 -11 -11
-13 -6 -2 -11 4 -11 13 0 9 5 15 11 13 6 -2 11 -8 11 -13z"/>
<path d="M9750 6780 c0 -13 5 -20 13 -17 6 2 12 10 12 17 0 7 -6 15 -12 18 -8
2 -13 -5 -13 -18z"/>
<path d="M9960 6785 c0 -8 7 -15 15 -15 8 0 15 7 15 15 0 8 -7 15 -15 15 -8 0
-15 -7 -15 -15z"/>
<path d="M2582 7128 c-17 -17 -15 -69 4 -96 18 -26 60 -31 50 -6 -4 11 0 14
17 12 29 -4 34 29 12 71 -12 23 -22 31 -43 31 -16 0 -33 -5 -40 -12z"/>
<path d="M3867 7116 c-5 -12 1 -16 24 -16 20 0 29 4 27 13 -7 18 -45 20 -51 3z"/>
<path d="M3497 7063 c-16 -15 -6 -34 15 -31 29 4 38 38 10 38 -10 0 -22 -3
-25 -7z"/>
<path d="M2950 7095 c-7 -8 -11 -16 -9 -16 20 -6 59 -6 59 0 0 9 -22 31 -31
31 -4 0 -12 -7 -19 -15z"/>
<path d="M3158 7093 c-11 -54 28 -92 61 -59 14 15 14 19 1 44 -19 32 -57 42
-62 15z"/>
<path d="M10857 6983 c-13 -12 -7 -81 8 -93 20 -17 54 -3 61 26 11 43 -42 95
-69 67z"/>
<path d="M11112 6978 c-17 -17 -15 -64 4 -82 18 -19 20 -19 45 -6 34 19 18
100 -19 100 -10 0 -23 -5 -30 -12z"/>
<path d="M12067 6989 c-20 -12 -23 -69 -5 -87 18 -18 46 -14 58 9 24 43 -14
99 -53 78z"/>
<path d="M12306 6981 c-13 -14 -16 -28 -11 -50 8 -37 19 -45 51 -37 20 5 24
13 24 40 0 32 -20 66 -39 66 -4 0 -16 -9 -25 -19z"/>
<path d="M10500 7005 c0 -43 1 -45 28 -45 33 0 52 16 52 45 0 29 -19 45 -52
45 -27 0 -28 -2 -28 -45z"/>
<path d="M11292 6978 c-17 -17 -15 -64 4 -82 31 -32 64 -11 64 39 0 34 -15 55
-40 55 -9 0 -21 -5 -28 -12z"/>
<path d="M11652 6988 c-20 -20 -14 -28 23 -28 39 0 46 14 16 30 -24 13 -24 13
-39 -2z"/>
<path d="M12486 6984 c-34 -33 -9 -99 35 -92 46 6 34 108 -12 108 -4 0 -15 -7
-23 -16z"/>
<path d="M10687 6983 c-18 -18 -5 -33 29 -33 29 0 35 3 30 16 -3 9 -6 18 -6
20 0 7 -46 5 -53 -3z"/>
<path d="M3356 6795 c-9 -25 11 -65 34 -65 25 0 34 21 26 55 -7 29 -50 36 -60
10z"/>
<path d="M3174 6786 c-7 -27 10 -66 29 -66 20 0 37 21 37 45 0 46 -55 63 -66
21z"/>
<path d="M3497 6813 c-10 -9 -8 -55 2 -71 14 -23 46 -10 49 21 5 41 -28 73
-51 50z"/>
<path d="M2927 6794 c-15 -15 -6 -53 15 -68 20 -14 24 -14 37 -1 11 11 13 21
5 42 -9 27 -42 42 -57 27z"/>
<path d="M3062 6798 c-19 -19 -14 -28 18 -28 17 0 30 4 30 8 0 9 -21 32 -30
32 -3 0 -11 -5 -18 -12z"/>
<path d="M4380 6746 c0 -33 20 -62 33 -49 9 8 9 46 1 67 -11 30 -34 18 -34
-18z"/>
<path d="M4344 6039 c-9 -16 18 -30 33 -17 7 6 13 14 13 19 0 13 -38 11 -46
-2z"/>
<path d="M4533 6103 c-18 -6 -16 -58 3 -73 12 -11 18 -11 31 3 28 28 1 82 -34
70z"/>
<path d="M3933 6025 c-3 -9 -3 -18 0 -22 10 -10 37 6 37 22 0 20 -29 20 -37 0z"/>
<path d="M3760 6065 c-18 -21 2 -65 29 -65 24 0 36 32 21 60 -13 24 -33 26
-50 5z"/>
<path d="M5007 5813 c-11 -11 -8 -48 5 -61 19 -19 37 -14 44 13 9 37 -26 71
-49 48z"/>
<path d="M4075 5771 c-8 -27 12 -63 33 -59 12 2 17 13 17 38 0 28 -4 36 -22
38 -14 2 -23 -3 -28 -17z"/>
<path d="M4791 5807 c-16 -16 -14 -52 5 -67 22 -19 49 9 40 43 -7 29 -29 40
-45 24z"/>
<path d="M4897 5813 c-15 -14 -6 -23 24 -23 27 0 30 2 19 15 -13 16 -32 19
-43 8z"/>
<path d="M4524 5749 c-3 -6 -1 -16 4 -21 13 -13 45 8 36 23 -7 12 -31 11 -40
-2z"/>
<path d="M4410 5786 c0 -11 9 -16 26 -16 31 0 28 23 -4 28 -15 2 -22 -2 -22
-12z"/>
<path d="M4201 5787 c-15 -18 -6 -25 24 -19 20 3 23 7 14 18 -14 18 -24 18
-38 1z"/>
<path d="M3921 5777 c-18 -18 -13 -27 14 -27 15 0 25 6 25 14 0 19 -25 27 -39
13z"/>
<path d="M3685 5764 c-20 -20 -19 -27 4 -55 18 -22 21 -23 37 -7 11 11 15 25
10 41 -7 31 -31 41 -51 21z"/>
<path d="M5669 5748 c-4 -47 13 -80 32 -61 15 15 1 73 -17 73 -8 0 -15 -6 -15
-12z"/>
<path d="M9733 5743 c-59 -4 -63 -5 -63 -28 l0 -25 206 0 205 0 -3 28 -3 27
-140 1 c-77 0 -168 -1 -202 -3z"/>
<path d="M9670 5571 c0 -66 4 -92 15 -101 11 -9 62 -10 202 -6 103 3 190 10
193 14 3 4 4 46 2 95 l-3 87 -205 0 -204 0 0 -89z m128 12 c-16 -2 -40 -2 -55
0 -16 2 -3 4 27 4 30 0 43 -2 28 -4z m232 -24 c9 -15 8 -24 -1 -35 -21 -25
-79 -14 -79 15 0 41 61 57 80 20z m-197 -15 c21 -4 36 -11 35 -16 -4 -12 -147
-18 -154 -7 -16 27 35 36 119 23z"/>
<path d="M12577 5643 c-4 -3 -7 -23 -7 -44 0 -43 23 -64 53 -48 20 12 23 69 5
87 -13 13 -41 16 -51 5z"/>
<path d="M10554 5669 c3 -17 6 -37 6 -43 0 -8 13 -11 35 -8 27 3 37 10 41 28
9 33 -12 54 -53 54 -34 0 -35 -1 -29 -31z"/>
<path d="M10738 5568 c-7 -19 2 -38 17 -38 15 0 45 27 45 41 0 14 -57 11 -62
-3z"/>
<path d="M10917 5639 c-24 -14 -23 -75 2 -89 25 -13 48 -4 56 21 14 43 -23 87
-58 68z"/>
<path d="M11096 5634 c-19 -18 -21 -65 -4 -82 17 -17 55 -15 62 4 11 29 6 61
-12 77 -23 21 -27 21 -46 1z"/>
<path d="M11504 5625 c-24 -37 -7 -80 32 -80 26 0 29 3 32 38 5 64 -33 89 -64
42z"/>
<path d="M12410 5575 c-16 -20 -1 -39 26 -33 27 5 32 48 6 48 -11 0 -25 -7
-32 -15z"/>
<path d="M12752 5629 c-19 -51 16 -102 52 -76 13 9 17 24 14 52 -3 35 -6 40
-31 43 -21 3 -29 -2 -35 -19z"/>
<path d="M4473 4983 c-18 -7 -16 -58 3 -73 12 -11 18 -10 31 3 13 13 15 23 7
44 -9 28 -21 35 -41 26z"/>
<path d="M2845 4920 c-4 -6 3 -10 14 -10 25 0 27 6 6 13 -8 4 -17 2 -20 -3z"/>
<path d="M5210 4955 c-10 -12 -9 -16 3 -21 20 -7 37 3 37 22 0 18 -24 18 -40
-1z"/>
<path d="M4764 4986 c-9 -22 -1 -48 18 -60 27 -16 45 6 32 41 -11 31 -41 43
-50 19z"/>
<path d="M4997 5004 c-14 -14 -6 -24 19 -24 16 0 24 5 22 13 -5 14 -31 21 -41
11z"/>
<path d="M3182 4968 c-19 -19 -15 -82 6 -101 23 -21 46 -22 39 -3 -8 20 4 28
20 15 10 -9 13 -7 15 7 6 71 -42 120 -80 82z"/>
<path d="M4177 4924 c-16 -16 -6 -35 16 -32 12 2 22 10 22 18 0 16 -26 25 -38
14z"/>
<path d="M3700 4941 c-14 -27 4 -71 29 -71 32 0 42 48 15 74 -20 21 -31 20
-44 -3z"/>
<path d="M3507 4943 c-15 -14 -6 -23 24 -23 27 0 30 2 19 15 -13 16 -32 19
-43 8z"/>
<path d="M4122 4661 c-8 -5 -12 -22 -10 -42 2 -29 7 -34 28 -34 20 0 26 6 28
28 2 16 -2 35 -9 43 -13 16 -19 17 -37 5z"/>
<path d="M4280 4604 c0 -10 7 -14 22 -12 32 5 35 28 4 28 -17 0 -26 -5 -26
-16z"/>
<path d="M3838 4599 c-25 -14 -22 -31 4 -27 13 2 24 11 26 21 4 19 -5 21 -30
6z"/>
<path d="M3584 4626 c-3 -8 -4 -25 -2 -38 2 -17 9 -23 28 -23 22 0 25 4 25 35
0 29 -4 36 -23 38 -13 2 -24 -3 -28 -12z"/>
<path d="M3290 4566 c0 -22 19 -30 35 -16 22 18 18 30 -10 30 -15 0 -25 -6
-25 -14z"/>
<path d="M9833 4337 c-59 -22 -46 -27 75 -27 67 0 122 4 122 8 0 30 -134 42
-197 19z"/>
<path d="M9700 4271 c0 -5 8 -12 18 -15 14 -5 24 -28 38 -89 l19 -82 150 0
150 0 7 50 c17 109 18 113 38 118 11 3 20 10 20 16 0 8 -67 11 -220 11 -129 0
-220 -4 -220 -9z"/>
<path d="M12398 4285 c-21 -46 23 -103 57 -75 15 13 20 56 9 84 -10 26 -53 20
-66 -9z"/>
<path d="M11064 4285 c-24 -37 -7 -80 32 -80 27 0 29 3 32 40 3 29 -1 43 -14
52 -25 18 -31 17 -50 -12z"/>
<path d="M11350 4290 c-10 -18 -8 -20 30 -20 41 0 49 7 28 28 -18 18 -46 14
-58 -8z"/>
<path d="M11536 4294 c-34 -33 -9 -99 35 -92 20 2 25 9 27 41 5 59 -28 86 -62
51z"/>
<path d="M11730 4240 c-31 -7 -33 -34 -3 -38 14 -2 26 4 32 17 13 24 5 30 -29
21z"/>
<path d="M12003 4240 c-26 -11 -21 -40 7 -40 21 0 44 25 35 40 -7 12 -12 12
-42 0z"/>
<path d="M5457 3933 c-4 -3 -7 -19 -7 -35 0 -34 25 -47 48 -25 13 13 13 21 4
42 -11 24 -31 32 -45 18z"/>
<path d="M5302 3928 c-28 -28 -1 -88 33 -74 22 8 19 63 -3 75 -13 7 -23 6 -30
-1z"/>
<path d="M4054 3885 c-26 -45 -27 -46 -48 -28 l-21 18 19 -23 c16 -18 22 -20
31 -10 18 19 57 88 51 88 -3 0 -17 -20 -32 -45z"/>
<path d="M4674 3885 c-11 -27 5 -65 27 -65 24 0 33 21 25 55 -7 28 -43 35 -52
10z"/>
<path d="M4512 3888 c-26 -26 1 -84 33 -72 27 11 13 84 -15 84 -3 0 -11 -5
-18 -12z"/>
<path d="M5569 3934 c-11 -13 -11 -20 1 -42 20 -34 36 -38 50 -12 9 17 8 26
-5 46 -18 28 -28 30 -46 8z"/>
<path d="M4270 3890 c0 -28 3 -31 28 -28 21 2 27 8 27 28 0 20 -6 26 -27 28
-25 3 -28 0 -28 -28z"/>
<path d="M5026 3905 c-4 -11 2 -15 26 -15 26 0 29 2 18 15 -7 8 -18 15 -25 15
-7 0 -15 -7 -19 -15z"/>
<path d="M4794 3896 c-3 -8 -4 -25 -2 -38 4 -33 52 -33 56 0 6 40 -41 73 -54
38z"/>
<path d="M4397 3884 c-14 -14 -6 -24 19 -24 16 0 24 5 22 13 -5 14 -31 21 -41
11z"/>
<path d="M5093 3643 c-19 -7 -16 -88 3 -108 23 -23 44 -2 44 45 0 39 -25 71
-47 63z"/>
<path d="M5207 3643 c-11 -10 -8 -72 3 -94 23 -43 66 -4 54 48 -11 45 -37 67
-57 46z"/>
<path d="M4954 3616 c-3 -14 -1 -41 6 -61 9 -29 16 -35 33 -33 26 4 34 48 18
91 -14 35 -48 37 -57 3z"/>
<path d="M4540 3596 c0 -8 5 -18 10 -21 6 -3 10 3 10 14 0 12 -4 21 -10 21 -5
0 -10 -6 -10 -14z"/>
<path d="M4582 3526 c1 -10 8 -17 13 -17 15 1 12 24 -3 29 -9 3 -13 -2 -10
-12z"/>
<path d="M4687 3593 c-2 -10 -8 -26 -12 -35 -6 -14 -2 -18 17 -18 22 0 24 4
20 35 -4 38 -16 46 -25 18z"/>
<path d="M4284 3509 c-9 -15 12 -33 30 -26 9 4 16 13 16 22 0 17 -35 21 -46 4z"/>
<path d="M4100 3540 c-22 -42 17 -87 49 -55 14 14 14 18 1 42 -20 35 -36 39
-50 13z"/>
<path d="M13469 2913 c-13 -16 -12 -17 4 -4 16 13 21 21 13 21 -2 0 -10 -8
-17 -17z"/>
<path d="M9723 3113 c-23 -4 -23 -7 -23 -149 0 -132 1 -144 18 -144 10 0 28
14 40 30 30 40 74 41 111 1 24 -26 30 -28 84 -23 l58 5 -3 141 -3 141 -130 1
c-71 1 -140 0 -152 -3z m55 -80 c2 -9 -7 -13 -27 -13 -32 0 -50 15 -29 24 21
8 51 2 56 -11z m10 -80 c2 -9 -7 -13 -27 -13 -32 0 -50 15 -29 24 21 8 51 2
56 -11z"/>
<path d="M10047 2938 c3 -62 7 -115 9 -117 2 -2 17 10 33 28 36 38 73 41 105
6 38 -41 56 -33 56 25 0 38 -4 52 -19 59 -11 6 -33 33 -50 61 l-31 50 -55 0
-55 0 7 -112z m53 47 c0 -11 12 -15 44 -15 30 0 46 -5 50 -15 4 -12 -6 -15
-59 -15 l-65 0 0 30 c0 20 5 30 15 30 8 0 15 -7 15 -15z"/>
<path d="M9787 2832 c-20 -22 -22 -43 -5 -60 39 -39 100 17 63 58 -22 25 -37
25 -58 2z"/>
<path d="M10117 2829 c-18 -25 -11 -56 13 -64 44 -14 75 32 44 66 -22 25 -39
24 -57 -2z"/>
<path d="M11315 2902 c-26 -6 -37 -23 -24 -38 13 -15 46 -7 54 14 7 20 -5 30
-30 24z"/>
<path d="M11981 2956 c-17 -20 -10 -77 12 -90 25 -16 51 4 55 43 4 36 -12 61
-38 61 -10 0 -23 -6 -29 -14z"/>
<path d="M4752 2793 c2 -30 7 -38 23 -38 16 0 20 7 20 35 0 29 -4 36 -23 38
-21 3 -23 0 -20 -35z"/>
<path d="M4870 2825 c-17 -21 2 -65 29 -65 24 0 33 23 21 55 -11 28 -31 32
-50 10z"/>
<path d="M4644 2769 c-11 -18 13 -34 31 -19 8 7 15 16 15 21 0 13 -38 11 -46
-2z"/>
<path d="M3408 2770 c4 -27 8 -31 31 -28 20 2 26 8 26 28 0 21 -5 26 -31 28
-29 3 -30 1 -26 -28z"/>
<path d="M4057 2793 c-14 -13 -7 -71 9 -77 37 -14 59 38 28 68 -17 17 -27 20
-37 9z"/>
<path d="M3771 2766 c-14 -16 -8 -48 13 -65 9 -8 18 -7 32 3 15 12 17 19 9 42
-12 33 -36 42 -54 20z"/>
<path d="M3534 2709 c-9 -15 12 -33 30 -26 9 4 16 13 16 22 0 17 -35 21 -46 4z"/>
<path d="M3644 2755 c-10 -25 13 -67 34 -63 12 2 17 13 17 38 0 29 -4 36 -23
38 -13 2 -25 -3 -28 -13z"/>
<path d="M3840 2435 c-13 -16 -6 -47 15 -65 32 -26 63 38 33 68 -16 16 -33 15
-48 -3z"/>
<path d="M3661 2426 c-13 -15 -1 -59 19 -71 16 -10 40 14 40 39 0 40 -36 60
-59 32z"/>
<path d="M4463 2433 c-7 -2 -13 -11 -13 -20 0 -21 44 -13 48 10 3 17 -10 21
-35 10z"/>
<path d="M4150 2455 c-11 -13 -8 -15 20 -15 21 0 30 4 28 13 -7 18 -33 20 -48
2z"/>
<path d="M3969 2439 c-13 -25 2 -69 24 -69 19 0 37 21 37 45 0 43 -41 60 -61
24z"/>
<path d="M3417 2423 c-13 -12 -7 -60 8 -73 22 -18 45 -5 45 28 0 39 -32 67
-53 45z"/>
<path d="M3542 2428 c-19 -19 -14 -28 18 -28 32 0 42 23 14 34 -20 8 -18 8
-32 -6z"/>
<path d="M4020 2135 c-15 -19 -5 -64 17 -72 35 -14 52 57 19 79 -16 11 -22 10
-36 -7z"/>
<path d="M3560 2057 c0 -21 11 -27 31 -16 27 14 23 29 -6 29 -14 0 -25 -6 -25
-13z"/>
<path d="M3152 2087 c-7 -8 -10 -16 -7 -19 10 -10 56 4 52 16 -6 17 -32 19
-45 3z"/>
</g>
</svg>
